<svg width="153" height="113" viewBox="0 0 153 113" fill="none" xmlns="http://www.w3.org/2000/svg">
<path d="M11.1414 101.545C11.545 101.818 11.8803 102.176 12.1473 102.619C12.4142 103.062 12.5477 103.599 12.5477 104.23C12.5477 104.875 12.4077 105.435 12.1277 105.91C11.8478 106.385 11.4832 106.776 11.034 107.082C10.5978 107.382 10.103 107.609 9.54961 107.766C9.00273 107.922 8.43633 108 7.85039 108H1.28789V107.307C1.44414 107.294 1.672 107.268 1.97148 107.229C2.27096 107.183 2.4858 107.131 2.61601 107.072C2.81784 106.981 2.96106 106.861 3.0457 106.711C3.13034 106.555 3.17265 106.356 3.17265 106.115V96.1543C3.17265 95.9329 3.13359 95.7376 3.05547 95.5684C2.98385 95.3991 2.83737 95.2624 2.61601 95.1582C2.4207 95.0605 2.2026 94.9857 1.96172 94.9336C1.72083 94.8815 1.51901 94.849 1.35625 94.8359V94.1426H7.75273C8.24752 94.1426 8.71953 94.1914 9.16875 94.2891C9.62448 94.3867 10.0574 94.5592 10.4676 94.8066C10.8517 95.0345 11.1674 95.3438 11.4148 95.7344C11.6622 96.125 11.7859 96.6003 11.7859 97.1602C11.7859 97.6484 11.698 98.0846 11.5223 98.4688C11.3465 98.8464 11.0991 99.1719 10.7801 99.4453C10.4806 99.7057 10.1355 99.9271 9.74492 100.109C9.3608 100.285 8.94414 100.422 8.49492 100.52V100.607C8.89205 100.653 9.33476 100.754 9.82304 100.91C10.3178 101.06 10.7573 101.271 11.1414 101.545ZM8.78789 99.4551C9.02877 99.1751 9.19479 98.8691 9.28593 98.5371C9.38359 98.2051 9.43242 97.8112 9.43242 97.3555C9.43242 96.5938 9.22409 95.998 8.80742 95.5684C8.39075 95.1322 7.7332 94.9141 6.83476 94.9141C6.62643 94.9141 6.36276 94.9206 6.04375 94.9336C5.73125 94.9401 5.46758 94.9466 5.25273 94.9531V100.275H6.49297C7.02682 100.275 7.48255 100.207 7.86015 100.07C8.24427 99.9336 8.55351 99.7285 8.78789 99.4551ZM10.1355 103.879C10.1355 103.059 9.85885 102.385 9.30547 101.857C8.75859 101.33 7.97409 101.066 6.95195 101.066C6.53528 101.066 6.18372 101.073 5.89726 101.086C5.6108 101.092 5.39596 101.099 5.25273 101.105V105.988C5.25273 106.398 5.41875 106.708 5.75078 106.916C6.08281 107.124 6.54505 107.229 7.1375 107.229C8.10755 107.229 8.84974 106.945 9.36406 106.379C9.87838 105.812 10.1355 104.979 10.1355 103.879ZM24.734 103.088C24.734 103.765 24.6266 104.432 24.4117 105.09C24.1969 105.741 23.8909 106.294 23.4937 106.75C23.0445 107.271 22.5237 107.658 21.9312 107.912C21.3388 108.166 20.6747 108.293 19.9391 108.293C19.3271 108.293 18.7444 108.179 18.191 107.951C17.6376 107.717 17.1461 107.378 16.7164 106.936C16.2932 106.499 15.9547 105.969 15.7008 105.344C15.4534 104.712 15.3297 104.006 15.3297 103.225C15.3297 101.721 15.7659 100.49 16.6383 99.5332C17.5172 98.5762 18.6663 98.0977 20.0855 98.0977C21.4332 98.0977 22.5432 98.5534 23.4156 99.4648C24.2945 100.37 24.734 101.577 24.734 103.088ZM22.7125 103.107C22.7125 102.619 22.6637 102.105 22.566 101.564C22.4684 101.018 22.3219 100.555 22.1266 100.178C21.9182 99.7741 21.6448 99.4518 21.3062 99.2109C20.9677 98.9635 20.5543 98.8398 20.066 98.8398C19.5647 98.8398 19.135 98.9635 18.7769 99.2109C18.4254 99.4583 18.1389 99.7969 17.9176 100.227C17.7092 100.624 17.5628 101.076 17.4781 101.584C17.3935 102.092 17.3512 102.583 17.3512 103.059C17.3512 103.684 17.4 104.263 17.4977 104.797C17.6018 105.324 17.7646 105.796 17.9859 106.213C18.2073 106.63 18.484 106.958 18.816 107.199C19.1546 107.434 19.5712 107.551 20.066 107.551C20.8798 107.551 21.5243 107.157 21.9996 106.369C22.4749 105.581 22.7125 104.494 22.7125 103.107ZM41.6762 98.9961C41.4027 99.0221 41.1065 99.1361 40.7875 99.3379C40.475 99.5397 40.2471 99.8424 40.1039 100.246C39.7784 101.203 39.4691 102.111 39.1762 102.971C38.8897 103.824 38.5674 104.784 38.2094 105.852C38.0922 106.19 37.9717 106.555 37.848 106.945C37.7309 107.336 37.6234 107.71 37.5258 108.068H36.6859L34.098 100.979L31.4906 108.068H30.6898C30.2016 106.623 29.723 105.191 29.2543 103.771C28.7921 102.346 28.3819 101.105 28.0238 100.051C27.9197 99.7448 27.7211 99.5039 27.4281 99.3281C27.1352 99.1523 26.8519 99.0482 26.5785 99.0156V98.3711H30.8754V99.0547C30.6605 99.0612 30.4262 99.097 30.1723 99.1621C29.9249 99.2272 29.8012 99.3346 29.8012 99.4844C29.8012 99.5104 29.8109 99.5658 29.8305 99.6504C29.8565 99.735 29.8858 99.8262 29.9184 99.9238C30.1267 100.607 30.3611 101.372 30.6215 102.219C30.8884 103.059 31.2302 104.152 31.6469 105.5L34.1078 98.5664H35.0453L37.5551 105.402C37.835 104.53 38.1117 103.687 38.3852 102.873C38.6651 102.053 38.9092 101.285 39.1176 100.568C39.1631 100.399 39.2055 100.246 39.2445 100.109C39.2901 99.9661 39.3129 99.8262 39.3129 99.6895C39.3129 99.5723 39.2608 99.4681 39.1566 99.377C39.0525 99.2858 38.9255 99.2109 38.7758 99.1523C38.6456 99.1003 38.5023 99.0612 38.3461 99.0352C38.1964 99.0091 38.0857 98.9961 38.0141 98.9961V98.3711H41.6762V98.9961ZM47.7883 108H43.091V107.355C43.2408 107.342 43.4003 107.329 43.5695 107.316C43.7388 107.297 43.8788 107.271 43.9894 107.238C44.1717 107.18 44.3085 107.079 44.3996 106.936C44.4908 106.786 44.5363 106.594 44.5363 106.359V95.207C44.5363 94.9727 44.4842 94.7546 44.3801 94.5527C44.2824 94.3444 44.1522 94.1816 43.9894 94.0645C43.8723 93.9863 43.6574 93.9147 43.3449 93.8496C43.0324 93.7845 42.7818 93.7454 42.593 93.7324V93.1074L46.216 92.8828L46.3527 93.0293V106.242C46.3527 106.47 46.395 106.659 46.4797 106.809C46.5643 106.952 46.701 107.062 46.8898 107.141C47.0331 107.206 47.173 107.255 47.3098 107.287C47.453 107.32 47.6125 107.342 47.7883 107.355V108ZM56.5566 103.283C56.8236 103.518 57.0286 103.788 57.1719 104.094C57.3151 104.4 57.3867 104.774 57.3867 105.217C57.3867 106.109 57.0514 106.838 56.3809 107.404C55.7168 107.971 54.8542 108.254 53.793 108.254C53.2331 108.254 52.7155 108.153 52.2402 107.951C51.7715 107.749 51.4362 107.564 51.2344 107.395L51.0391 108.029H50.3066L50.209 104.68H50.8828C50.9349 104.934 51.0456 105.23 51.2148 105.568C51.3841 105.907 51.5892 106.213 51.8301 106.486C52.084 106.773 52.3867 107.014 52.7383 107.209C53.0964 107.404 53.4967 107.502 53.9394 107.502C54.5644 107.502 55.0462 107.362 55.3848 107.082C55.7233 106.796 55.8926 106.389 55.8926 105.861C55.8926 105.588 55.8372 105.354 55.7266 105.158C55.6224 104.956 55.4661 104.781 55.2578 104.631C55.043 104.481 54.7793 104.348 54.4668 104.23C54.1543 104.107 53.806 103.986 53.4219 103.869C53.1159 103.778 52.7741 103.654 52.3965 103.498C52.0254 103.335 51.7064 103.146 51.4394 102.932C51.153 102.704 50.9186 102.424 50.7363 102.092C50.554 101.76 50.4629 101.369 50.4629 100.92C50.4629 100.132 50.7559 99.4648 51.3418 98.918C51.9277 98.3711 52.7122 98.0977 53.6953 98.0977C54.0729 98.0977 54.457 98.1465 54.8477 98.2441C55.2448 98.3418 55.5671 98.459 55.8144 98.5957L56.0391 98.0879H56.7422L56.8887 101.184H56.2148C56.0781 100.493 55.7819 99.9336 55.3262 99.5039C54.8769 99.0677 54.3268 98.8496 53.6758 98.8496C53.1419 98.8496 52.722 98.9831 52.416 99.25C52.11 99.5169 51.957 99.8392 51.957 100.217C51.957 100.51 52.0059 100.754 52.1035 100.949C52.2077 101.145 52.3607 101.311 52.5625 101.447C52.7578 101.577 53.0019 101.701 53.2949 101.818C53.5944 101.929 53.9622 102.056 54.3984 102.199C54.8281 102.336 55.2318 102.495 55.6094 102.678C55.9935 102.86 56.3092 103.062 56.5566 103.283ZM75.1969 107.824C74.8909 107.935 74.6207 108.023 74.3863 108.088C74.1585 108.16 73.898 108.195 73.6051 108.195C73.0973 108.195 72.6904 108.078 72.3844 107.844C72.0849 107.603 71.8928 107.255 71.8082 106.799H71.7496C71.3264 107.268 70.8707 107.626 70.3824 107.873C69.9006 108.12 69.318 108.244 68.6344 108.244C67.9117 108.244 67.316 108.023 66.8473 107.58C66.385 107.137 66.1539 106.558 66.1539 105.842C66.1539 105.471 66.206 105.139 66.3102 104.846C66.4143 104.553 66.5706 104.289 66.7789 104.055C66.9417 103.859 67.1565 103.687 67.4234 103.537C67.6904 103.381 67.941 103.257 68.1754 103.166C68.4684 103.055 69.0608 102.85 69.9527 102.551C70.8512 102.251 71.4566 102.017 71.7691 101.848V100.881C71.7691 100.796 71.7496 100.633 71.7105 100.393C71.678 100.152 71.6031 99.9238 71.4859 99.709C71.3557 99.4681 71.1702 99.2598 70.9293 99.084C70.6949 98.9017 70.3596 98.8105 69.9234 98.8105C69.624 98.8105 69.344 98.8626 69.0836 98.9668C68.8297 99.0645 68.6506 99.1686 68.5465 99.2793C68.5465 99.4095 68.5758 99.6016 68.6344 99.8555C68.6995 100.109 68.732 100.344 68.732 100.559C68.732 100.786 68.6279 100.995 68.4195 101.184C68.2177 101.372 67.9345 101.467 67.5699 101.467C67.2444 101.467 67.0035 101.353 66.8473 101.125C66.6975 100.891 66.6227 100.63 66.6227 100.344C66.6227 100.044 66.7268 99.7578 66.9352 99.4844C67.15 99.2109 67.4267 98.9668 67.7652 98.752C68.0582 98.5697 68.413 98.4167 68.8297 98.293C69.2463 98.1628 69.6532 98.0977 70.0504 98.0977C70.5973 98.0977 71.0725 98.1367 71.4762 98.2148C71.8863 98.2865 72.2574 98.446 72.5894 98.6934C72.9215 98.9342 73.1721 99.263 73.3414 99.6797C73.5172 100.09 73.6051 100.62 73.6051 101.271C73.6051 102.202 73.5953 103.029 73.5758 103.752C73.5562 104.468 73.5465 105.253 73.5465 106.105C73.5465 106.359 73.5888 106.561 73.6734 106.711C73.7646 106.861 73.9013 106.988 74.0836 107.092C74.1812 107.15 74.3342 107.183 74.5426 107.189C74.7574 107.196 74.9755 107.199 75.1969 107.199V107.824ZM71.7887 102.668C71.2353 102.831 70.7503 102.99 70.3336 103.146C69.9169 103.303 69.5296 103.498 69.1715 103.732C68.846 103.954 68.5888 104.217 68.4 104.523C68.2112 104.823 68.1168 105.181 68.1168 105.598C68.1168 106.138 68.2568 106.535 68.5367 106.789C68.8232 107.043 69.1845 107.17 69.6207 107.17C70.0829 107.17 70.4898 107.059 70.8414 106.838C71.193 106.61 71.4892 106.343 71.7301 106.037L71.7887 102.668ZM87.9887 108H83.2719V107.355C83.4216 107.342 83.5844 107.329 83.7602 107.316C83.9424 107.303 84.0922 107.277 84.2094 107.238C84.3917 107.18 84.5251 107.079 84.6098 106.936C84.7009 106.786 84.7465 106.594 84.7465 106.359V101.408C84.7465 100.725 84.5837 100.197 84.2582 99.8262C83.9392 99.4551 83.5486 99.2695 83.0863 99.2695C82.7413 99.2695 82.4255 99.3249 82.1391 99.4355C81.8526 99.5397 81.5987 99.6699 81.3773 99.8262C81.1625 99.9759 80.99 100.139 80.8598 100.314C80.7361 100.484 80.6449 100.62 80.5863 100.725V106.262C80.5863 106.483 80.6319 106.665 80.723 106.809C80.8142 106.952 80.9509 107.062 81.1332 107.141C81.2699 107.206 81.4164 107.255 81.5727 107.287C81.7354 107.32 81.9014 107.342 82.0707 107.355V108H77.3539V107.355C77.5036 107.342 77.6566 107.329 77.8129 107.316C77.9756 107.303 78.1156 107.277 78.2328 107.238C78.4151 107.18 78.5486 107.079 78.6332 106.936C78.7243 106.786 78.7699 106.594 78.7699 106.359V100.412C78.7699 100.191 78.7211 99.9889 78.6234 99.8066C78.5323 99.6178 78.4021 99.4648 78.2328 99.3477C78.1091 99.2695 77.9626 99.2142 77.7934 99.1816C77.6241 99.1426 77.4418 99.1165 77.2465 99.1035V98.4688L80.4496 98.2539L80.5863 98.3906V99.748H80.6352C80.7914 99.5918 80.9867 99.4062 81.2211 99.1914C81.4555 98.9701 81.6768 98.791 81.8852 98.6543C82.126 98.498 82.4125 98.3678 82.7445 98.2637C83.0766 98.1595 83.4509 98.1074 83.8676 98.1074C84.7921 98.1074 85.4756 98.3971 85.9184 98.9766C86.3676 99.5495 86.5922 100.314 86.5922 101.271V106.281C86.5922 106.509 86.6312 106.695 86.7094 106.838C86.7875 106.975 86.921 107.082 87.1098 107.16C87.266 107.225 87.3995 107.271 87.5102 107.297C87.6273 107.323 87.7868 107.342 87.9887 107.355V108ZM100.917 107.824L97.5578 108.039L97.4113 107.902V107.004L97.3332 106.984C96.9947 107.362 96.5747 107.671 96.0734 107.912C95.5786 108.153 95.0676 108.273 94.5402 108.273C93.9934 108.273 93.4628 108.153 92.9484 107.912C92.4406 107.665 91.9979 107.32 91.6203 106.877C91.2362 106.428 90.9302 105.887 90.7023 105.256C90.481 104.624 90.3703 103.928 90.3703 103.166C90.3703 102.469 90.4908 101.809 90.7316 101.184C90.9725 100.559 91.3046 100.012 91.7277 99.543C92.1249 99.1068 92.6099 98.7585 93.1828 98.498C93.7622 98.2376 94.3514 98.1074 94.9504 98.1074C95.3996 98.1074 95.8391 98.166 96.2687 98.2832C96.7049 98.3939 97.0793 98.5371 97.3918 98.7129V95.3633C97.3918 95.0898 97.3462 94.8424 97.2551 94.6211C97.1639 94.3932 97.037 94.2207 96.8742 94.1035C96.6919 93.9798 96.4445 93.8919 96.132 93.8398C95.826 93.7812 95.494 93.7389 95.1359 93.7129V93.1074L99.0715 92.8828L99.218 93.0293V106.018C99.218 106.245 99.2603 106.441 99.3449 106.604C99.4361 106.76 99.5663 106.893 99.7355 107.004C99.8592 107.082 100.038 107.131 100.273 107.15C100.507 107.17 100.722 107.183 100.917 107.189V107.824ZM97.3918 106.135V100.5C97.3397 100.331 97.2551 100.148 97.1379 99.9531C97.0207 99.7578 96.8742 99.5788 96.6984 99.416C96.5096 99.2533 96.2883 99.1198 96.0344 99.0156C95.7805 98.9049 95.4842 98.8496 95.1457 98.8496C94.7551 98.8496 94.3937 98.9505 94.0617 99.1523C93.7362 99.3542 93.4465 99.6439 93.1926 100.021C92.9517 100.386 92.7596 100.852 92.6164 101.418C92.4797 101.978 92.4113 102.6 92.4113 103.283C92.4113 103.83 92.4634 104.328 92.5676 104.777C92.6717 105.22 92.8475 105.633 93.0949 106.018C93.3228 106.382 93.6125 106.675 93.9641 106.896C94.3221 107.118 94.7453 107.229 95.2336 107.229C95.7544 107.229 96.1841 107.115 96.5227 106.887C96.8677 106.659 97.1574 106.408 97.3918 106.135ZM113.532 108.254C112.139 108.254 111.048 107.792 110.261 106.867C109.473 105.943 109.079 104.702 109.079 103.146C109.079 102.469 109.183 101.838 109.391 101.252C109.606 100.66 109.915 100.122 110.319 99.6406C110.703 99.1784 111.185 98.8073 111.764 98.5273C112.344 98.2409 112.975 98.0977 113.659 98.0977C114.603 98.0977 115.371 98.3255 115.964 98.7812C116.556 99.2305 116.852 99.8457 116.852 100.627C116.852 100.952 116.774 101.242 116.618 101.496C116.462 101.743 116.205 101.867 115.846 101.867C115.462 101.867 115.163 101.77 114.948 101.574C114.74 101.379 114.636 101.161 114.636 100.92C114.636 100.627 114.675 100.327 114.753 100.021C114.831 99.709 114.876 99.4811 114.889 99.3379C114.772 99.1361 114.596 99.0026 114.362 98.9375C114.134 98.8659 113.887 98.8301 113.62 98.8301C113.307 98.8301 113.008 98.8984 112.721 99.0352C112.442 99.1654 112.168 99.4095 111.901 99.7676C111.66 100.093 111.465 100.533 111.315 101.086C111.165 101.639 111.091 102.3 111.091 103.068C111.091 104.279 111.358 105.269 111.891 106.037C112.432 106.799 113.138 107.18 114.011 107.18C114.642 107.18 115.169 107.027 115.593 106.721C116.022 106.415 116.419 105.956 116.784 105.344L117.409 105.754C116.979 106.522 116.413 107.131 115.71 107.58C115.007 108.029 114.281 108.254 113.532 108.254ZM129.683 107.824L126.548 108.039L126.402 107.902V106.682H126.343C126.187 106.844 126.011 107.02 125.816 107.209C125.621 107.391 125.396 107.557 125.142 107.707C124.849 107.883 124.566 108.016 124.293 108.107C124.019 108.199 123.632 108.244 123.13 108.244C122.278 108.244 121.627 107.967 121.177 107.414C120.735 106.854 120.513 106.044 120.513 104.982V100.373C120.513 100.139 120.468 99.9434 120.377 99.7871C120.292 99.6243 120.165 99.4844 119.996 99.3672C119.879 99.2891 119.732 99.2337 119.556 99.2012C119.38 99.1621 119.195 99.1361 119 99.123V98.4883L122.212 98.2539L122.359 98.3906V105.08C122.359 105.777 122.515 106.301 122.828 106.652C123.14 107.004 123.515 107.18 123.951 107.18C124.309 107.18 124.628 107.124 124.908 107.014C125.188 106.903 125.422 106.773 125.611 106.623C125.787 106.486 125.94 106.343 126.07 106.193C126.207 106.037 126.311 105.894 126.382 105.764V100.305C126.382 100.09 126.337 99.901 126.246 99.7383C126.155 99.569 126.028 99.4258 125.865 99.3086C125.748 99.2305 125.572 99.1849 125.337 99.1719C125.11 99.1523 124.852 99.1361 124.566 99.123V98.4883L128.062 98.2539L128.209 98.3906V106.037C128.209 106.258 128.254 106.447 128.345 106.604C128.436 106.76 128.563 106.893 128.726 107.004C128.843 107.076 128.983 107.124 129.146 107.15C129.309 107.17 129.488 107.183 129.683 107.189V107.824ZM140.864 99.5137C141.248 99.9694 141.544 100.5 141.752 101.105C141.967 101.704 142.075 102.391 142.075 103.166C142.075 103.928 141.948 104.624 141.694 105.256C141.44 105.881 141.105 106.415 140.688 106.857C140.252 107.307 139.767 107.652 139.233 107.893C138.699 108.133 138.133 108.254 137.534 108.254C136.954 108.254 136.479 108.189 136.108 108.059C135.737 107.928 135.434 107.775 135.2 107.6H135.121V110.49C135.121 110.725 135.167 110.92 135.258 111.076C135.349 111.232 135.489 111.346 135.678 111.418C135.834 111.477 136.056 111.532 136.342 111.584C136.635 111.643 136.876 111.675 137.065 111.682V112.336H131.684V111.682C131.886 111.669 132.081 111.652 132.27 111.633C132.459 111.613 132.628 111.581 132.778 111.535C132.973 111.47 133.11 111.356 133.188 111.193C133.266 111.031 133.305 110.839 133.305 110.617V100.373C133.305 100.178 133.256 99.9889 133.159 99.8066C133.061 99.6243 132.934 99.4779 132.778 99.3672C132.661 99.2891 132.498 99.2305 132.289 99.1914C132.081 99.1458 131.879 99.1165 131.684 99.1035V98.4688L134.965 98.2539L135.102 98.3711V99.4551L135.18 99.4746C135.519 99.084 135.939 98.7585 136.44 98.498C136.941 98.2376 137.439 98.1074 137.934 98.1074C138.533 98.1074 139.08 98.2344 139.575 98.4883C140.076 98.7422 140.506 99.084 140.864 99.5137ZM139.272 106.438C139.532 106.034 139.724 105.565 139.848 105.031C139.972 104.497 140.034 103.902 140.034 103.244C140.034 102.762 139.982 102.271 139.877 101.77C139.773 101.268 139.61 100.832 139.389 100.461C139.168 100.083 138.878 99.7773 138.52 99.543C138.162 99.3086 137.732 99.1914 137.231 99.1914C136.749 99.1914 136.339 99.2988 136 99.5137C135.662 99.722 135.369 99.9727 135.121 100.266V105.959C135.18 106.135 135.274 106.317 135.405 106.506C135.541 106.695 135.691 106.857 135.854 106.994C136.056 107.157 136.274 107.29 136.508 107.395C136.743 107.492 137.029 107.541 137.368 107.541C137.732 107.541 138.084 107.447 138.422 107.258C138.761 107.062 139.044 106.789 139.272 106.438ZM151.048 103.283C151.315 103.518 151.52 103.788 151.663 104.094C151.807 104.4 151.878 104.774 151.878 105.217C151.878 106.109 151.543 106.838 150.872 107.404C150.208 107.971 149.346 108.254 148.284 108.254C147.724 108.254 147.207 108.153 146.732 107.951C146.263 107.749 145.928 107.564 145.726 107.395L145.53 108.029H144.798L144.7 104.68H145.374C145.426 104.934 145.537 105.23 145.706 105.568C145.876 105.907 146.081 106.213 146.321 106.486C146.575 106.773 146.878 107.014 147.23 107.209C147.588 107.404 147.988 107.502 148.431 107.502C149.056 107.502 149.538 107.362 149.876 107.082C150.215 106.796 150.384 106.389 150.384 105.861C150.384 105.588 150.329 105.354 150.218 105.158C150.114 104.956 149.958 104.781 149.749 104.631C149.534 104.481 149.271 104.348 148.958 104.23C148.646 104.107 148.297 103.986 147.913 103.869C147.607 103.778 147.265 103.654 146.888 103.498C146.517 103.335 146.198 103.146 145.931 102.932C145.644 102.704 145.41 102.424 145.228 102.092C145.045 101.76 144.954 101.369 144.954 100.92C144.954 100.132 145.247 99.4648 145.833 98.918C146.419 98.3711 147.204 98.0977 148.187 98.0977C148.564 98.0977 148.948 98.1465 149.339 98.2441C149.736 98.3418 150.058 98.459 150.306 98.5957L150.53 98.0879H151.234L151.38 101.184H150.706C150.57 100.493 150.273 99.9336 149.818 99.5039C149.368 99.0677 148.818 98.8496 148.167 98.8496C147.633 98.8496 147.213 98.9831 146.907 99.25C146.601 99.5169 146.448 99.8392 146.448 100.217C146.448 100.51 146.497 100.754 146.595 100.949C146.699 101.145 146.852 101.311 147.054 101.447C147.249 101.577 147.493 101.701 147.786 101.818C148.086 101.929 148.454 102.056 148.89 102.199C149.32 102.336 149.723 102.495 150.101 102.678C150.485 102.86 150.801 103.062 151.048 103.283Z" fill="#545454"/>
<path d="M106.985 39.8551L104.126 20.6441C104.079 15.0657 100.693 9.89303 94.8159 6.43765C89.9483 3.57605 83.6213 2 77.0001 2C70.3786 2 64.0515 3.57605 59.1838 6.43765C53.3069 9.89303 49.9205 15.0657 49.8744 20.6441L47.0149 39.8551C47.005 39.9216 47 39.9887 47 40.056C47 45.7049 50.7645 50.936 57.3284 54.408C62.7022 57.2504 69.6883 58.8158 77.0001 58.8158C84.3116 58.8158 91.2978 57.2504 96.6716 54.408C103.235 50.936 107 45.7049 107 40.056C107 39.9888 106.995 39.9216 106.985 39.8551ZM60.5668 8.78995C65.0215 6.17105 70.8576 4.72871 77.0001 4.72871C83.1424 4.72871 88.9785 6.17105 93.4331 8.78995C98.4956 11.7663 101.399 16.1293 101.399 20.7599C101.399 25.3906 98.4957 29.7535 93.4332 32.7299C88.9785 35.3488 83.1424 36.7911 77.0001 36.7911C70.8577 36.7911 65.0215 35.3488 60.5669 32.7299C55.5044 29.7536 52.6007 25.3906 52.6007 20.7599C52.6007 16.1293 55.5043 11.7664 60.5668 8.78995ZM95.3956 51.996C90.4079 54.6342 83.875 56.0871 77.0001 56.0871C70.125 56.0871 63.592 54.6342 58.6044 51.996C53.0037 49.0333 49.7745 44.7218 49.7292 40.1535L51.6076 27.5342C53.1723 30.4612 55.7528 33.0645 59.1841 35.0819C64.0517 37.9434 70.3787 39.5195 77.0001 39.5195C83.6213 39.5195 89.9485 37.9434 94.816 35.0819C98.2473 33.0645 100.828 30.461 102.393 27.5342L104.271 40.1535C104.225 44.7219 100.996 49.0335 95.3956 51.996Z" fill="#F1CDB3"/>
<path d="M77.0001 34.0618C86.3534 34.0618 94.6079 30.4427 97.5397 25.0569C98.29 23.6803 98.6707 22.2344 98.6707 20.7599C98.6707 17.0676 96.3194 13.652 92.0502 11.1422C88.0085 8.76631 82.6637 7.45791 77.0001 7.45791C71.3366 7.45791 65.9916 8.76643 61.9501 11.1423C57.6807 13.6521 55.3295 17.0676 55.3295 20.76C55.3295 22.2347 55.71 23.6804 56.4601 25.0563C59.3923 30.4427 67.6467 34.0618 77.0001 34.0618ZM77.0001 31.3332C69.1546 31.3332 62.0282 28.5145 59.2557 24.4006C62.0293 20.2891 69.1568 17.4732 77.0001 17.4732C84.8435 17.4732 91.9711 20.2891 94.7446 24.4008C91.9726 28.5145 84.8458 31.3332 77.0001 31.3332ZM58.0579 20.76C58.058 18.0744 59.9313 15.4942 63.3328 13.4945C66.9617 11.3613 71.8154 10.1865 77 10.1865C82.1845 10.1865 87.0384 11.3613 90.6672 13.4946C94.0687 15.4942 95.9421 18.0743 95.9421 20.76C95.9421 20.9993 95.9259 21.238 95.896 21.4761C92.1332 17.3699 84.9658 14.7446 77 14.7446C69.0342 14.7446 61.8669 17.37 58.1041 21.4761C58.0738 21.2386 58.0584 20.9994 58.0579 20.76Z" fill="#F1CDB3"/>
<path d="M77 41.7701C76.8155 41.7701 76.6329 41.8076 76.4633 41.8801C76.2936 41.9527 76.1405 42.059 76.0131 42.1924C75.1243 43.1235 72.225 46.3365 72.225 48.5916C72.225 51.2246 74.367 53.3666 77 53.3666C79.633 53.3666 81.775 51.2246 81.775 48.5916C81.775 46.3365 78.8756 43.1235 77.987 42.1924C77.8595 42.059 77.7064 41.9527 77.5368 41.8801C77.3671 41.8076 77.1845 41.7701 77 41.7701ZM77 50.6381C75.8716 50.6381 74.9536 49.7201 74.9536 48.5917C74.9536 47.986 75.9058 46.5224 77 45.1941C78.0943 46.5226 79.0465 47.986 79.0465 48.5917C79.0465 49.7201 78.1284 50.6381 77 50.6381Z" fill="#F1CDB3"/>
<path d="M70.8843 23.8977H70.4637C69.7102 23.8977 69.0994 24.5085 69.0994 25.262C69.0994 26.0155 69.7102 26.6263 70.4637 26.6263H70.8843C71.6378 26.6263 72.2486 26.0155 72.2486 25.262C72.2486 24.5085 71.6378 23.8977 70.8843 23.8977Z" fill="#F1CDB3"/>
<path d="M87.074 23.8977H77.342C76.5884 23.8977 75.9777 24.5085 75.9777 25.262C75.9777 26.0155 76.5884 26.6263 77.342 26.6263H87.074C87.8275 26.6263 88.4383 26.0155 88.4383 25.262C88.4383 24.5085 87.8275 23.8977 87.074 23.8977Z" fill="#F1CDB3"/>
</svg>
