<svg width="165" height="113" viewBox="0 0 165 113" fill="none" xmlns="http://www.w3.org/2000/svg">
<path d="M7.40195 108.322C6.57513 108.322 5.78086 108.16 5.01914 107.834C4.26393 107.508 3.59336 107.04 3.00742 106.428C2.428 105.816 1.96576 105.07 1.6207 104.191C1.27565 103.306 1.10313 102.31 1.10313 101.203C1.10313 100.096 1.2724 99.0938 1.61094 98.1953C1.94948 97.2904 2.41823 96.5124 3.01719 95.8613C3.60964 95.2168 4.30951 94.7188 5.1168 94.3672C5.92409 94.0156 6.78672 93.8398 7.70469 93.8398C8.38828 93.8398 9.00677 93.9245 9.56016 94.0938C10.1135 94.263 10.6409 94.5007 11.1422 94.8066L11.5426 94.1426H12.3238L12.4117 99.084H11.6109C11.5068 98.6022 11.3505 98.0814 11.1422 97.5215C10.9339 96.9551 10.6897 96.4766 10.4098 96.0859C10.0973 95.6432 9.72617 95.2982 9.29649 95.0508C8.8668 94.7969 8.37526 94.6699 7.82188 94.6699C7.19037 94.6699 6.60117 94.8099 6.0543 95.0898C5.51393 95.3698 5.04518 95.7832 4.64805 96.3301C4.27044 96.8574 3.97422 97.528 3.75938 98.3418C3.54453 99.1556 3.43711 100.064 3.43711 101.066C3.43711 101.952 3.54779 102.766 3.76914 103.508C3.99701 104.243 4.31927 104.891 4.73594 105.451C5.15261 106.005 5.64414 106.438 6.21055 106.75C6.78347 107.062 7.42149 107.219 8.12461 107.219C8.65195 107.219 9.13698 107.137 9.57969 106.975C10.0224 106.805 10.4065 106.584 10.732 106.311C11.0576 106.024 11.344 105.699 11.5914 105.334C11.8388 104.969 12.0406 104.572 12.1969 104.143L12.9293 104.494C12.3694 105.868 11.6272 106.851 10.7027 107.443C9.77826 108.029 8.678 108.322 7.40195 108.322ZM24.4809 103.088C24.4809 103.765 24.3734 104.432 24.1586 105.09C23.9438 105.741 23.6378 106.294 23.2406 106.75C22.7914 107.271 22.2706 107.658 21.6781 107.912C21.0857 108.166 20.4216 108.293 19.6859 108.293C19.074 108.293 18.4913 108.179 17.9379 107.951C17.3845 107.717 16.893 107.378 16.4633 106.936C16.0401 106.499 15.7016 105.969 15.4477 105.344C15.2003 104.712 15.0766 104.006 15.0766 103.225C15.0766 101.721 15.5128 100.49 16.3852 99.5332C17.2641 98.5762 18.4132 98.0977 19.8324 98.0977C21.1801 98.0977 22.2901 98.5534 23.1625 99.4648C24.0414 100.37 24.4809 101.577 24.4809 103.088ZM22.4594 103.107C22.4594 102.619 22.4105 102.105 22.3129 101.564C22.2152 101.018 22.0688 100.555 21.8734 100.178C21.6651 99.7741 21.3917 99.4518 21.0531 99.2109C20.7146 98.9635 20.3012 98.8398 19.8129 98.8398C19.3116 98.8398 18.8819 98.9635 18.5238 99.2109C18.1723 99.4583 17.8858 99.7969 17.6645 100.227C17.4561 100.624 17.3096 101.076 17.225 101.584C17.1404 102.092 17.098 102.583 17.098 103.059C17.098 103.684 17.1469 104.263 17.2445 104.797C17.3487 105.324 17.5115 105.796 17.7328 106.213C17.9542 106.63 18.2309 106.958 18.5629 107.199C18.9014 107.434 19.3181 107.551 19.8129 107.551C20.6267 107.551 21.2712 107.157 21.7465 106.369C22.2217 105.581 22.4594 104.494 22.4594 103.107ZM31.5891 108H26.8918V107.355C27.0415 107.342 27.201 107.329 27.3703 107.316C27.5396 107.297 27.6796 107.271 27.7902 107.238C27.9725 107.18 28.1092 107.079 28.2004 106.936C28.2915 106.786 28.3371 106.594 28.3371 106.359V95.207C28.3371 94.9727 28.285 94.7546 28.1809 94.5527C28.0832 94.3444 27.953 94.1816 27.7902 94.0645C27.673 93.9863 27.4582 93.9147 27.1457 93.8496C26.8332 93.7845 26.5826 93.7454 26.3938 93.7324V93.1074L30.0168 92.8828L30.1535 93.0293V106.242C30.1535 106.47 30.1958 106.659 30.2805 106.809C30.3651 106.952 30.5018 107.062 30.6906 107.141C30.8339 107.206 30.9738 107.255 31.1105 107.287C31.2538 107.32 31.4133 107.342 31.5891 107.355V108ZM38.5117 108H33.8145V107.355C33.9642 107.342 34.1237 107.329 34.293 107.316C34.4622 107.297 34.6022 107.271 34.7129 107.238C34.8952 107.18 35.0319 107.079 35.123 106.936C35.2142 106.786 35.2598 106.594 35.2598 106.359V95.207C35.2598 94.9727 35.2077 94.7546 35.1035 94.5527C35.0059 94.3444 34.8757 94.1816 34.7129 94.0645C34.5957 93.9863 34.3809 93.9147 34.0684 93.8496C33.7559 93.7845 33.5052 93.7454 33.3164 93.7324V93.1074L36.9395 92.8828L37.0762 93.0293V106.242C37.0762 106.47 37.1185 106.659 37.2031 106.809C37.2878 106.952 37.4245 107.062 37.6133 107.141C37.7565 107.206 37.8965 107.255 38.0332 107.287C38.1764 107.32 38.3359 107.342 38.5117 107.355V108ZM50.0438 107.824C49.7378 107.935 49.4676 108.023 49.2332 108.088C49.0053 108.16 48.7449 108.195 48.452 108.195C47.9441 108.195 47.5372 108.078 47.2313 107.844C46.9318 107.603 46.7397 107.255 46.6551 106.799H46.5965C46.1733 107.268 45.7176 107.626 45.2293 107.873C44.7475 108.12 44.1648 108.244 43.4813 108.244C42.7586 108.244 42.1629 108.023 41.6941 107.58C41.2319 107.137 41.0008 106.558 41.0008 105.842C41.0008 105.471 41.0529 105.139 41.157 104.846C41.2612 104.553 41.4174 104.289 41.6258 104.055C41.7885 103.859 42.0034 103.687 42.2703 103.537C42.5372 103.381 42.7879 103.257 43.0223 103.166C43.3152 103.055 43.9077 102.85 44.7996 102.551C45.698 102.251 46.3035 102.017 46.616 101.848V100.881C46.616 100.796 46.5965 100.633 46.5574 100.393C46.5249 100.152 46.45 99.9238 46.3328 99.709C46.2026 99.4681 46.0171 99.2598 45.7762 99.084C45.5418 98.9017 45.2065 98.8105 44.7703 98.8105C44.4708 98.8105 44.1909 98.8626 43.9305 98.9668C43.6766 99.0645 43.4975 99.1686 43.3934 99.2793C43.3934 99.4095 43.4227 99.6016 43.4813 99.8555C43.5464 100.109 43.5789 100.344 43.5789 100.559C43.5789 100.786 43.4747 100.995 43.2664 101.184C43.0646 101.372 42.7814 101.467 42.4168 101.467C42.0913 101.467 41.8504 101.353 41.6941 101.125C41.5444 100.891 41.4695 100.63 41.4695 100.344C41.4695 100.044 41.5737 99.7578 41.782 99.4844C41.9969 99.2109 42.2736 98.9668 42.6121 98.752C42.9051 98.5697 43.2599 98.4167 43.6766 98.293C44.0932 98.1628 44.5001 98.0977 44.8973 98.0977C45.4441 98.0977 45.9194 98.1367 46.323 98.2148C46.7332 98.2865 47.1043 98.446 47.4363 98.6934C47.7684 98.9342 48.019 99.263 48.1883 99.6797C48.3641 100.09 48.452 100.62 48.452 101.271C48.452 102.202 48.4422 103.029 48.4227 103.752C48.4031 104.468 48.3934 105.253 48.3934 106.105C48.3934 106.359 48.4357 106.561 48.5203 106.711C48.6115 106.861 48.7482 106.988 48.9305 107.092C49.0281 107.15 49.1811 107.183 49.3895 107.189C49.6043 107.196 49.8224 107.199 50.0438 107.199V107.824ZM46.6355 102.668C46.0822 102.831 45.5971 102.99 45.1805 103.146C44.7638 103.303 44.3764 103.498 44.0184 103.732C43.6928 103.954 43.4357 104.217 43.2469 104.523C43.0581 104.823 42.9637 105.181 42.9637 105.598C42.9637 106.138 43.1036 106.535 43.3836 106.789C43.6701 107.043 44.0314 107.17 44.4676 107.17C44.9298 107.17 45.3367 107.059 45.6883 106.838C46.0398 106.61 46.3361 106.343 46.577 106.037L46.6355 102.668ZM59.5738 99.6113C59.5738 99.9434 59.4924 100.24 59.3297 100.5C59.1669 100.754 58.9163 100.881 58.5777 100.881C58.2132 100.881 57.9332 100.786 57.7379 100.598C57.5491 100.409 57.4547 100.201 57.4547 99.9727C57.4547 99.8294 57.4645 99.6992 57.484 99.582C57.51 99.4648 57.5328 99.3477 57.5523 99.2305C57.2464 99.2305 56.8883 99.3542 56.4781 99.6016C56.068 99.849 55.7197 100.201 55.4332 100.656V106.262C55.4332 106.49 55.4755 106.675 55.5602 106.818C55.6513 106.962 55.7913 107.069 55.9801 107.141C56.1428 107.206 56.3512 107.255 56.6051 107.287C56.8655 107.32 57.0901 107.342 57.2789 107.355V108H52.2008V107.355C52.3505 107.342 52.5035 107.329 52.6598 107.316C52.8225 107.303 52.9625 107.277 53.0797 107.238C53.262 107.18 53.3954 107.079 53.4801 106.936C53.5712 106.786 53.6168 106.594 53.6168 106.359V100.412C53.6168 100.21 53.568 100.012 53.4703 99.8164C53.3792 99.6211 53.249 99.4648 53.0797 99.3477C52.956 99.2695 52.8095 99.2142 52.6402 99.1816C52.471 99.1426 52.2887 99.1165 52.0934 99.1035V98.4688L55.2965 98.2539L55.4332 98.3906V99.748H55.482C55.8857 99.2207 56.3349 98.8203 56.8297 98.5469C57.3245 98.2734 57.777 98.1367 58.1871 98.1367C58.5973 98.1367 58.9293 98.2702 59.1832 98.5371C59.4436 98.804 59.5738 99.1621 59.5738 99.6113ZM67.9613 103.283C68.2283 103.518 68.4333 103.788 68.5766 104.094C68.7198 104.4 68.7914 104.774 68.7914 105.217C68.7914 106.109 68.4561 106.838 67.7855 107.404C67.1215 107.971 66.2589 108.254 65.1977 108.254C64.6378 108.254 64.1202 108.153 63.6449 107.951C63.1762 107.749 62.8409 107.564 62.6391 107.395L62.4438 108.029H61.7113L61.6137 104.68H62.2875C62.3396 104.934 62.4503 105.23 62.6195 105.568C62.7888 105.907 62.9939 106.213 63.2348 106.486C63.4887 106.773 63.7914 107.014 64.143 107.209C64.501 107.404 64.9014 107.502 65.3441 107.502C65.9691 107.502 66.4509 107.362 66.7895 107.082C67.128 106.796 67.2973 106.389 67.2973 105.861C67.2973 105.588 67.2419 105.354 67.1313 105.158C67.0271 104.956 66.8708 104.781 66.6625 104.631C66.4477 104.481 66.184 104.348 65.8715 104.23C65.559 104.107 65.2107 103.986 64.8266 103.869C64.5206 103.778 64.1788 103.654 63.8012 103.498C63.4301 103.335 63.1111 103.146 62.8441 102.932C62.5577 102.704 62.3233 102.424 62.141 102.092C61.9587 101.76 61.8676 101.369 61.8676 100.92C61.8676 100.132 62.1605 99.4648 62.7465 98.918C63.3324 98.3711 64.1169 98.0977 65.1 98.0977C65.4776 98.0977 65.8617 98.1465 66.2523 98.2441C66.6495 98.3418 66.9717 98.459 67.2191 98.5957L67.4438 98.0879H68.1469L68.2934 101.184H67.6195C67.4828 100.493 67.1866 99.9336 66.7309 99.5039C66.2816 99.0677 65.7315 98.8496 65.0805 98.8496C64.5466 98.8496 64.1267 98.9831 63.8207 99.25C63.5147 99.5169 63.3617 99.8392 63.3617 100.217C63.3617 100.51 63.4105 100.754 63.5082 100.949C63.6124 101.145 63.7654 101.311 63.9672 101.447C64.1625 101.577 64.4066 101.701 64.6996 101.818C64.9991 101.929 65.3669 102.056 65.8031 102.199C66.2328 102.336 66.6365 102.495 67.0141 102.678C67.3982 102.86 67.7139 103.062 67.9613 103.283ZM85.2734 93.127L78.5254 112.141H77.2559L83.9844 93.127H85.2734ZM98.5914 108H93.8941V107.355C94.0439 107.342 94.2034 107.329 94.3727 107.316C94.5419 107.297 94.6819 107.271 94.7926 107.238C94.9749 107.18 95.1116 107.079 95.2027 106.936C95.2939 106.786 95.3395 106.594 95.3395 106.359V95.207C95.3395 94.9727 95.2874 94.7546 95.1832 94.5527C95.0855 94.3444 94.9553 94.1816 94.7926 94.0645C94.6754 93.9863 94.4605 93.9147 94.148 93.8496C93.8355 93.7845 93.5849 93.7454 93.3961 93.7324V93.1074L97.0191 92.8828L97.1559 93.0293V106.242C97.1559 106.47 97.1982 106.659 97.2828 106.809C97.3674 106.952 97.5042 107.062 97.693 107.141C97.8362 107.206 97.9762 107.255 98.1129 107.287C98.2561 107.32 98.4156 107.342 98.5914 107.355V108ZM109.557 105.734C109.153 106.503 108.613 107.115 107.936 107.57C107.259 108.026 106.481 108.254 105.602 108.254C104.827 108.254 104.147 108.117 103.561 107.844C102.982 107.57 102.503 107.199 102.125 106.73C101.748 106.262 101.465 105.715 101.276 105.09C101.093 104.465 101.002 103.804 101.002 103.107C101.002 102.482 101.1 101.87 101.295 101.271C101.497 100.666 101.79 100.122 102.174 99.6406C102.545 99.1784 103.004 98.8073 103.551 98.5273C104.105 98.2409 104.723 98.0977 105.407 98.0977C106.11 98.0977 106.712 98.2083 107.213 98.4297C107.715 98.651 108.121 98.9538 108.434 99.3379C108.733 99.7025 108.955 100.132 109.098 100.627C109.248 101.122 109.323 101.659 109.323 102.238V102.883H102.946C102.946 103.514 103.004 104.087 103.121 104.602C103.245 105.116 103.437 105.568 103.698 105.959C103.952 106.337 104.284 106.636 104.694 106.857C105.104 107.072 105.592 107.18 106.159 107.18C106.738 107.18 107.236 107.046 107.653 106.779C108.076 106.506 108.483 106.018 108.873 105.314L109.557 105.734ZM107.399 102.062C107.399 101.698 107.366 101.307 107.301 100.891C107.243 100.474 107.145 100.126 107.008 99.8457C106.858 99.5462 106.653 99.3021 106.393 99.1133C106.133 98.9245 105.797 98.8301 105.387 98.8301C104.704 98.8301 104.134 99.1165 103.678 99.6895C103.229 100.256 102.985 101.047 102.946 102.062H107.399ZM120.991 107.824C120.685 107.935 120.415 108.023 120.181 108.088C119.953 108.16 119.693 108.195 119.4 108.195C118.892 108.195 118.485 108.078 118.179 107.844C117.879 107.603 117.687 107.255 117.603 106.799H117.544C117.121 107.268 116.665 107.626 116.177 107.873C115.695 108.12 115.113 108.244 114.429 108.244C113.706 108.244 113.111 108.023 112.642 107.58C112.18 107.137 111.948 106.558 111.948 105.842C111.948 105.471 112.001 105.139 112.105 104.846C112.209 104.553 112.365 104.289 112.573 104.055C112.736 103.859 112.951 103.687 113.218 103.537C113.485 103.381 113.736 103.257 113.97 103.166C114.263 103.055 114.855 102.85 115.747 102.551C116.646 102.251 117.251 102.017 117.564 101.848V100.881C117.564 100.796 117.544 100.633 117.505 100.393C117.473 100.152 117.398 99.9238 117.28 99.709C117.15 99.4681 116.965 99.2598 116.724 99.084C116.489 98.9017 116.154 98.8105 115.718 98.8105C115.418 98.8105 115.139 98.8626 114.878 98.9668C114.624 99.0645 114.445 99.1686 114.341 99.2793C114.341 99.4095 114.37 99.6016 114.429 99.8555C114.494 100.109 114.527 100.344 114.527 100.559C114.527 100.786 114.422 100.995 114.214 101.184C114.012 101.372 113.729 101.467 113.364 101.467C113.039 101.467 112.798 101.353 112.642 101.125C112.492 100.891 112.417 100.63 112.417 100.344C112.417 100.044 112.521 99.7578 112.73 99.4844C112.945 99.2109 113.221 98.9668 113.56 98.752C113.853 98.5697 114.208 98.4167 114.624 98.293C115.041 98.1628 115.448 98.0977 115.845 98.0977C116.392 98.0977 116.867 98.1367 117.271 98.2148C117.681 98.2865 118.052 98.446 118.384 98.6934C118.716 98.9342 118.967 99.263 119.136 99.6797C119.312 100.09 119.4 100.62 119.4 101.271C119.4 102.202 119.39 103.029 119.37 103.752C119.351 104.468 119.341 105.253 119.341 106.105C119.341 106.359 119.383 106.561 119.468 106.711C119.559 106.861 119.696 106.988 119.878 107.092C119.976 107.15 120.129 107.183 120.337 107.189C120.552 107.196 120.77 107.199 120.991 107.199V107.824ZM117.583 102.668C117.03 102.831 116.545 102.99 116.128 103.146C115.711 103.303 115.324 103.498 114.966 103.732C114.64 103.954 114.383 104.217 114.195 104.523C114.006 104.823 113.911 105.181 113.911 105.598C113.911 106.138 114.051 106.535 114.331 106.789C114.618 107.043 114.979 107.17 115.415 107.17C115.877 107.17 116.284 107.059 116.636 106.838C116.988 106.61 117.284 106.343 117.525 106.037L117.583 102.668ZM129.506 103.283C129.773 103.518 129.978 103.788 130.121 104.094C130.264 104.4 130.336 104.774 130.336 105.217C130.336 106.109 130.001 106.838 129.33 107.404C128.666 107.971 127.803 108.254 126.742 108.254C126.182 108.254 125.665 108.153 125.189 107.951C124.721 107.749 124.385 107.564 124.184 107.395L123.988 108.029H123.256L123.158 104.68H123.832C123.884 104.934 123.995 105.23 124.164 105.568C124.333 105.907 124.538 106.213 124.779 106.486C125.033 106.773 125.336 107.014 125.688 107.209C126.046 107.404 126.446 107.502 126.889 107.502C127.514 107.502 127.995 107.362 128.334 107.082C128.673 106.796 128.842 106.389 128.842 105.861C128.842 105.588 128.786 105.354 128.676 105.158C128.572 104.956 128.415 104.781 128.207 104.631C127.992 104.481 127.729 104.348 127.416 104.23C127.104 104.107 126.755 103.986 126.371 103.869C126.065 103.778 125.723 103.654 125.346 103.498C124.975 103.335 124.656 103.146 124.389 102.932C124.102 102.704 123.868 102.424 123.686 102.092C123.503 101.76 123.412 101.369 123.412 100.92C123.412 100.132 123.705 99.4648 124.291 98.918C124.877 98.3711 125.661 98.0977 126.645 98.0977C127.022 98.0977 127.406 98.1465 127.797 98.2441C128.194 98.3418 128.516 98.459 128.764 98.5957L128.988 98.0879H129.691L129.838 101.184H129.164C129.027 100.493 128.731 99.9336 128.275 99.5039C127.826 99.0677 127.276 98.8496 126.625 98.8496C126.091 98.8496 125.671 98.9831 125.365 99.25C125.059 99.5169 124.906 99.8392 124.906 100.217C124.906 100.51 124.955 100.754 125.053 100.949C125.157 101.145 125.31 101.311 125.512 101.447C125.707 101.577 125.951 101.701 126.244 101.818C126.544 101.929 126.911 102.056 127.348 102.199C127.777 102.336 128.181 102.495 128.559 102.678C128.943 102.86 129.258 103.062 129.506 103.283ZM143.46 108H138.733V107.355C138.883 107.342 139.049 107.329 139.231 107.316C139.414 107.303 139.563 107.277 139.68 107.238C139.863 107.18 139.996 107.079 140.081 106.936C140.172 106.786 140.218 106.594 140.218 106.359V101.408C140.218 100.725 140.055 100.197 139.729 99.8262C139.41 99.4551 139.02 99.2695 138.557 99.2695C138.219 99.2695 137.903 99.3249 137.61 99.4355C137.324 99.5397 137.067 99.6699 136.839 99.8262C136.617 99.9889 136.448 100.152 136.331 100.314C136.214 100.477 136.123 100.614 136.057 100.725V106.262C136.057 106.483 136.1 106.665 136.184 106.809C136.276 106.952 136.412 107.062 136.595 107.141C136.738 107.206 136.884 107.255 137.034 107.287C137.19 107.32 137.36 107.342 137.542 107.355V108H132.815V107.355C132.965 107.342 133.121 107.329 133.284 107.316C133.447 107.297 133.583 107.271 133.694 107.238C133.876 107.18 134.013 107.079 134.104 106.936C134.195 106.786 134.241 106.594 134.241 106.359V95.1484C134.241 94.9271 134.189 94.7057 134.085 94.4844C133.987 94.263 133.857 94.097 133.694 93.9863C133.577 93.9017 133.369 93.8431 133.069 93.8105C132.776 93.7715 132.539 93.7454 132.356 93.7324V93.1074L135.921 92.8828L136.057 93.0293V99.748H136.096C136.311 99.5332 136.507 99.3444 136.682 99.1816C136.858 99.0124 137.089 98.8366 137.376 98.6543C137.623 98.498 137.913 98.3678 138.245 98.2637C138.583 98.1595 138.961 98.1074 139.378 98.1074C140.237 98.1074 140.898 98.3809 141.36 98.9277C141.822 99.4681 142.054 100.249 142.054 101.271V106.281C142.054 106.509 142.093 106.695 142.171 106.838C142.255 106.975 142.392 107.082 142.581 107.16C142.731 107.219 142.864 107.264 142.981 107.297C143.105 107.323 143.264 107.342 143.46 107.355V108ZM154.396 105.734C153.992 106.503 153.452 107.115 152.775 107.57C152.098 108.026 151.32 108.254 150.441 108.254C149.666 108.254 148.986 108.117 148.4 107.844C147.821 107.57 147.342 107.199 146.964 106.73C146.587 106.262 146.304 105.715 146.115 105.09C145.933 104.465 145.841 103.804 145.841 103.107C145.841 102.482 145.939 101.87 146.134 101.271C146.336 100.666 146.629 100.122 147.013 99.6406C147.384 99.1784 147.843 98.8073 148.39 98.5273C148.944 98.2409 149.562 98.0977 150.246 98.0977C150.949 98.0977 151.551 98.2083 152.052 98.4297C152.554 98.651 152.961 98.9538 153.273 99.3379C153.573 99.7025 153.794 100.132 153.937 100.627C154.087 101.122 154.162 101.659 154.162 102.238V102.883H147.785C147.785 103.514 147.843 104.087 147.961 104.602C148.084 105.116 148.276 105.568 148.537 105.959C148.791 106.337 149.123 106.636 149.533 106.857C149.943 107.072 150.431 107.18 150.998 107.18C151.577 107.18 152.075 107.046 152.492 106.779C152.915 106.506 153.322 106.018 153.712 105.314L154.396 105.734ZM152.238 102.062C152.238 101.698 152.205 101.307 152.14 100.891C152.082 100.474 151.984 100.126 151.847 99.8457C151.698 99.5462 151.492 99.3021 151.232 99.1133C150.972 98.9245 150.636 98.8301 150.226 98.8301C149.543 98.8301 148.973 99.1165 148.517 99.6895C148.068 100.256 147.824 101.047 147.785 102.062H152.238ZM163.067 103.283C163.334 103.518 163.539 103.788 163.682 104.094C163.825 104.4 163.897 104.774 163.897 105.217C163.897 106.109 163.562 106.838 162.891 107.404C162.227 107.971 161.364 108.254 160.303 108.254C159.743 108.254 159.226 108.153 158.75 107.951C158.282 107.749 157.946 107.564 157.745 107.395L157.549 108.029H156.817L156.719 104.68H157.393C157.445 104.934 157.556 105.23 157.725 105.568C157.894 105.907 158.099 106.213 158.34 106.486C158.594 106.773 158.897 107.014 159.248 107.209C159.607 107.404 160.007 107.502 160.45 107.502C161.075 107.502 161.556 107.362 161.895 107.082C162.233 106.796 162.403 106.389 162.403 105.861C162.403 105.588 162.347 105.354 162.237 105.158C162.133 104.956 161.976 104.781 161.768 104.631C161.553 104.481 161.289 104.348 160.977 104.23C160.664 104.107 160.316 103.986 159.932 103.869C159.626 103.778 159.284 103.654 158.907 103.498C158.536 103.335 158.217 103.146 157.95 102.932C157.663 102.704 157.429 102.424 157.246 102.092C157.064 101.76 156.973 101.369 156.973 100.92C156.973 100.132 157.266 99.4648 157.852 98.918C158.438 98.3711 159.222 98.0977 160.205 98.0977C160.583 98.0977 160.967 98.1465 161.358 98.2441C161.755 98.3418 162.077 98.459 162.325 98.5957L162.549 98.0879H163.252L163.399 101.184H162.725C162.588 100.493 162.292 99.9336 161.836 99.5039C161.387 99.0677 160.837 98.8496 160.186 98.8496C159.652 98.8496 159.232 98.9831 158.926 99.25C158.62 99.5169 158.467 99.8392 158.467 100.217C158.467 100.51 158.516 100.754 158.614 100.949C158.718 101.145 158.871 101.311 159.073 101.447C159.268 101.577 159.512 101.701 159.805 101.818C160.105 101.929 160.472 102.056 160.909 102.199C161.338 102.336 161.742 102.495 162.12 102.678C162.504 102.86 162.819 103.062 163.067 103.283Z" fill="#545454"/>
<path d="M110.297 10.2511C108.738 8.99675 106.539 7.88136 103.762 6.93613C98.1984 5.04273 90.825 4 82.9997 4C75.1744 4 67.8011 5.04285 62.2379 6.93613C59.4603 7.88136 57.2616 8.99675 55.7026 10.2511C53.9094 11.6942 53 13.2863 53 14.983V28.0989C53 29.7957 53.9094 31.3878 55.7027 32.8308C57.2617 34.0851 59.4603 35.2005 62.238 36.1458C67.5225 37.9443 74.4409 38.9745 81.8281 39.0733V43.7755H77.7869C77.3392 41.4099 75.2567 39.6156 72.7629 39.6156C69.9435 39.6156 67.6499 41.9093 67.6499 44.7284C67.6499 45.9542 68.0847 47.1148 68.8539 48.0249C68.075 48.9466 67.6484 50.1147 67.6499 51.3214C67.6499 54.1407 69.9435 56.4343 72.7629 56.4343C75.2567 56.4343 77.3392 54.6398 77.7869 52.2744H88.2131C88.6608 54.6399 90.7433 56.4343 93.2371 56.4343C96.0565 56.4343 98.3501 54.1406 98.3501 51.3214C98.3501 50.0956 97.9153 48.935 97.1461 48.0249C97.925 47.1032 98.3516 45.9351 98.3501 44.7284C98.3501 41.9091 96.0565 39.6156 93.2371 39.6156C90.7433 39.6156 88.6608 41.41 88.2131 43.7755H84.1719V39.0733C91.5591 38.9745 98.4775 37.9443 103.762 36.1458C106.54 35.2005 108.738 34.0851 110.297 32.8308C112.091 31.3878 113 29.7957 113 28.0989V14.983C113 13.2863 112.09 11.6942 110.297 10.2511ZM89.3022 46.1193C89.4615 46.1193 89.6191 46.0868 89.7655 46.0238C89.9118 45.9608 90.0438 45.8686 90.1533 45.7528C90.2628 45.6371 90.3476 45.5003 90.4024 45.3507C90.4573 45.2011 90.481 45.0419 90.4723 44.8828C90.4694 44.8314 90.4679 44.78 90.4677 44.7286C90.4677 43.2016 91.71 41.9594 93.2369 41.9594C94.7639 41.9594 96.0062 43.2017 96.0062 44.7286C96.0062 45.6643 95.5377 46.5303 94.753 47.0453C94.5905 47.152 94.4571 47.2974 94.3648 47.4684C94.2725 47.6394 94.2242 47.8307 94.2242 48.025C94.2242 48.2194 94.2725 48.4107 94.3648 48.5817C94.4571 48.7527 94.5905 48.8981 94.753 49.0047C95.5377 49.5198 96.0062 50.3858 96.0062 51.3215C96.0062 52.8485 94.7639 54.0906 93.2369 54.0906C91.71 54.0906 90.4677 52.8483 90.4677 51.3215C90.4677 51.2697 90.4696 51.2184 90.4723 51.1673C90.4811 51.0082 90.4574 50.8489 90.4026 50.6993C90.3478 50.5497 90.263 50.4128 90.1535 50.297C90.044 50.1813 89.912 50.0891 89.7656 50.0261C89.6192 49.9631 89.4615 49.9307 89.3022 49.9307H76.6975C76.5382 49.9308 76.3805 49.9633 76.2342 50.0263C76.0878 50.0893 75.9559 50.1815 75.8463 50.2972C75.7368 50.413 75.6521 50.5498 75.5972 50.6994C75.5424 50.849 75.5186 51.0082 75.5274 51.1673C75.5301 51.2184 75.5319 51.2697 75.5319 51.3215C75.5319 52.8485 74.2896 54.0906 72.7627 54.0906C71.2357 54.0906 69.9934 52.8483 69.9934 51.3215C69.9934 50.3858 70.462 49.5198 71.2466 49.0047C71.4091 48.8981 71.5425 48.7527 71.6348 48.5817C71.7271 48.4107 71.7755 48.2194 71.7755 48.025C71.7755 47.8307 71.7271 47.6394 71.6348 47.4684C71.5425 47.2974 71.4091 47.152 71.2466 47.0453C70.462 46.5303 69.9934 45.6643 69.9934 44.7286C69.9934 43.2016 71.2357 41.9594 72.7627 41.9594C74.2896 41.9594 75.5319 43.2017 75.5319 44.7286C75.5319 44.7803 75.5301 44.8317 75.5274 44.8828C75.5185 45.0419 75.5422 45.2011 75.597 45.3508C75.6519 45.5004 75.7366 45.6373 75.8462 45.753C75.9557 45.8688 76.0877 45.961 76.2341 46.0239C76.3804 46.0869 76.5381 46.1194 76.6975 46.1193H89.3022ZM82.9998 36.7383C81.4435 36.7383 80.1772 35.472 80.1772 33.9157C80.1772 32.3593 81.4435 31.0931 82.9998 31.0931C84.5562 31.0931 85.8224 32.3593 85.8224 33.9157C85.8224 35.472 84.5562 36.7383 82.9998 36.7383ZM110.656 28.0989C110.656 31.8067 101.304 35.8985 87.3965 36.6248C87.9005 35.8111 88.1671 34.8727 88.1661 33.9156C88.1661 33.5463 88.1264 33.1862 88.0525 32.8386C92.6006 32.5404 96.8255 31.8617 100.35 30.8562C100.972 30.6785 101.332 30.0301 101.155 29.4077C100.977 28.7853 100.329 28.4248 99.7064 28.6024C96.0899 29.6344 91.6789 30.3074 86.9211 30.5577C85.9729 29.4519 84.5673 28.7494 82.9998 28.7494C81.4241 28.7494 80.0118 29.4593 79.0634 30.5753C75.8385 30.4214 72.7739 30.0771 69.9503 29.5459C69.3149 29.426 68.7017 29.8448 68.582 30.4808C68.4624 31.1169 68.881 31.7294 69.5171 31.8492C72.1492 32.3444 74.9775 32.6832 77.9418 32.8625C77.8698 33.2089 77.8335 33.5619 77.8336 33.9157C77.8327 34.8729 78.0993 35.8112 78.6033 36.6249C64.6952 35.8986 55.3437 31.8068 55.3437 28.0989V19.4139L55.3597 19.4272C55.472 19.5254 55.5864 19.6213 55.7026 19.7149C55.8592 19.8402 56.0188 19.9617 56.1813 20.0794L56.1837 20.0811C56.2712 20.1448 56.3603 20.2081 56.4512 20.271L56.4917 20.2989C56.5771 20.3576 56.6637 20.4161 56.7521 20.4741C56.7699 20.4858 56.7882 20.4975 56.8062 20.5092C56.8954 20.5672 56.9857 20.6251 57.0778 20.6824L57.1175 20.7068C58.5024 21.5632 60.2159 22.3418 62.2378 23.0299C67.801 24.9233 75.1743 25.9661 82.9997 25.9661C90.8251 25.9661 98.1984 24.9233 103.762 23.0299C105.784 22.3418 107.497 21.5631 108.882 20.7066L108.922 20.6825C109.014 20.6251 109.104 20.5672 109.194 20.5091L109.247 20.4742C109.336 20.4162 109.423 20.3577 109.508 20.299L109.548 20.2711C109.639 20.2082 109.728 20.1449 109.816 20.0813L109.818 20.0795C109.981 19.9619 110.14 19.8403 110.297 19.715C110.413 19.6214 110.528 19.5255 110.64 19.4274L110.656 19.414V28.0989ZM60.5293 19.8543C61.5501 19.3876 62.9464 18.8517 64.8024 18.3313C69.8453 16.9173 76.3081 16.1387 82.9998 16.1387C89.6916 16.1387 96.1543 16.9174 101.197 18.3313C103.053 18.8516 104.45 19.3875 105.47 19.8543C100.621 22.0156 92.6821 23.6224 82.9998 23.6224C73.3176 23.6224 65.379 22.0154 60.5293 19.8543ZM110.649 15.1548C110.643 15.2232 110.635 15.2913 110.624 15.359L110.623 15.3696C110.61 15.4416 110.594 15.5129 110.575 15.5835C110.562 15.6345 110.547 15.6851 110.53 15.7353L110.52 15.7647C110.495 15.839 110.466 15.9122 110.434 15.9843C110.422 16.0128 110.408 16.0411 110.395 16.0696C110.368 16.1263 110.339 16.1828 110.309 16.2387L110.301 16.2537C109.813 17.1338 108.892 17.9036 107.978 18.5047C106.765 17.8055 104.818 16.9124 101.83 16.0746C96.587 14.6046 89.8997 13.7952 82.9999 13.7952C76.1002 13.7952 69.413 14.6047 64.1697 16.0747C61.182 16.9124 59.2354 17.8055 58.0215 18.5049C57.1075 17.9038 56.187 17.1339 55.6993 16.2538L55.6911 16.2388C55.6604 16.1828 55.632 16.1263 55.605 16.0695C55.5916 16.0411 55.5781 16.0129 55.5658 15.9845C55.5553 15.9606 55.5453 15.9366 55.5355 15.9126C55.5154 15.8633 55.4963 15.8141 55.4794 15.7649C55.476 15.7552 55.473 15.7452 55.4697 15.7355C55.4486 15.6715 55.4299 15.6068 55.4138 15.5414C55.3996 15.4847 55.3874 15.4275 55.3773 15.3699L55.3757 15.3592C55.3646 15.2915 55.3564 15.2234 55.3512 15.1551C55.3465 15.0978 55.344 15.0404 55.3437 14.983C55.3437 10.8967 66.7017 6.34375 82.9998 6.34375C99.298 6.34375 110.656 10.8967 110.656 14.983C110.656 15.0402 110.653 15.0975 110.649 15.1548Z" fill="#F1CDB3"/>
<path d="M101.177 11.6432C101.131 11.4162 101.02 11.2076 100.857 11.0432C100.802 10.989 100.743 10.9404 100.678 10.8979C100.551 10.8129 100.407 10.7536 100.257 10.7233C100.105 10.6928 99.9497 10.6928 99.7985 10.7233C99.7235 10.7385 99.6509 10.7608 99.5794 10.7901C99.5091 10.8194 99.4411 10.8557 99.3778 10.8979C99.3134 10.9401 99.2536 10.9893 99.1985 11.0432C99.1446 11.0971 99.0966 11.1581 99.0533 11.2213C98.9683 11.3493 98.909 11.4926 98.8787 11.6432C98.8635 11.7194 98.8564 11.7956 98.8564 11.8717C98.8564 11.9491 98.8636 12.0252 98.8787 12.1014C98.909 12.252 98.9683 12.3953 99.0533 12.5233C99.0966 12.5866 99.1446 12.6463 99.1985 12.7014C99.2537 12.7553 99.3135 12.8034 99.3778 12.8467C99.4411 12.8889 99.5091 12.9252 99.5794 12.9545C99.6509 12.9838 99.7236 13.0061 99.7985 13.0213C99.8747 13.0366 99.9521 13.0448 100.028 13.0448C100.104 13.0448 100.182 13.0366 100.257 13.0213C100.332 13.0061 100.406 12.9838 100.476 12.9545C100.546 12.9252 100.614 12.8889 100.678 12.8467C100.742 12.8034 100.803 12.7553 100.857 12.7014C100.911 12.6463 100.96 12.5866 101.002 12.5233C101.087 12.3953 101.146 12.252 101.177 12.1014C101.192 12.0252 101.2 11.9491 101.2 11.8717C101.2 11.7954 101.192 11.7193 101.177 11.6432Z" fill="#F1CDB3"/>
<path d="M96.4829 9.86056C92.4455 9.10095 87.85 8.69935 83.1935 8.69935C76.7488 8.69935 70.5185 9.46435 65.6504 10.8536C65.0282 11.0313 64.6675 11.6797 64.8451 12.302C64.9918 12.8171 65.4611 13.1527 65.9713 13.1527C66.0777 13.1527 66.186 13.1382 66.2934 13.1075C70.9582 11.7763 76.96 11.0432 83.1934 11.0432C87.707 11.0432 92.1525 11.4308 96.0495 12.164C96.6858 12.2834 97.2981 11.8651 97.4179 11.229C97.5376 10.5929 97.1189 9.98044 96.4829 9.86056Z" fill="#F1CDB3"/>
<path d="M67.121 29.6092C67.1058 29.5342 67.0835 29.4604 67.0542 29.3889C67.0249 29.3186 66.9886 29.2506 66.9464 29.1873C66.9038 29.1231 66.8547 29.0634 66.7999 29.0092C66.746 28.9553 66.6862 28.9061 66.6218 28.8627C66.5585 28.8205 66.4905 28.7854 66.4201 28.7561C66.3495 28.7265 66.2761 28.7041 66.201 28.6893C66.0498 28.6588 65.8941 28.6588 65.7429 28.6893C65.6678 28.7033 65.5939 28.7268 65.5237 28.7561C65.4523 28.7854 65.3843 28.8205 65.321 28.8627C65.2566 28.9061 65.1968 28.9553 65.1429 29.0092C65.089 29.0631 65.0398 29.1229 64.9976 29.1873C64.9554 29.2506 64.9191 29.3186 64.8898 29.3889C64.8605 29.4604 64.8382 29.5342 64.823 29.6092C64.8077 29.6842 64.7995 29.7615 64.7995 29.8377C64.8003 29.9914 64.8309 30.1434 64.8898 30.2854C64.9191 30.3568 64.9554 30.4248 64.9976 30.4881C65.0398 30.5525 65.089 30.6122 65.1429 30.6662C65.1968 30.7201 65.2566 30.7693 65.321 30.8115C65.3843 30.8549 65.4523 30.8901 65.5237 30.9193C65.5941 30.9486 65.6678 30.9721 65.7429 30.9861C65.8179 31.0014 65.8952 31.0096 65.9713 31.0096C66.0475 31.0096 66.1249 31.0014 66.201 30.9861C66.2761 30.9713 66.3495 30.9489 66.4201 30.9193C66.4909 30.8905 66.5585 30.8543 66.6218 30.8115C66.686 30.7693 66.7457 30.7206 66.7999 30.6662C66.9092 30.5575 66.9957 30.428 67.0542 30.2854C67.1134 30.1436 67.1436 29.9914 67.1432 29.8377C67.1432 29.7614 67.1361 29.6842 67.121 29.6092Z" fill="#F1CDB3"/>
</svg>
