<svg width="101" height="113" viewBox="0 0 101 113" fill="none" xmlns="http://www.w3.org/2000/svg">
<path d="M18.0145 108H11.8914V107.307C12.1128 107.3 12.396 107.277 12.741 107.238C13.0926 107.199 13.3335 107.144 13.4637 107.072C13.6655 106.949 13.812 106.809 13.9031 106.652C14.0008 106.49 14.0496 106.288 14.0496 106.047V95.9688H13.9031L9.17656 107.775H8.68828L4.18633 95.7246H4.05938V103.996C4.05938 104.797 4.1082 105.406 4.20586 105.822C4.31003 106.239 4.46628 106.538 4.67461 106.721C4.81784 106.857 5.11406 106.988 5.56328 107.111C6.0125 107.235 6.30547 107.3 6.44219 107.307V108H0.846485V107.307C1.13945 107.281 1.44544 107.232 1.76445 107.16C2.08997 107.089 2.34063 106.981 2.51641 106.838C2.74427 106.656 2.90052 106.376 2.98516 105.998C3.06979 105.62 3.11211 104.989 3.11211 104.104V97.0137C3.11211 96.6035 3.06328 96.2682 2.96563 96.0078C2.86797 95.7474 2.728 95.5358 2.5457 95.373C2.34388 95.1973 2.09649 95.0671 1.80352 94.9824C1.51055 94.8978 1.22083 94.849 0.934376 94.8359V94.1426H5.66094L9.62578 104.533L13.0145 95.8418C13.1382 95.5228 13.2423 95.1908 13.327 94.8457C13.4181 94.4941 13.4669 94.2598 13.4734 94.1426H17.9949V94.8359C17.8126 94.8424 17.5783 94.8717 17.2918 94.9238C17.0118 94.9759 16.8068 95.0247 16.6766 95.0703C16.4552 95.1484 16.3055 95.2786 16.2273 95.4609C16.1492 95.6432 16.1102 95.8418 16.1102 96.0566V106.047C16.1102 106.275 16.1492 106.467 16.2273 106.623C16.3055 106.779 16.4552 106.916 16.6766 107.033C16.7938 107.098 17.0021 107.16 17.3016 107.219C17.601 107.271 17.8387 107.3 18.0145 107.307V108ZM29.3902 105.734C28.9866 106.503 28.4462 107.115 27.7691 107.57C27.0921 108.026 26.3141 108.254 25.4352 108.254C24.6604 108.254 23.9801 108.117 23.3941 107.844C22.8147 107.57 22.3362 107.199 21.9586 106.73C21.581 106.262 21.2978 105.715 21.109 105.09C20.9267 104.465 20.8355 103.804 20.8355 103.107C20.8355 102.482 20.9332 101.87 21.1285 101.271C21.3303 100.666 21.6233 100.122 22.0074 99.6406C22.3785 99.1784 22.8375 98.8073 23.3844 98.5273C23.9378 98.2409 24.5563 98.0977 25.2398 98.0977C25.943 98.0977 26.5452 98.2083 27.0465 98.4297C27.5478 98.651 27.9547 98.9538 28.2672 99.3379C28.5667 99.7025 28.788 100.132 28.9313 100.627C29.081 101.122 29.1559 101.659 29.1559 102.238V102.883H22.7789C22.7789 103.514 22.8375 104.087 22.9547 104.602C23.0784 105.116 23.2704 105.568 23.5309 105.959C23.7848 106.337 24.1168 106.636 24.527 106.857C24.9371 107.072 25.4254 107.18 25.9918 107.18C26.5712 107.18 27.0693 107.046 27.4859 106.779C27.9091 106.506 28.316 106.018 28.7066 105.314L29.3902 105.734ZM27.232 102.062C27.232 101.698 27.1995 101.307 27.1344 100.891C27.0758 100.474 26.9781 100.126 26.8414 99.8457C26.6917 99.5462 26.4866 99.3021 26.2262 99.1133C25.9658 98.9245 25.6305 98.8301 25.2203 98.8301C24.5367 98.8301 23.9671 99.1165 23.5113 99.6895C23.0621 100.256 22.818 101.047 22.7789 102.062H27.232ZM42.2504 107.824L38.891 108.039L38.7445 107.902V107.004L38.6664 106.984C38.3279 107.362 37.9079 107.671 37.4066 107.912C36.9118 108.153 36.4008 108.273 35.8734 108.273C35.3266 108.273 34.796 108.153 34.2816 107.912C33.7738 107.665 33.3311 107.32 32.9535 106.877C32.5694 106.428 32.2634 105.887 32.0355 105.256C31.8142 104.624 31.7035 103.928 31.7035 103.166C31.7035 102.469 31.824 101.809 32.0648 101.184C32.3057 100.559 32.6378 100.012 33.0609 99.543C33.4581 99.1068 33.9431 98.7585 34.516 98.498C35.0954 98.2376 35.6846 98.1074 36.2836 98.1074C36.7328 98.1074 37.1723 98.166 37.602 98.2832C38.0382 98.3939 38.4125 98.5371 38.725 98.7129V95.3633C38.725 95.0898 38.6794 94.8424 38.5883 94.6211C38.4971 94.3932 38.3702 94.2207 38.2074 94.1035C38.0251 93.9798 37.7777 93.8919 37.4652 93.8398C37.1592 93.7812 36.8272 93.7389 36.4691 93.7129V93.1074L40.4047 92.8828L40.5512 93.0293V106.018C40.5512 106.245 40.5935 106.441 40.6781 106.604C40.7693 106.76 40.8995 106.893 41.0688 107.004C41.1924 107.082 41.3715 107.131 41.6059 107.15C41.8402 107.17 42.0551 107.183 42.2504 107.189V107.824ZM38.725 106.135V100.5C38.6729 100.331 38.5883 100.148 38.4711 99.9531C38.3539 99.7578 38.2074 99.5788 38.0316 99.416C37.8428 99.2533 37.6215 99.1198 37.3676 99.0156C37.1137 98.9049 36.8174 98.8496 36.4789 98.8496C36.0883 98.8496 35.727 98.9505 35.3949 99.1523C35.0694 99.3542 34.7797 99.6439 34.5258 100.021C34.2849 100.386 34.0928 100.852 33.9496 101.418C33.8129 101.978 33.7445 102.6 33.7445 103.283C33.7445 103.83 33.7966 104.328 33.9008 104.777C34.0049 105.22 34.1807 105.633 34.4281 106.018C34.656 106.382 34.9457 106.675 35.2973 106.896C35.6553 107.118 36.0785 107.229 36.5668 107.229C37.0876 107.229 37.5173 107.115 37.8559 106.887C38.2009 106.659 38.4906 106.408 38.725 106.135ZM49.0656 108H44.4074V107.355C44.5572 107.342 44.7102 107.329 44.8664 107.316C45.0292 107.303 45.1691 107.277 45.2863 107.238C45.4686 107.18 45.6021 107.079 45.6867 106.936C45.7779 106.786 45.8234 106.594 45.8234 106.359V100.412C45.8234 100.204 45.7746 100.015 45.677 99.8457C45.5858 99.6699 45.4556 99.5234 45.2863 99.4062C45.1626 99.3281 44.9836 99.263 44.7492 99.2109C44.5148 99.1523 44.3 99.1165 44.1047 99.1035V98.4688L47.5031 98.2539L47.6398 98.3906V106.242C47.6398 106.47 47.6822 106.659 47.7668 106.809C47.8579 106.958 47.9979 107.069 48.1867 107.141C48.3299 107.199 48.4699 107.248 48.6066 107.287C48.7434 107.32 48.8964 107.342 49.0656 107.355V108ZM47.8352 94.4551C47.8352 94.8262 47.7115 95.1517 47.4641 95.4316C47.2232 95.7051 46.9237 95.8418 46.5656 95.8418C46.2336 95.8418 45.9439 95.7116 45.6965 95.4512C45.4556 95.1842 45.3352 94.8815 45.3352 94.543C45.3352 94.1849 45.4556 93.8724 45.6965 93.6055C45.9439 93.3385 46.2336 93.2051 46.5656 93.2051C46.9367 93.2051 47.2395 93.332 47.4738 93.5859C47.7147 93.8333 47.8352 94.123 47.8352 94.4551ZM55.9004 108.254C54.5072 108.254 53.4167 107.792 52.6289 106.867C51.8411 105.943 51.4473 104.702 51.4473 103.146C51.4473 102.469 51.5514 101.838 51.7598 101.252C51.9746 100.66 52.2839 100.122 52.6875 99.6406C53.0716 99.1784 53.5534 98.8073 54.1328 98.5273C54.7122 98.2409 55.3438 98.0977 56.0273 98.0977C56.9714 98.0977 57.7396 98.3255 58.332 98.7812C58.9245 99.2305 59.2207 99.8457 59.2207 100.627C59.2207 100.952 59.1426 101.242 58.9863 101.496C58.8301 101.743 58.5729 101.867 58.2148 101.867C57.8307 101.867 57.5312 101.77 57.3164 101.574C57.1081 101.379 57.0039 101.161 57.0039 100.92C57.0039 100.627 57.043 100.327 57.1211 100.021C57.1992 99.709 57.2448 99.4811 57.2578 99.3379C57.1406 99.1361 56.9648 99.0026 56.7305 98.9375C56.5026 98.8659 56.2552 98.8301 55.9883 98.8301C55.6758 98.8301 55.3763 98.8984 55.0898 99.0352C54.8099 99.1654 54.5365 99.4095 54.2695 99.7676C54.0286 100.093 53.8333 100.533 53.6836 101.086C53.5339 101.639 53.459 102.3 53.459 103.068C53.459 104.279 53.7259 105.269 54.2598 106.037C54.8001 106.799 55.5065 107.18 56.3789 107.18C57.0104 107.18 57.5378 107.027 57.9609 106.721C58.3906 106.415 58.7878 105.956 59.1523 105.344L59.7773 105.754C59.3477 106.522 58.7812 107.131 58.0781 107.58C57.375 108.029 56.6491 108.254 55.9004 108.254ZM66.407 108H61.7488V107.355C61.8986 107.342 62.0516 107.329 62.2078 107.316C62.3706 107.303 62.5105 107.277 62.6277 107.238C62.81 107.18 62.9435 107.079 63.0281 106.936C63.1193 106.786 63.1648 106.594 63.1648 106.359V100.412C63.1648 100.204 63.116 100.015 63.0184 99.8457C62.9272 99.6699 62.797 99.5234 62.6277 99.4062C62.504 99.3281 62.325 99.263 62.0906 99.2109C61.8563 99.1523 61.6414 99.1165 61.4461 99.1035V98.4688L64.8445 98.2539L64.9813 98.3906V106.242C64.9813 106.47 65.0236 106.659 65.1082 106.809C65.1993 106.958 65.3393 107.069 65.5281 107.141C65.6714 107.199 65.8113 107.248 65.948 107.287C66.0848 107.32 66.2378 107.342 66.407 107.355V108ZM65.1766 94.4551C65.1766 94.8262 65.0529 95.1517 64.8055 95.4316C64.5646 95.7051 64.2651 95.8418 63.907 95.8418C63.575 95.8418 63.2853 95.7116 63.0379 95.4512C62.797 95.1842 62.6766 94.8815 62.6766 94.543C62.6766 94.1849 62.797 93.8724 63.0379 93.6055C63.2853 93.3385 63.575 93.2051 63.907 93.2051C64.2781 93.2051 64.5809 93.332 64.8152 93.5859C65.0561 93.8333 65.1766 94.123 65.1766 94.4551ZM79.4234 108H74.7066V107.355C74.8564 107.342 75.0191 107.329 75.1949 107.316C75.3772 107.303 75.5269 107.277 75.6441 107.238C75.8264 107.18 75.9599 107.079 76.0445 106.936C76.1357 106.786 76.1812 106.594 76.1812 106.359V101.408C76.1812 100.725 76.0185 100.197 75.693 99.8262C75.374 99.4551 74.9833 99.2695 74.5211 99.2695C74.176 99.2695 73.8603 99.3249 73.5738 99.4355C73.2874 99.5397 73.0335 99.6699 72.8121 99.8262C72.5973 99.9759 72.4247 100.139 72.2945 100.314C72.1708 100.484 72.0797 100.62 72.0211 100.725V106.262C72.0211 106.483 72.0667 106.665 72.1578 106.809C72.249 106.952 72.3857 107.062 72.568 107.141C72.7047 107.206 72.8512 107.255 73.0074 107.287C73.1702 107.32 73.3362 107.342 73.5055 107.355V108H68.7887V107.355C68.9384 107.342 69.0914 107.329 69.2477 107.316C69.4104 107.303 69.5504 107.277 69.6676 107.238C69.8499 107.18 69.9833 107.079 70.068 106.936C70.1591 106.786 70.2047 106.594 70.2047 106.359V100.412C70.2047 100.191 70.1559 99.9889 70.0582 99.8066C69.9671 99.6178 69.8368 99.4648 69.6676 99.3477C69.5439 99.2695 69.3974 99.2142 69.2281 99.1816C69.0588 99.1426 68.8766 99.1165 68.6812 99.1035V98.4688L71.8844 98.2539L72.0211 98.3906V99.748H72.0699C72.2262 99.5918 72.4215 99.4062 72.6559 99.1914C72.8902 98.9701 73.1116 98.791 73.3199 98.6543C73.5608 98.498 73.8473 98.3678 74.1793 98.2637C74.5113 98.1595 74.8857 98.1074 75.3023 98.1074C76.2268 98.1074 76.9104 98.3971 77.3531 98.9766C77.8023 99.5495 78.0269 100.314 78.0269 101.271V106.281C78.0269 106.509 78.066 106.695 78.1441 106.838C78.2223 106.975 78.3557 107.082 78.5445 107.16C78.7008 107.225 78.8342 107.271 78.9449 107.297C79.0621 107.323 79.2216 107.342 79.4234 107.355V108ZM90.3598 105.734C89.9561 106.503 89.4158 107.115 88.7387 107.57C88.0616 108.026 87.2836 108.254 86.4047 108.254C85.63 108.254 84.9496 108.117 84.3637 107.844C83.7843 107.57 83.3057 107.199 82.9281 106.73C82.5505 106.262 82.2673 105.715 82.0785 105.09C81.8962 104.465 81.8051 103.804 81.8051 103.107C81.8051 102.482 81.9027 101.87 82.0981 101.271C82.2999 100.666 82.5928 100.122 82.977 99.6406C83.3481 99.1784 83.807 98.8073 84.3539 98.5273C84.9073 98.2409 85.5258 98.0977 86.2094 98.0977C86.9125 98.0977 87.5147 98.2083 88.016 98.4297C88.5173 98.651 88.9242 98.9538 89.2367 99.3379C89.5362 99.7025 89.7576 100.132 89.9008 100.627C90.0505 101.122 90.1254 101.659 90.1254 102.238V102.883H83.7484C83.7484 103.514 83.807 104.087 83.9242 104.602C84.0479 105.116 84.24 105.568 84.5004 105.959C84.7543 106.337 85.0863 106.636 85.4965 106.857C85.9066 107.072 86.3949 107.18 86.9613 107.18C87.5408 107.18 88.0388 107.046 88.4555 106.779C88.8787 106.506 89.2856 106.018 89.6762 105.314L90.3598 105.734ZM88.2016 102.062C88.2016 101.698 88.169 101.307 88.1039 100.891C88.0453 100.474 87.9477 100.126 87.8109 99.8457C87.6612 99.5462 87.4561 99.3021 87.1957 99.1133C86.9353 98.9245 86.6 98.8301 86.1898 98.8301C85.5063 98.8301 84.9366 99.1165 84.4809 99.6895C84.0316 100.256 83.7875 101.047 83.7484 102.062H88.2016ZM99.0305 103.283C99.2974 103.518 99.5025 103.788 99.6457 104.094C99.7889 104.4 99.8605 104.774 99.8605 105.217C99.8605 106.109 99.5253 106.838 98.8547 107.404C98.1906 107.971 97.328 108.254 96.2668 108.254C95.7069 108.254 95.1893 108.153 94.7141 107.951C94.2453 107.749 93.91 107.564 93.7082 107.395L93.5129 108.029H92.7805L92.6828 104.68H93.3566C93.4087 104.934 93.5194 105.23 93.6887 105.568C93.8579 105.907 94.063 106.213 94.3039 106.486C94.5578 106.773 94.8605 107.014 95.2121 107.209C95.5702 107.404 95.9706 107.502 96.4133 107.502C97.0383 107.502 97.5201 107.362 97.8586 107.082C98.1971 106.796 98.3664 106.389 98.3664 105.861C98.3664 105.588 98.3111 105.354 98.2004 105.158C98.0962 104.956 97.94 104.781 97.7316 104.631C97.5168 104.481 97.2531 104.348 96.9406 104.23C96.6281 104.107 96.2798 103.986 95.8957 103.869C95.5897 103.778 95.2479 103.654 94.8703 103.498C94.4992 103.335 94.1802 103.146 93.9133 102.932C93.6268 102.704 93.3925 102.424 93.2102 102.092C93.0279 101.76 92.9367 101.369 92.9367 100.92C92.9367 100.132 93.2297 99.4648 93.8156 98.918C94.4016 98.3711 95.1861 98.0977 96.1691 98.0977C96.5467 98.0977 96.9309 98.1465 97.3215 98.2441C97.7186 98.3418 98.0409 98.459 98.2883 98.5957L98.5129 98.0879H99.216L99.3625 101.184H98.6887C98.552 100.493 98.2557 99.9336 97.8 99.5039C97.3508 99.0677 96.8007 98.8496 96.1496 98.8496C95.6158 98.8496 95.1958 98.9831 94.8898 99.25C94.5839 99.5169 94.4309 99.8392 94.4309 100.217C94.4309 100.51 94.4797 100.754 94.5773 100.949C94.6815 101.145 94.8345 101.311 95.0363 101.447C95.2316 101.577 95.4758 101.701 95.7688 101.818C96.0682 101.929 96.4361 102.056 96.8723 102.199C97.302 102.336 97.7056 102.495 98.0832 102.678C98.4673 102.86 98.7831 103.062 99.0305 103.283Z" fill="#545454"/>
<path d="M80.6564 15.8985L65.1014 0.343125C64.6438 -0.114375 63.902 -0.114375 63.444 0.343125L59.3014 4.48547C59.0817 4.70525 58.9582 5.00331 58.9582 5.3141C58.9582 5.62489 59.0817 5.92295 59.3014 6.14273L64.2225 11.0637L59.5636 15.7226L52.3925 8.55152C51.9348 8.09391 51.1929 8.09402 50.7351 8.55152L45.9767 13.3099C45.757 13.5297 45.6336 13.8278 45.6336 14.1386C45.6336 14.4493 45.757 14.7474 45.9767 14.9672L47.488 16.4784L28.0651 35.902C26.2803 37.6868 26.2803 40.5911 28.0651 42.3762L29.5563 43.8674L26.8221 46.6016C26.7132 46.7104 26.6269 46.8396 26.568 46.9818C26.5091 47.124 26.4788 47.2763 26.4788 47.4302C26.4788 47.5841 26.5091 47.7365 26.568 47.8787C26.6269 48.0209 26.7132 48.1501 26.8221 48.2589L28.9528 50.3897L21.3432 57.9991C20.8856 58.4568 20.8856 59.1988 21.3432 59.6565C21.5721 59.8854 21.872 59.9998 22.1718 59.9998C22.4717 59.9998 22.7717 59.8854 23.0005 59.6565L30.6102 52.0468L32.741 54.1777C32.9608 54.3974 33.2588 54.5208 33.5696 54.5208C33.8804 54.5208 34.1785 54.3974 34.3983 54.1777L37.1325 51.4434L38.6237 52.9347C39.4883 53.7993 40.638 54.2754 41.8608 54.2754C43.0835 54.2754 44.2332 53.7993 45.0978 52.9347L64.5209 33.5116L66.0322 35.0229C66.1409 35.1319 66.2701 35.2183 66.4123 35.2772C66.5545 35.3361 66.7069 35.3663 66.8608 35.3661C67.1608 35.3661 67.4606 35.2518 67.6895 35.0229L72.4477 30.2645C72.6675 30.0447 72.7909 29.7466 72.7909 29.4359C72.7909 29.1251 72.6675 28.827 72.4477 28.6072L65.2767 21.4362L69.9356 16.7773L74.8565 21.6982C74.9652 21.8072 75.0944 21.8936 75.2366 21.9525C75.3788 22.0114 75.5312 22.0416 75.6852 22.0414C75.9852 22.0414 76.2849 21.9271 76.5138 21.6982L80.6563 17.5557C81.1141 17.0982 81.1141 16.3562 80.6564 15.8985ZM45.7358 21.546L51.1576 26.9678C51.2663 27.0768 51.3954 27.1632 51.5376 27.2221C51.6799 27.281 51.8323 27.3112 51.9862 27.311C52.2862 27.311 52.586 27.1966 52.8149 26.9678C53.2725 26.5102 53.2725 25.7681 52.8149 25.3105L47.3931 19.8887L49.1454 18.1364L59.234 28.2251L53.8747 33.5844L43.7859 23.4956L45.7358 21.546ZM33.5696 51.6916L29.308 47.4301L31.2137 45.5246L35.4751 49.7861L33.5696 51.6916ZM43.4403 51.2773C42.5694 52.1482 41.152 52.1483 40.2811 51.2773L29.7224 40.7187C28.8513 39.8476 28.8513 38.4302 29.7224 37.5593L31.3916 35.8901L34.2772 38.7757C34.5061 39.0046 34.8059 39.1189 35.1058 39.1189C35.4057 39.1189 35.7057 39.0046 35.9345 38.7757C36.3921 38.3181 36.3921 37.5761 35.9345 37.1183L33.0488 34.2327L34.9774 32.304L40.3991 37.7257C40.6279 37.9546 40.9278 38.0689 41.2277 38.0689C41.5276 38.0689 41.8276 37.9545 42.0563 37.7257C42.514 37.2681 42.514 36.5261 42.0563 36.0684L36.6345 30.6466L38.5632 28.718L41.4488 31.6036C41.6777 31.8325 41.9776 31.9468 42.2775 31.9468C42.5774 31.9468 42.8774 31.8325 43.1061 31.6036C43.5637 31.146 43.5637 30.4039 43.1061 29.9462L40.2205 27.0606L42.1281 25.153L52.2168 35.2417L44.596 42.8626C44.1384 43.3202 44.1384 44.0623 44.596 44.52C44.8249 44.7489 45.1248 44.8632 45.4247 44.8632C45.7245 44.8632 46.0245 44.7487 46.2533 44.52L53.8741 36.8991L55.8459 38.8709L43.4403 51.2773ZM57.5041 37.2137L55.5323 35.2417L60.8917 29.8822L62.8634 31.854L57.5041 37.2137ZM69.9618 29.4359L66.8608 32.5369L48.4627 14.1389L51.5638 11.0379L69.9618 29.4359ZM63.6195 19.7789L61.2208 17.3802L65.8797 12.7212L68.2784 15.1199L63.6195 19.7789ZM75.6855 19.2123L61.7875 5.31422L64.2727 2.82902L78.1707 16.727L75.6855 19.2123Z" fill="#F1CDB3"/>
<path d="M43.3156 46.7207C43.3016 46.6457 43.2781 46.5719 43.2488 46.5016C43.2197 46.4306 43.1836 46.3627 43.141 46.2988C43.0988 46.2344 43.0496 46.1746 42.9957 46.1207C42.9418 46.0668 42.882 46.0176 42.8176 45.9754C42.7537 45.9328 42.6858 45.8967 42.6148 45.8676C42.5445 45.8383 42.4707 45.816 42.3957 45.8008C42.2449 45.7703 42.0895 45.7703 41.9387 45.8008C41.8637 45.816 41.7898 45.8383 41.7195 45.8676C41.648 45.8969 41.5801 45.9332 41.5168 45.9754C41.4523 46.0176 41.3926 46.0668 41.3387 46.1207C41.2848 46.1746 41.2355 46.2344 41.1934 46.2988C41.1512 46.362 41.1148 46.4301 41.0855 46.5016C41.0562 46.5719 41.0328 46.6457 41.0187 46.7207C41.0035 46.7957 40.9953 46.8731 40.9953 46.9492C40.9953 47.0254 41.0035 47.1028 41.0187 47.1789C41.0328 47.2528 41.0562 47.3266 41.0855 47.3981C41.1148 47.4684 41.1512 47.5364 41.1934 47.5996C41.2355 47.6641 41.2848 47.7239 41.3387 47.7778C41.4474 47.8871 41.5769 47.9735 41.7195 48.0321C41.8613 48.0913 42.0135 48.1216 42.1672 48.1211C42.3208 48.1216 42.473 48.0913 42.6148 48.0321C42.7575 47.9735 42.887 47.8871 42.9957 47.7778C43.0496 47.7239 43.0988 47.6641 43.141 47.5996C43.1832 47.5364 43.2195 47.4684 43.2488 47.3981C43.2781 47.3266 43.3016 47.2528 43.3156 47.1789C43.3309 47.1028 43.3391 47.0254 43.3391 46.9492C43.3391 46.8731 43.3309 46.7957 43.3156 46.7207Z" fill="#F1CDB3"/>
</svg>
