<svg width="82" height="113" viewBox="0 0 82 113" fill="none" xmlns="http://www.w3.org/2000/svg">
<path d="M11.7805 97.5605C11.7805 98.2832 11.6372 98.9245 11.3508 99.4844C11.0708 100.038 10.6802 100.497 10.1789 100.861C9.68411 101.226 9.14049 101.493 8.54805 101.662C7.9556 101.831 7.32734 101.916 6.66328 101.916H5.11055V106.115C5.11055 106.343 5.14635 106.545 5.21797 106.721C5.29609 106.89 5.45234 107.02 5.68672 107.111C5.80391 107.157 6.00898 107.199 6.30195 107.238C6.60143 107.277 6.87487 107.3 7.12226 107.307V108H1.175V107.307C1.33125 107.294 1.55586 107.271 1.84883 107.238C2.14831 107.206 2.35664 107.163 2.47383 107.111C2.66914 107.027 2.80911 106.903 2.89375 106.74C2.9849 106.577 3.03047 106.369 3.03047 106.115V96.1152C3.03047 95.8874 2.99792 95.6823 2.93281 95.5C2.86771 95.3177 2.71471 95.181 2.47383 95.0898C2.22643 95.0052 1.97904 94.9466 1.73164 94.9141C1.49075 94.875 1.28242 94.849 1.10664 94.8359V94.1426H7.43476C8.72383 94.1426 9.76875 94.4551 10.5695 95.0801C11.3768 95.6986 11.7805 96.5254 11.7805 97.5605ZM8.81172 99.9238C9.03307 99.6113 9.17956 99.2891 9.25117 98.957C9.32279 98.6185 9.35859 98.3158 9.35859 98.0488C9.35859 97.6777 9.31302 97.3001 9.22187 96.916C9.13724 96.5319 8.9875 96.1966 8.77266 95.9102C8.54479 95.6042 8.24531 95.3665 7.87422 95.1973C7.50312 95.028 7.04088 94.9434 6.4875 94.9434H5.11055V101.066H6.10664C6.80976 101.066 7.37943 100.959 7.81562 100.744C8.25833 100.523 8.59036 100.249 8.81172 99.9238ZM22.8828 105.734C22.4792 106.503 21.9388 107.115 21.2617 107.57C20.5846 108.026 19.8066 108.254 18.9277 108.254C18.153 108.254 17.4727 108.117 16.8867 107.844C16.3073 107.57 15.8288 107.199 15.4512 106.73C15.0736 106.262 14.7904 105.715 14.6016 105.09C14.4193 104.465 14.3281 103.804 14.3281 103.107C14.3281 102.482 14.4258 101.87 14.6211 101.271C14.8229 100.666 15.1159 100.122 15.5 99.6406C15.8711 99.1784 16.3301 98.8073 16.877 98.5273C17.4303 98.2409 18.0488 98.0977 18.7324 98.0977C19.4355 98.0977 20.0378 98.2083 20.5391 98.4297C21.0404 98.651 21.4473 98.9538 21.7598 99.3379C22.0592 99.7025 22.2806 100.132 22.4238 100.627C22.5736 101.122 22.6484 101.659 22.6484 102.238V102.883H16.2715C16.2715 103.514 16.3301 104.087 16.4473 104.602C16.571 105.116 16.763 105.568 17.0234 105.959C17.2773 106.337 17.6094 106.636 18.0195 106.857C18.4297 107.072 18.918 107.18 19.4844 107.18C20.0638 107.18 20.5618 107.046 20.9785 106.779C21.4017 106.506 21.8086 106.018 22.1992 105.314L22.8828 105.734ZM20.7246 102.062C20.7246 101.698 20.6921 101.307 20.627 100.891C20.5684 100.474 20.4707 100.126 20.334 99.8457C20.1842 99.5462 19.9792 99.3021 19.7187 99.1133C19.4583 98.9245 19.123 98.8301 18.7129 98.8301C18.0293 98.8301 17.4596 99.1165 17.0039 99.6895C16.5547 100.256 16.3105 101.047 16.2715 102.062H20.7246ZM31.1434 107.58C30.7202 107.756 30.3198 107.902 29.9422 108.02C29.5646 108.143 29.1023 108.205 28.5555 108.205C27.7482 108.205 27.1785 108.003 26.8465 107.6C26.521 107.189 26.3582 106.613 26.3582 105.871V99.3477H24.6199V98.4102H26.3973V95.4121H28.1746V98.4102H30.9383V99.3477H28.1941V104.729C28.1941 105.132 28.2072 105.471 28.2332 105.744C28.2658 106.011 28.3374 106.245 28.448 106.447C28.5522 106.636 28.7085 106.779 28.9168 106.877C29.1251 106.975 29.4051 107.023 29.7566 107.023C29.9194 107.023 30.157 107.01 30.4695 106.984C30.7885 106.952 31.0131 106.913 31.1434 106.867V107.58ZM46.5023 94.0449C46.5023 94.3379 46.4242 94.5853 46.268 94.7871C46.1117 94.9889 45.8741 95.0898 45.5551 95.0898C45.3533 95.0898 45.1742 95.0475 45.018 94.9629C44.8682 94.8783 44.7283 94.7643 44.598 94.6211C44.4678 94.4779 44.3474 94.3151 44.2367 94.1328C44.126 93.9505 44.0316 93.804 43.9535 93.6934C43.5173 93.7129 43.1788 94.0189 42.9379 94.6113C42.7035 95.1973 42.5863 96.1348 42.5863 97.4238V98.4102H45.0668V99.3477H42.5863V106.262C42.5863 106.49 42.6286 106.675 42.7133 106.818C42.8044 106.962 42.9444 107.069 43.1332 107.141C43.2895 107.199 43.4978 107.248 43.7582 107.287C44.0186 107.32 44.2432 107.342 44.432 107.355V108H39.3539V107.355C39.5036 107.342 39.6566 107.329 39.8129 107.316C39.9756 107.303 40.1156 107.277 40.2328 107.238C40.4151 107.18 40.5486 107.079 40.6332 106.936C40.7243 106.786 40.7699 106.594 40.7699 106.359V99.3477H38.8656V98.4102H40.7699V97.7949C40.7699 96.3301 41.1475 95.1452 41.9027 94.2402C42.6645 93.3288 43.615 92.873 44.7543 92.873C45.3337 92.873 45.7699 92.987 46.0629 93.2148C46.3559 93.4427 46.5023 93.7194 46.5023 94.0449ZM56.423 103.088C56.423 103.765 56.3156 104.432 56.1008 105.09C55.8859 105.741 55.5799 106.294 55.1828 106.75C54.7336 107.271 54.2128 107.658 53.6203 107.912C53.0279 108.166 52.3638 108.293 51.6281 108.293C51.0161 108.293 50.4335 108.179 49.8801 107.951C49.3267 107.717 48.8352 107.378 48.4055 106.936C47.9823 106.499 47.6437 105.969 47.3898 105.344C47.1424 104.712 47.0187 104.006 47.0187 103.225C47.0187 101.721 47.4549 100.49 48.3273 99.5332C49.2062 98.5762 50.3553 98.0977 51.7746 98.0977C53.1223 98.0977 54.2323 98.5534 55.1047 99.4648C55.9836 100.37 56.423 101.577 56.423 103.088ZM54.4016 103.107C54.4016 102.619 54.3527 102.105 54.2551 101.564C54.1574 101.018 54.0109 100.555 53.8156 100.178C53.6073 99.7741 53.3339 99.4518 52.9953 99.2109C52.6568 98.9635 52.2434 98.8398 51.7551 98.8398C51.2538 98.8398 50.8241 98.9635 50.466 99.2109C50.1145 99.4583 49.828 99.7969 49.6066 100.227C49.3983 100.624 49.2518 101.076 49.1672 101.584C49.0826 102.092 49.0402 102.583 49.0402 103.059C49.0402 103.684 49.0891 104.263 49.1867 104.797C49.2909 105.324 49.4536 105.796 49.675 106.213C49.8964 106.63 50.173 106.958 50.5051 107.199C50.8436 107.434 51.2603 107.551 51.7551 107.551C52.5689 107.551 53.2134 107.157 53.6887 106.369C54.1639 105.581 54.4016 104.494 54.4016 103.107ZM68.4043 103.088C68.4043 103.765 68.2969 104.432 68.082 105.09C67.8672 105.741 67.5612 106.294 67.1641 106.75C66.7148 107.271 66.194 107.658 65.6016 107.912C65.0091 108.166 64.3451 108.293 63.6094 108.293C62.9974 108.293 62.4147 108.179 61.8613 107.951C61.3079 107.717 60.8164 107.378 60.3867 106.936C59.9635 106.499 59.625 105.969 59.3711 105.344C59.1237 104.712 59 104.006 59 103.225C59 101.721 59.4362 100.49 60.3086 99.5332C61.1875 98.5762 62.3366 98.0977 63.7559 98.0977C65.1035 98.0977 66.2135 98.5534 67.0859 99.4648C67.9648 100.37 68.4043 101.577 68.4043 103.088ZM66.3828 103.107C66.3828 102.619 66.334 102.105 66.2363 101.564C66.1387 101.018 65.9922 100.555 65.7969 100.178C65.5885 99.7741 65.3151 99.4518 64.9766 99.2109C64.638 98.9635 64.2246 98.8398 63.7363 98.8398C63.235 98.8398 62.8053 98.9635 62.4473 99.2109C62.0957 99.4583 61.8092 99.7969 61.5879 100.227C61.3796 100.624 61.2331 101.076 61.1484 101.584C61.0638 102.092 61.0215 102.583 61.0215 103.059C61.0215 103.684 61.0703 104.263 61.168 104.797C61.2721 105.324 61.4349 105.796 61.6562 106.213C61.8776 106.63 62.1543 106.958 62.4863 107.199C62.8249 107.434 63.2415 107.551 63.7363 107.551C64.5501 107.551 65.1947 107.157 65.6699 106.369C66.1452 105.581 66.3828 104.494 66.3828 103.107ZM81.5477 107.824L78.1883 108.039L78.0418 107.902V107.004L77.9637 106.984C77.6251 107.362 77.2052 107.671 76.7039 107.912C76.2091 108.153 75.698 108.273 75.1707 108.273C74.6238 108.273 74.0932 108.153 73.5789 107.912C73.0711 107.665 72.6284 107.32 72.2508 106.877C71.8667 106.428 71.5607 105.887 71.3328 105.256C71.1115 104.624 71.0008 103.928 71.0008 103.166C71.0008 102.469 71.1212 101.809 71.3621 101.184C71.603 100.559 71.935 100.012 72.3582 99.543C72.7553 99.1068 73.2404 98.7585 73.8133 98.498C74.3927 98.2376 74.9819 98.1074 75.5809 98.1074C76.0301 98.1074 76.4695 98.166 76.8992 98.2832C77.3354 98.3939 77.7098 98.5371 78.0223 98.7129V95.3633C78.0223 95.0898 77.9767 94.8424 77.8855 94.6211C77.7944 94.3932 77.6674 94.2207 77.5047 94.1035C77.3224 93.9798 77.075 93.8919 76.7625 93.8398C76.4565 93.7812 76.1245 93.7389 75.7664 93.7129V93.1074L79.702 92.8828L79.8484 93.0293V106.018C79.8484 106.245 79.8908 106.441 79.9754 106.604C80.0665 106.76 80.1967 106.893 80.366 107.004C80.4897 107.082 80.6687 107.131 80.9031 107.15C81.1375 107.17 81.3523 107.183 81.5477 107.189V107.824ZM78.0223 106.135V100.5C77.9702 100.331 77.8855 100.148 77.7684 99.9531C77.6512 99.7578 77.5047 99.5788 77.3289 99.416C77.1401 99.2533 76.9187 99.1198 76.6648 99.0156C76.4109 98.9049 76.1147 98.8496 75.7762 98.8496C75.3855 98.8496 75.0242 98.9505 74.6922 99.1523C74.3667 99.3542 74.077 99.6439 73.823 100.021C73.5822 100.386 73.3901 100.852 73.2469 101.418C73.1102 101.978 73.0418 102.6 73.0418 103.283C73.0418 103.83 73.0939 104.328 73.198 104.777C73.3022 105.22 73.478 105.633 73.7254 106.018C73.9533 106.382 74.243 106.675 74.5945 106.896C74.9526 107.118 75.3758 107.229 75.8641 107.229C76.3849 107.229 76.8146 107.115 77.1531 106.887C77.4982 106.659 77.7879 106.408 78.0223 106.135Z" fill="#545454"/>
<path d="M63.8978 25.4978L58.1429 9.7473V1.42852C58.1429 0.639609 57.5032 0 56.7144 0H25.2858C24.4969 0 23.8573 0.639727 23.8573 1.42852V9.74719L18.1021 25.4978C17.4193 27.3636 17.0704 29.335 17.0715 31.3219V55.0765C17.0715 57.7913 19.2801 60 21.995 60H60.005C62.7199 60 64.9285 57.7913 64.9285 55.0765V31.3219C64.9285 29.329 64.5817 27.3694 63.8978 25.4978ZM26.7142 2.85715H55.2857V8.57145H26.7142V2.85715ZM62.0715 50.1321H41.9077C41.1188 50.1321 40.4792 50.7718 40.4792 51.5606C40.4792 52.3495 41.1189 52.9891 41.9077 52.9891H62.0715V55.0763C62.0715 56.2157 61.1445 57.1427 60.005 57.1427H21.995C20.8556 57.1427 19.9286 56.2158 19.9286 55.0763V31.3219C19.9277 29.6695 20.2179 28.03 20.7857 26.4783L26.2848 11.4286H55.7152L61.2142 26.4783C61.7821 28.03 62.0722 29.6695 62.0714 31.3219L62.0715 50.1321Z" fill="#F1CDB3"/>
<path d="M46.6169 33.805C46.1505 30.8772 43.6078 28.632 40.5505 28.632C37.4932 28.632 34.9504 30.8772 34.484 33.805C32.067 34.7989 30.4857 37.2756 30.6899 39.9659C30.9175 42.9637 33.3506 45.392 36.349 45.6148C37.5071 45.7011 38.6572 45.4628 39.6751 44.9259C40.2315 44.6328 40.8697 44.6326 41.4256 44.926C42.3085 45.3908 43.2914 45.6331 44.2891 45.632C44.4429 45.632 44.5974 45.6263 44.7516 45.6149C47.7502 45.3923 50.1832 42.9638 50.411 39.966C50.6152 37.2756 49.0339 34.7989 46.6169 33.805ZM47.562 39.7495C47.4405 41.35 46.1415 42.6466 44.5402 42.7655C43.9176 42.8126 43.3013 42.6851 42.7586 42.3986C42.0781 42.0394 41.3201 41.8517 40.5506 41.8517C39.781 41.8517 39.0231 42.0394 38.3425 42.3986C37.7999 42.6849 37.1849 42.8123 36.5608 42.7655C34.9597 42.6467 33.6606 41.3501 33.5391 39.7495C33.4143 38.1062 34.5296 36.6124 36.1331 36.2746C36.4588 36.206 36.7503 36.0259 36.9573 35.7653C37.1643 35.5047 37.2739 35.18 37.2671 34.8473L37.2648 34.775C37.2648 32.9632 38.7386 31.4893 40.5505 31.4893C42.3623 31.4893 43.8362 32.9632 43.8362 34.7698L43.834 34.8473C43.827 35.1801 43.9366 35.5048 44.1436 35.7654C44.3507 36.026 44.6423 36.2061 44.968 36.2746C46.5717 36.6124 47.6868 38.1062 47.562 39.7495Z" fill="#F1CDB3"/>
<path d="M40.5506 25.7751C43.1108 25.7751 45.1934 23.6924 45.1934 21.1322C45.1934 18.572 43.1108 16.4893 40.5506 16.4893C37.9904 16.4893 35.9077 18.5721 35.9077 21.1322C35.9077 23.6923 37.9906 25.7751 40.5506 25.7751ZM40.5506 19.3465C41.5353 19.3465 42.3363 20.1475 42.3363 21.1322C42.3363 22.1169 41.5353 22.9179 40.5506 22.9179C39.5659 22.9179 38.7649 22.1169 38.7649 21.1322C38.7649 20.1475 39.566 19.3465 40.5506 19.3465Z" fill="#F1CDB3"/>
<path d="M35.1935 26.6561C35.1935 24.0959 33.1107 22.0132 30.5506 22.0132C27.9905 22.0132 25.9078 24.096 25.9078 26.6561C25.9078 29.2162 27.9904 31.2989 30.5506 31.2989C33.1108 31.2989 35.1935 29.2162 35.1935 26.6561ZM30.5506 28.4418C29.5659 28.4418 28.7649 27.6408 28.7649 26.6561C28.7649 25.6714 29.5659 24.8704 30.5506 24.8704C31.5353 24.8704 32.3363 25.6714 32.3363 26.6561C32.3363 27.6408 31.5352 28.4418 30.5506 28.4418Z" fill="#F1CDB3"/>
<path d="M50.5506 22.0131C47.9904 22.0131 45.9077 24.0959 45.9077 26.656C45.9077 29.216 47.9906 31.2988 50.5506 31.2988C53.1107 31.2988 55.1934 29.2162 55.1934 26.656C55.1934 24.0958 53.1107 22.0131 50.5506 22.0131ZM50.5506 28.4418C49.5658 28.4418 48.7649 27.6408 48.7649 26.6561C48.7649 25.6714 49.5659 24.8704 50.5506 24.8704C51.5353 24.8704 52.3363 25.6714 52.3363 26.6561C52.3363 27.6408 51.5353 28.4418 50.5506 28.4418Z" fill="#F1CDB3"/>
<path d="M35.6934 50.1322H35.3465C34.5576 50.1322 33.918 50.7719 33.918 51.5607C33.918 52.3496 34.5577 52.9892 35.3465 52.9892H35.6934C36.4823 52.9892 37.1219 52.3495 37.1219 51.5607C37.122 50.7719 36.4824 50.1322 35.6934 50.1322Z" fill="#F1CDB3"/>
</svg>
