<svg width="101" height="113" viewBox="0 0 101 113" fill="none" xmlns="http://www.w3.org/2000/svg">
<path d="M9.77656 101.643C10.0695 101.968 10.2844 102.326 10.4211 102.717C10.5643 103.101 10.6359 103.55 10.6359 104.064C10.6359 105.288 10.1835 106.298 9.27851 107.092C8.37357 107.886 7.25052 108.283 5.90937 108.283C5.29088 108.283 4.6724 108.189 4.05391 108C3.43542 107.805 2.90156 107.57 2.45234 107.297L2.03242 108.01H1.25117L1.11445 103.264H1.90547C2.06823 103.85 2.25703 104.38 2.47187 104.855C2.69323 105.324 2.98294 105.764 3.34101 106.174C3.67956 106.558 4.07344 106.864 4.52266 107.092C4.97838 107.32 5.50573 107.434 6.10469 107.434C6.55391 107.434 6.94453 107.375 7.27656 107.258C7.6151 107.141 7.88854 106.975 8.09687 106.76C8.30521 106.545 8.4582 106.294 8.55586 106.008C8.66003 105.715 8.71211 105.38 8.71211 105.002C8.71211 104.449 8.55586 103.934 8.24336 103.459C7.93086 102.977 7.46536 102.613 6.84687 102.365C6.4237 102.196 5.93867 102.01 5.3918 101.809C4.84492 101.6 4.37292 101.405 3.97578 101.223C3.19453 100.871 2.58581 100.412 2.14961 99.8457C1.71992 99.2728 1.50508 98.5273 1.50508 97.6094C1.50508 97.082 1.6125 96.5905 1.82734 96.1348C2.04219 95.679 2.34818 95.2721 2.74531 94.9141C3.12292 94.5755 3.56888 94.3118 4.0832 94.123C4.59753 93.9277 5.13463 93.8301 5.69453 93.8301C6.33255 93.8301 6.90221 93.9277 7.40351 94.123C7.91133 94.3184 8.37357 94.5462 8.79023 94.8066L9.19062 94.1426H9.97187L10.05 98.7422H9.25898C9.11575 98.2148 8.95299 97.7103 8.7707 97.2285C8.59492 96.7467 8.3638 96.3105 8.07734 95.9199C7.7974 95.5423 7.4556 95.2428 7.05195 95.0215C6.64831 94.7936 6.15351 94.6797 5.56758 94.6797C4.94909 94.6797 4.42174 94.8783 3.98555 95.2754C3.54935 95.6725 3.33125 96.1576 3.33125 96.7305C3.33125 97.3294 3.47122 97.8275 3.75117 98.2246C4.03112 98.6152 4.43802 98.9375 4.97187 99.1914C5.44713 99.4193 5.91263 99.6178 6.36836 99.7871C6.8306 99.9499 7.27656 100.126 7.70625 100.314C8.09687 100.484 8.47122 100.676 8.8293 100.891C9.19388 101.105 9.50963 101.356 9.77656 101.643ZM23.7891 108H19.0625V107.355C19.2122 107.342 19.3783 107.329 19.5605 107.316C19.7428 107.303 19.8926 107.277 20.0098 107.238C20.1921 107.18 20.3255 107.079 20.4102 106.936C20.5013 106.786 20.5469 106.594 20.5469 106.359V101.408C20.5469 100.725 20.3841 100.197 20.0586 99.8262C19.7396 99.4551 19.349 99.2695 18.8867 99.2695C18.5482 99.2695 18.2324 99.3249 17.9395 99.4355C17.653 99.5397 17.3958 99.6699 17.168 99.8262C16.9466 99.9889 16.7773 100.152 16.6602 100.314C16.543 100.477 16.4518 100.614 16.3867 100.725V106.262C16.3867 106.483 16.429 106.665 16.5137 106.809C16.6048 106.952 16.7415 107.062 16.9238 107.141C17.0671 107.206 17.2135 107.255 17.3633 107.287C17.5195 107.32 17.6888 107.342 17.8711 107.355V108H13.1445V107.355C13.2943 107.342 13.4505 107.329 13.6133 107.316C13.776 107.297 13.9128 107.271 14.0234 107.238C14.2057 107.18 14.3424 107.079 14.4336 106.936C14.5247 106.786 14.5703 106.594 14.5703 106.359V95.1484C14.5703 94.9271 14.5182 94.7057 14.4141 94.4844C14.3164 94.263 14.1862 94.097 14.0234 93.9863C13.9062 93.9017 13.6979 93.8431 13.3984 93.8105C13.1055 93.7715 12.8678 93.7454 12.6855 93.7324V93.1074L16.25 92.8828L16.3867 93.0293V99.748H16.4258C16.6406 99.5332 16.8359 99.3444 17.0117 99.1816C17.1875 99.0124 17.4186 98.8366 17.7051 98.6543C17.9525 98.498 18.2422 98.3678 18.5742 98.2637C18.9128 98.1595 19.2904 98.1074 19.707 98.1074C20.5664 98.1074 21.2272 98.3809 21.6895 98.9277C22.1517 99.4681 22.3828 100.249 22.3828 101.271V106.281C22.3828 106.509 22.4219 106.695 22.5 106.838C22.5846 106.975 22.7214 107.082 22.9102 107.16C23.0599 107.219 23.1934 107.264 23.3105 107.297C23.4342 107.323 23.5937 107.342 23.7891 107.355V108ZM35.2918 107.824C34.9858 107.935 34.7156 108.023 34.4812 108.088C34.2534 108.16 33.993 108.195 33.7 108.195C33.1922 108.195 32.7853 108.078 32.4793 107.844C32.1798 107.603 31.9878 107.255 31.9031 106.799H31.8445C31.4214 107.268 30.9656 107.626 30.4773 107.873C29.9956 108.12 29.4129 108.244 28.7293 108.244C28.0066 108.244 27.4109 108.023 26.9422 107.58C26.4799 107.137 26.2488 106.558 26.2488 105.842C26.2488 105.471 26.3009 105.139 26.4051 104.846C26.5092 104.553 26.6655 104.289 26.8738 104.055C27.0366 103.859 27.2514 103.687 27.5184 103.537C27.7853 103.381 28.0359 103.257 28.2703 103.166C28.5633 103.055 29.1557 102.85 30.0477 102.551C30.9461 102.251 31.5516 102.017 31.8641 101.848V100.881C31.8641 100.796 31.8445 100.633 31.8055 100.393C31.7729 100.152 31.698 99.9238 31.5809 99.709C31.4506 99.4681 31.2651 99.2598 31.0242 99.084C30.7898 98.9017 30.4546 98.8105 30.0184 98.8105C29.7189 98.8105 29.4389 98.8626 29.1785 98.9668C28.9246 99.0645 28.7456 99.1686 28.6414 99.2793C28.6414 99.4095 28.6707 99.6016 28.7293 99.8555C28.7944 100.109 28.827 100.344 28.827 100.559C28.827 100.786 28.7228 100.995 28.5145 101.184C28.3126 101.372 28.0294 101.467 27.6648 101.467C27.3393 101.467 27.0984 101.353 26.9422 101.125C26.7924 100.891 26.7176 100.63 26.7176 100.344C26.7176 100.044 26.8217 99.7578 27.0301 99.4844C27.2449 99.2109 27.5216 98.9668 27.8602 98.752C28.1531 98.5697 28.5079 98.4167 28.9246 98.293C29.3413 98.1628 29.7482 98.0977 30.1453 98.0977C30.6922 98.0977 31.1674 98.1367 31.5711 98.2148C31.9812 98.2865 32.3523 98.446 32.6844 98.6934C33.0164 98.9342 33.2671 99.263 33.4363 99.6797C33.6121 100.09 33.7 100.62 33.7 101.271C33.7 102.202 33.6902 103.029 33.6707 103.752C33.6512 104.468 33.6414 105.253 33.6414 106.105C33.6414 106.359 33.6837 106.561 33.7684 106.711C33.8595 106.861 33.9962 106.988 34.1785 107.092C34.2762 107.15 34.4292 107.183 34.6375 107.189C34.8523 107.196 35.0704 107.199 35.2918 107.199V107.824ZM31.8836 102.668C31.3302 102.831 30.8452 102.99 30.4285 103.146C30.0118 103.303 29.6245 103.498 29.2664 103.732C28.9409 103.954 28.6837 104.217 28.4949 104.523C28.3061 104.823 28.2117 105.181 28.2117 105.598C28.2117 106.138 28.3517 106.535 28.6316 106.789C28.9181 107.043 29.2794 107.17 29.7156 107.17C30.1779 107.17 30.5848 107.059 30.9363 106.838C31.2879 106.61 31.5841 106.343 31.825 106.037L31.8836 102.668ZM53.943 108H49.2457V107.355C49.3954 107.342 49.5452 107.329 49.6949 107.316C49.8512 107.303 49.9879 107.277 50.1051 107.238C50.2874 107.18 50.4208 107.079 50.5055 106.936C50.5966 106.786 50.6422 106.594 50.6422 106.359V101.389C50.6422 100.712 50.4859 100.191 50.1734 99.8262C49.8674 99.4551 49.4833 99.2695 49.0211 99.2695C48.7021 99.2695 48.4026 99.3184 48.1227 99.416C47.8427 99.5137 47.5855 99.6504 47.3512 99.8262C47.1624 99.9694 47.0029 100.126 46.8727 100.295C46.749 100.458 46.6546 100.594 46.5895 100.705V106.262C46.5895 106.49 46.6285 106.678 46.7066 106.828C46.7848 106.971 46.9182 107.082 47.107 107.16C47.2568 107.219 47.3902 107.264 47.5074 107.297C47.6311 107.323 47.7906 107.342 47.9859 107.355V108H43.3863V107.355C43.5361 107.342 43.6793 107.329 43.816 107.316C43.9592 107.303 44.0895 107.277 44.2066 107.238C44.3889 107.18 44.5224 107.079 44.607 106.936C44.6982 106.786 44.7437 106.594 44.7437 106.359V101.389C44.7437 100.712 44.5875 100.191 44.275 99.8262C43.969 99.4551 43.5849 99.2695 43.1227 99.2695C42.8036 99.2695 42.5042 99.3216 42.2242 99.4258C41.9443 99.5234 41.6871 99.6602 41.4527 99.8359C41.2639 99.9792 41.1044 100.142 40.9742 100.324C40.844 100.5 40.7464 100.633 40.6812 100.725V106.242C40.6812 106.464 40.7268 106.649 40.818 106.799C40.9091 106.949 41.0458 107.062 41.2281 107.141C41.3648 107.206 41.5048 107.255 41.648 107.287C41.7913 107.32 41.9508 107.342 42.1266 107.355V108H37.4488V107.355C37.5986 107.342 37.7516 107.329 37.9078 107.316C38.0706 107.303 38.2105 107.277 38.3277 107.238C38.51 107.18 38.6435 107.079 38.7281 106.936C38.8193 106.786 38.8648 106.594 38.8648 106.359V100.373C38.8648 100.165 38.816 99.9792 38.7184 99.8164C38.6272 99.6471 38.497 99.5039 38.3277 99.3867C38.204 99.3086 38.051 99.2467 37.8687 99.2012C37.6865 99.1491 37.4977 99.1165 37.3023 99.1035V98.4688L40.525 98.2539L40.6617 98.3906V99.7676H40.7301C40.8928 99.6048 41.0914 99.4128 41.3258 99.1914C41.5602 98.9701 41.7783 98.791 41.9801 98.6543C42.2079 98.498 42.4911 98.3678 42.8297 98.2637C43.1747 98.1595 43.5458 98.1074 43.943 98.1074C44.568 98.1074 45.1051 98.2767 45.5543 98.6152C46.0035 98.9473 46.3258 99.3509 46.5211 99.8262C46.7555 99.5983 46.9605 99.3997 47.1363 99.2305C47.3186 99.0547 47.5562 98.8691 47.8492 98.6738C48.0966 98.5046 48.3863 98.3678 48.7184 98.2637C49.0569 98.1595 49.4312 98.1074 49.8414 98.1074C50.6552 98.1074 51.2997 98.3743 51.775 98.9082C52.2503 99.4421 52.4879 100.262 52.4879 101.369V106.262C52.4879 106.49 52.527 106.678 52.6051 106.828C52.6832 106.971 52.8167 107.082 53.0055 107.16C53.1552 107.219 53.3017 107.264 53.4449 107.297C53.5947 107.323 53.7607 107.342 53.943 107.355V108ZM65.0648 99.5137C65.449 99.9694 65.7452 100.5 65.9535 101.105C66.1684 101.704 66.2758 102.391 66.2758 103.166C66.2758 103.928 66.1488 104.624 65.8949 105.256C65.641 105.881 65.3057 106.415 64.8891 106.857C64.4529 107.307 63.9678 107.652 63.434 107.893C62.9001 108.133 62.3337 108.254 61.7348 108.254C61.1553 108.254 60.6801 108.189 60.309 108.059C59.9379 107.928 59.6352 107.775 59.4008 107.6H59.3227V110.49C59.3227 110.725 59.3682 110.92 59.4594 111.076C59.5505 111.232 59.6905 111.346 59.8793 111.418C60.0355 111.477 60.2569 111.532 60.5434 111.584C60.8363 111.643 61.0772 111.675 61.266 111.682V112.336H55.8852V111.682C56.087 111.669 56.2823 111.652 56.4711 111.633C56.6599 111.613 56.8292 111.581 56.9789 111.535C57.1742 111.47 57.3109 111.356 57.3891 111.193C57.4672 111.031 57.5062 110.839 57.5062 110.617V100.373C57.5062 100.178 57.4574 99.9889 57.3598 99.8066C57.2621 99.6243 57.1352 99.4779 56.9789 99.3672C56.8617 99.2891 56.699 99.2305 56.4906 99.1914C56.2823 99.1458 56.0805 99.1165 55.8852 99.1035V98.4688L59.1664 98.2539L59.3031 98.3711V99.4551L59.3812 99.4746C59.7198 99.084 60.1397 98.7585 60.641 98.498C61.1423 98.2376 61.6404 98.1074 62.1352 98.1074C62.7341 98.1074 63.281 98.2344 63.7758 98.4883C64.2771 98.7422 64.7068 99.084 65.0648 99.5137ZM63.473 106.438C63.7335 106.034 63.9255 105.565 64.0492 105.031C64.1729 104.497 64.2348 103.902 64.2348 103.244C64.2348 102.762 64.1827 102.271 64.0785 101.77C63.9743 101.268 63.8116 100.832 63.5902 100.461C63.3689 100.083 63.0792 99.7773 62.7211 99.543C62.363 99.3086 61.9333 99.1914 61.432 99.1914C60.9503 99.1914 60.5401 99.2988 60.2016 99.5137C59.863 99.722 59.5701 99.9727 59.3227 100.266V105.959C59.3812 106.135 59.4756 106.317 59.6059 106.506C59.7426 106.695 59.8923 106.857 60.0551 106.994C60.2569 107.157 60.475 107.29 60.7094 107.395C60.9437 107.492 61.2302 107.541 61.5687 107.541C61.9333 107.541 62.2849 107.447 62.6234 107.258C62.962 107.062 63.2452 106.789 63.473 106.438ZM78.2766 103.088C78.2766 103.765 78.1691 104.432 77.9543 105.09C77.7395 105.741 77.4335 106.294 77.0363 106.75C76.5871 107.271 76.0663 107.658 75.4738 107.912C74.8814 108.166 74.2173 108.293 73.4816 108.293C72.8697 108.293 72.287 108.179 71.7336 107.951C71.1802 107.717 70.6887 107.378 70.259 106.936C69.8358 106.499 69.4973 105.969 69.2434 105.344C68.996 104.712 68.8723 104.006 68.8723 103.225C68.8723 101.721 69.3085 100.49 70.1809 99.5332C71.0598 98.5762 72.2089 98.0977 73.6281 98.0977C74.9758 98.0977 76.0858 98.5534 76.9582 99.4648C77.8371 100.37 78.2766 101.577 78.2766 103.088ZM76.2551 103.107C76.2551 102.619 76.2063 102.105 76.1086 101.564C76.0109 101.018 75.8645 100.555 75.6691 100.178C75.4608 99.7741 75.1874 99.4518 74.8488 99.2109C74.5103 98.9635 74.0969 98.8398 73.6086 98.8398C73.1073 98.8398 72.6776 98.9635 72.3195 99.2109C71.968 99.4583 71.6815 99.7969 71.4602 100.227C71.2518 100.624 71.1053 101.076 71.0207 101.584C70.9361 102.092 70.8938 102.583 70.8938 103.059C70.8938 103.684 70.9426 104.263 71.0402 104.797C71.1444 105.324 71.3072 105.796 71.5285 106.213C71.7499 106.63 72.0266 106.958 72.3586 107.199C72.6971 107.434 73.1138 107.551 73.6086 107.551C74.4224 107.551 75.0669 107.157 75.5422 106.369C76.0175 105.581 76.2551 104.494 76.2551 103.107ZM90.2578 103.088C90.2578 103.765 90.1504 104.432 89.9355 105.09C89.7207 105.741 89.4147 106.294 89.0176 106.75C88.5684 107.271 88.0475 107.658 87.4551 107.912C86.8626 108.166 86.1986 108.293 85.4629 108.293C84.8509 108.293 84.2682 108.179 83.7148 107.951C83.1615 107.717 82.6699 107.378 82.2402 106.936C81.8171 106.499 81.4785 105.969 81.2246 105.344C80.9772 104.712 80.8535 104.006 80.8535 103.225C80.8535 101.721 81.2897 100.49 82.1621 99.5332C83.041 98.5762 84.1901 98.0977 85.6094 98.0977C86.957 98.0977 88.0671 98.5534 88.9395 99.4648C89.8184 100.37 90.2578 101.577 90.2578 103.088ZM88.2363 103.107C88.2363 102.619 88.1875 102.105 88.0898 101.564C87.9922 101.018 87.8457 100.555 87.6504 100.178C87.4421 99.7741 87.1686 99.4518 86.8301 99.2109C86.4915 98.9635 86.0781 98.8398 85.5898 98.8398C85.0885 98.8398 84.6589 98.9635 84.3008 99.2109C83.9492 99.4583 83.6628 99.7969 83.4414 100.227C83.2331 100.624 83.0866 101.076 83.002 101.584C82.9173 102.092 82.875 102.583 82.875 103.059C82.875 103.684 82.9238 104.263 83.0215 104.797C83.1257 105.324 83.2884 105.796 83.5098 106.213C83.7311 106.63 84.0078 106.958 84.3398 107.199C84.6784 107.434 85.0951 107.551 85.5898 107.551C86.4036 107.551 87.0482 107.157 87.5234 106.369C87.9987 105.581 88.2363 104.494 88.2363 103.107ZM99.2117 103.283C99.4786 103.518 99.6837 103.788 99.827 104.094C99.9702 104.4 100.042 104.774 100.042 105.217C100.042 106.109 99.7065 106.838 99.0359 107.404C98.3719 107.971 97.5092 108.254 96.448 108.254C95.8881 108.254 95.3706 108.153 94.8953 107.951C94.4266 107.749 94.0913 107.564 93.8895 107.395L93.6941 108.029H92.9617L92.8641 104.68H93.5379C93.59 104.934 93.7006 105.23 93.8699 105.568C94.0392 105.907 94.2443 106.213 94.4852 106.486C94.7391 106.773 95.0418 107.014 95.3934 107.209C95.7514 107.404 96.1518 107.502 96.5945 107.502C97.2195 107.502 97.7013 107.362 98.0398 107.082C98.3784 106.796 98.5477 106.389 98.5477 105.861C98.5477 105.588 98.4923 105.354 98.3816 105.158C98.2775 104.956 98.1212 104.781 97.9129 104.631C97.698 104.481 97.4344 104.348 97.1219 104.23C96.8094 104.107 96.4611 103.986 96.077 103.869C95.771 103.778 95.4292 103.654 95.0516 103.498C94.6805 103.335 94.3615 103.146 94.0945 102.932C93.8081 102.704 93.5737 102.424 93.3914 102.092C93.2091 101.76 93.118 101.369 93.118 100.92C93.118 100.132 93.4109 99.4648 93.9969 98.918C94.5828 98.3711 95.3673 98.0977 96.3504 98.0977C96.728 98.0977 97.1121 98.1465 97.5027 98.2441C97.8999 98.3418 98.2221 98.459 98.4695 98.5957L98.6941 98.0879H99.3973L99.5437 101.184H98.8699C98.7332 100.493 98.437 99.9336 97.9812 99.5039C97.532 99.0677 96.9819 98.8496 96.3309 98.8496C95.797 98.8496 95.3771 98.9831 95.0711 99.25C94.7651 99.5169 94.6121 99.8392 94.6121 100.217C94.6121 100.51 94.6609 100.754 94.7586 100.949C94.8628 101.145 95.0158 101.311 95.2176 101.447C95.4129 101.577 95.657 101.701 95.95 101.818C96.2495 101.929 96.6173 102.056 97.0535 102.199C97.4832 102.336 97.8868 102.495 98.2645 102.678C98.6486 102.86 98.9643 103.062 99.2117 103.283Z" fill="#545454"/>
<path d="M58.1303 17.1814V11.7391C58.1303 11.0188 57.5463 10.4348 56.826 10.4348H55.8477V1.3043C55.8477 0.583945 55.2637 0 54.5434 0H46.0651C45.3448 0 44.7608 0.583945 44.7608 1.3043V10.4347H43.7825C43.0622 10.4347 42.4782 11.0187 42.4782 11.739V17.1813C37.8977 19.0078 34.6521 23.4879 34.6521 28.712V58.6956C34.6521 59.4159 35.236 59.9999 35.9564 59.9999H64.6521C65.3725 59.9999 65.9564 59.4159 65.9564 58.6956V28.7121C65.9563 23.4879 62.7107 19.0078 58.1303 17.1814ZM47.3694 2.60871H53.239V10.4348H47.3694V2.60871ZM45.0867 13.0434H55.5214V16.3043H45.0867V13.0434ZM63.3476 57.3913H37.2607V28.7121C37.2607 23.3088 41.6565 18.913 47.0597 18.913H53.5486C58.9519 18.913 63.3476 23.3088 63.3476 28.7121V57.3913Z" fill="#F1CDB3"/>
<path d="M58.7825 27.3913H41.8259C41.1056 27.3913 40.5216 27.9752 40.5216 28.6956V52.826C40.5216 53.5464 41.1056 54.1303 41.8259 54.1303H58.7825C59.5028 54.1303 60.0868 53.5464 60.0868 52.826V44.6287C60.0868 43.9084 59.5028 43.3244 58.7825 43.3244C58.0621 43.3244 57.4782 43.9084 57.4782 44.6287V51.5217H43.1303V30H57.4782V34.1287C57.4782 34.8491 58.0621 35.433 58.7825 35.433C59.5028 35.433 60.0868 34.8491 60.0868 34.1287V28.6957C60.0868 27.9752 59.5028 27.3913 58.7825 27.3913Z" fill="#F1CDB3"/>
<path d="M58.7824 38.0645C58.0621 38.0645 57.4781 38.6484 57.4781 39.3688V39.4992C57.4781 40.2195 58.0621 40.8035 58.7824 40.8035C59.5028 40.8035 60.0867 40.2195 60.0867 39.4992V39.3688C60.0867 38.6484 59.5028 38.0645 58.7824 38.0645Z" fill="#F1CDB3"/>
<path d="M48.9922 41.1512C46.8345 41.1512 45.0792 42.9066 45.0792 45.0642C45.0792 47.2219 46.8345 48.9773 48.9922 48.9773C51.1499 48.9773 52.9052 47.2219 52.9052 45.0642C52.9052 42.9067 51.1499 41.1512 48.9922 41.1512ZM48.9922 46.3687C48.273 46.3687 47.6879 45.7835 47.6879 45.0644C47.6879 44.3452 48.273 43.7601 48.9922 43.7601C49.7114 43.7601 50.2965 44.3452 50.2965 45.0644C50.2965 45.7835 49.7115 46.3687 48.9922 46.3687Z" fill="#F1CDB3"/>
<path d="M55.8456 35.9842C55.8456 33.8266 54.0903 32.0712 51.9326 32.0712C49.7749 32.0712 48.0196 33.8266 48.0196 35.9842C48.0196 38.1419 49.7749 39.8973 51.9326 39.8973C54.0901 39.8974 55.8456 38.1419 55.8456 35.9842ZM51.9325 37.2887C51.2133 37.2887 50.6282 36.7035 50.6282 35.9844C50.6282 35.2652 51.2133 34.6801 51.9325 34.6801C52.6517 34.6801 53.2368 35.2652 53.2368 35.9844C53.2368 36.7035 52.6519 37.2887 51.9325 37.2887Z" fill="#F1CDB3"/>
</svg>
