<svg width="143" height="113" viewBox="0 0 143 113" fill="none" xmlns="http://www.w3.org/2000/svg">
<path d="M9.73515 101.643C10.0281 101.968 10.243 102.326 10.3797 102.717C10.5229 103.101 10.5945 103.55 10.5945 104.064C10.5945 105.288 10.1421 106.298 9.23711 107.092C8.33216 107.886 7.20911 108.283 5.86797 108.283C5.24948 108.283 4.63099 108.189 4.0125 108C3.39401 107.805 2.86015 107.57 2.41093 107.297L1.99101 108.01H1.20976L1.07304 103.264H1.86406C2.02682 103.85 2.21562 104.38 2.43047 104.855C2.65182 105.324 2.94153 105.764 3.29961 106.174C3.63815 106.558 4.03203 106.864 4.48125 107.092C4.93698 107.32 5.46432 107.434 6.06328 107.434C6.5125 107.434 6.90312 107.375 7.23515 107.258C7.57369 107.141 7.84713 106.975 8.05547 106.76C8.2638 106.545 8.41679 106.294 8.51445 106.008C8.61862 105.715 8.6707 105.38 8.6707 105.002C8.6707 104.449 8.51445 103.934 8.20195 103.459C7.88945 102.977 7.42396 102.613 6.80547 102.365C6.38229 102.196 5.89726 102.01 5.35039 101.809C4.80351 101.6 4.33151 101.405 3.93437 101.223C3.15312 100.871 2.5444 100.412 2.1082 99.8457C1.67851 99.2728 1.46367 98.5273 1.46367 97.6094C1.46367 97.082 1.57109 96.5905 1.78593 96.1348C2.00078 95.679 2.30677 95.2721 2.7039 94.9141C3.08151 94.5755 3.52747 94.3118 4.04179 94.123C4.55612 93.9277 5.09323 93.8301 5.65312 93.8301C6.29114 93.8301 6.8608 93.9277 7.36211 94.123C7.86992 94.3184 8.33216 94.5462 8.74883 94.8066L9.14922 94.1426H9.93047L10.0086 98.7422H9.21758C9.07435 98.2148 8.91159 97.7103 8.72929 97.2285C8.55351 96.7467 8.32239 96.3105 8.03593 95.9199C7.75599 95.5423 7.41419 95.2428 7.01054 95.0215C6.6069 94.7936 6.11211 94.6797 5.52617 94.6797C4.90768 94.6797 4.38034 94.8783 3.94414 95.2754C3.50794 95.6725 3.28984 96.1576 3.28984 96.7305C3.28984 97.3294 3.42981 97.8275 3.70976 98.2246C3.98971 98.6152 4.39661 98.9375 4.93047 99.1914C5.40573 99.4193 5.87122 99.6178 6.32695 99.7871C6.78919 99.9499 7.23515 100.126 7.66484 100.314C8.05547 100.484 8.42981 100.676 8.78789 100.891C9.15247 101.105 9.46823 101.356 9.73515 101.643ZM17.8004 108H13.1031V107.355C13.2529 107.342 13.4124 107.329 13.5816 107.316C13.7509 107.297 13.8909 107.271 14.0016 107.238C14.1839 107.18 14.3206 107.079 14.4117 106.936C14.5029 106.786 14.5484 106.594 14.5484 106.359V95.207C14.5484 94.9727 14.4964 94.7546 14.3922 94.5527C14.2945 94.3444 14.1643 94.1816 14.0016 94.0645C13.8844 93.9863 13.6695 93.9147 13.357 93.8496C13.0445 93.7845 12.7939 93.7454 12.6051 93.7324V93.1074L16.2281 92.8828L16.3648 93.0293V106.242C16.3648 106.47 16.4072 106.659 16.4918 106.809C16.5764 106.952 16.7131 107.062 16.9019 107.141C17.0452 107.206 17.1852 107.255 17.3219 107.287C17.4651 107.32 17.6246 107.342 17.8004 107.355V108ZM28.766 105.734C28.3624 106.503 27.822 107.115 27.1449 107.57C26.4678 108.026 25.6898 108.254 24.8109 108.254C24.0362 108.254 23.3559 108.117 22.7699 107.844C22.1905 107.57 21.712 107.199 21.3344 106.73C20.9568 106.262 20.6736 105.715 20.4848 105.09C20.3025 104.465 20.2113 103.804 20.2113 103.107C20.2113 102.482 20.309 101.87 20.5043 101.271C20.7061 100.666 20.9991 100.122 21.3832 99.6406C21.7543 99.1784 22.2133 98.8073 22.7602 98.5273C23.3135 98.2409 23.932 98.0977 24.6156 98.0977C25.3187 98.0977 25.921 98.2083 26.4223 98.4297C26.9236 98.651 27.3305 98.9538 27.643 99.3379C27.9424 99.7025 28.1638 100.132 28.307 100.627C28.4568 101.122 28.5316 101.659 28.5316 102.238V102.883H22.1547C22.1547 103.514 22.2133 104.087 22.3305 104.602C22.4542 105.116 22.6462 105.568 22.9066 105.959C23.1605 106.337 23.4926 106.636 23.9027 106.857C24.3129 107.072 24.8012 107.18 25.3676 107.18C25.947 107.18 26.445 107.046 26.8617 106.779C27.2849 106.506 27.6918 106.018 28.0824 105.314L28.766 105.734ZM26.6078 102.062C26.6078 101.698 26.5753 101.307 26.5102 100.891C26.4516 100.474 26.3539 100.126 26.2172 99.8457C26.0674 99.5462 25.8624 99.3021 25.6019 99.1133C25.3415 98.9245 25.0062 98.8301 24.5961 98.8301C23.9125 98.8301 23.3428 99.1165 22.8871 99.6895C22.4379 100.256 22.1937 101.047 22.1547 102.062H26.6078ZM39.634 105.734C39.2303 106.503 38.69 107.115 38.0129 107.57C37.3358 108.026 36.5578 108.254 35.6789 108.254C34.9042 108.254 34.2238 108.117 33.6379 107.844C33.0585 107.57 32.5799 107.199 32.2023 106.73C31.8247 106.262 31.5415 105.715 31.3527 105.09C31.1704 104.465 31.0793 103.804 31.0793 103.107C31.0793 102.482 31.177 101.87 31.3723 101.271C31.5741 100.666 31.8671 100.122 32.2512 99.6406C32.6223 99.1784 33.0812 98.8073 33.6281 98.5273C34.1815 98.2409 34.8 98.0977 35.4836 98.0977C36.1867 98.0977 36.7889 98.2083 37.2902 98.4297C37.7915 98.651 38.1984 98.9538 38.5109 99.3379C38.8104 99.7025 39.0318 100.132 39.175 100.627C39.3247 101.122 39.3996 101.659 39.3996 102.238V102.883H33.0227C33.0227 103.514 33.0812 104.087 33.1984 104.602C33.3221 105.116 33.5142 105.568 33.7746 105.959C34.0285 106.337 34.3605 106.636 34.7707 106.857C35.1809 107.072 35.6691 107.18 36.2355 107.18C36.815 107.18 37.313 107.046 37.7297 106.779C38.1529 106.506 38.5598 106.018 38.9504 105.314L39.634 105.734ZM37.4758 102.062C37.4758 101.698 37.4432 101.307 37.3781 100.891C37.3195 100.474 37.2219 100.126 37.0852 99.8457C36.9354 99.5462 36.7303 99.3021 36.4699 99.1133C36.2095 98.9245 35.8742 98.8301 35.4641 98.8301C34.7805 98.8301 34.2108 99.1165 33.7551 99.6895C33.3059 100.256 33.0617 101.047 33.0227 102.062H37.4758ZM50.7461 99.5137C51.1302 99.9694 51.4264 100.5 51.6348 101.105C51.8496 101.704 51.957 102.391 51.957 103.166C51.957 103.928 51.8301 104.624 51.5762 105.256C51.3223 105.881 50.987 106.415 50.5703 106.857C50.1341 107.307 49.6491 107.652 49.1152 107.893C48.5814 108.133 48.015 108.254 47.416 108.254C46.8366 108.254 46.3613 108.189 45.9902 108.059C45.6191 107.928 45.3164 107.775 45.082 107.6H45.0039V110.49C45.0039 110.725 45.0495 110.92 45.1406 111.076C45.2318 111.232 45.3717 111.346 45.5605 111.418C45.7168 111.477 45.9381 111.532 46.2246 111.584C46.5176 111.643 46.7585 111.675 46.9473 111.682V112.336H41.5664V111.682C41.7682 111.669 41.9635 111.652 42.1523 111.633C42.3411 111.613 42.5104 111.581 42.6602 111.535C42.8555 111.47 42.9922 111.356 43.0703 111.193C43.1484 111.031 43.1875 110.839 43.1875 110.617V100.373C43.1875 100.178 43.1387 99.9889 43.041 99.8066C42.9434 99.6243 42.8164 99.4779 42.6602 99.3672C42.543 99.2891 42.3802 99.2305 42.1719 99.1914C41.9635 99.1458 41.7617 99.1165 41.5664 99.1035V98.4688L44.8477 98.2539L44.9844 98.3711V99.4551L45.0625 99.4746C45.401 99.084 45.821 98.7585 46.3223 98.498C46.8236 98.2376 47.3216 98.1074 47.8164 98.1074C48.4154 98.1074 48.9622 98.2344 49.457 98.4883C49.9583 98.7422 50.388 99.084 50.7461 99.5137ZM49.1543 106.438C49.4147 106.034 49.6068 105.565 49.7305 105.031C49.8542 104.497 49.916 103.902 49.916 103.244C49.916 102.762 49.8639 102.271 49.7598 101.77C49.6556 101.268 49.4928 100.832 49.2715 100.461C49.0501 100.083 48.7604 99.7773 48.4023 99.543C48.0443 99.3086 47.6146 99.1914 47.1133 99.1914C46.6315 99.1914 46.2214 99.2988 45.8828 99.5137C45.5443 99.722 45.2513 99.9727 45.0039 100.266V105.959C45.0625 106.135 45.1569 106.317 45.2871 106.506C45.4238 106.695 45.5736 106.857 45.7363 106.994C45.9381 107.157 46.1562 107.29 46.3906 107.395C46.625 107.492 46.9115 107.541 47.25 107.541C47.6146 107.541 47.9661 107.447 48.3047 107.258C48.6432 107.062 48.9264 106.789 49.1543 106.438ZM59.2508 108H54.5926V107.355C54.7423 107.342 54.8953 107.329 55.0516 107.316C55.2143 107.303 55.3543 107.277 55.4715 107.238C55.6538 107.18 55.7872 107.079 55.8719 106.936C55.963 106.786 56.0086 106.594 56.0086 106.359V100.412C56.0086 100.204 55.9598 100.015 55.8621 99.8457C55.771 99.6699 55.6408 99.5234 55.4715 99.4062C55.3478 99.3281 55.1687 99.263 54.9344 99.2109C54.7 99.1523 54.4852 99.1165 54.2898 99.1035V98.4688L57.6883 98.2539L57.825 98.3906V106.242C57.825 106.47 57.8673 106.659 57.952 106.809C58.0431 106.958 58.1831 107.069 58.3719 107.141C58.5151 107.199 58.6551 107.248 58.7918 107.287C58.9285 107.32 59.0815 107.342 59.2508 107.355V108ZM58.0203 94.4551C58.0203 94.8262 57.8966 95.1517 57.6492 95.4316C57.4083 95.7051 57.1089 95.8418 56.7508 95.8418C56.4187 95.8418 56.129 95.7116 55.8816 95.4512C55.6408 95.1842 55.5203 94.8815 55.5203 94.543C55.5203 94.1849 55.6408 93.8724 55.8816 93.6055C56.129 93.3385 56.4187 93.2051 56.7508 93.2051C57.1219 93.2051 57.4246 93.332 57.659 93.5859C57.8999 93.8333 58.0203 94.123 58.0203 94.4551ZM72.2672 108H67.5504V107.355C67.7001 107.342 67.8629 107.329 68.0387 107.316C68.221 107.303 68.3707 107.277 68.4879 107.238C68.6702 107.18 68.8036 107.079 68.8883 106.936C68.9794 106.786 69.025 106.594 69.025 106.359V101.408C69.025 100.725 68.8622 100.197 68.5367 99.8262C68.2177 99.4551 67.8271 99.2695 67.3648 99.2695C67.0198 99.2695 66.704 99.3249 66.4176 99.4355C66.1311 99.5397 65.8772 99.6699 65.6559 99.8262C65.441 99.9759 65.2685 100.139 65.1383 100.314C65.0146 100.484 64.9234 100.62 64.8648 100.725V106.262C64.8648 106.483 64.9104 106.665 65.0016 106.809C65.0927 106.952 65.2294 107.062 65.4117 107.141C65.5484 107.206 65.6949 107.255 65.8512 107.287C66.0139 107.32 66.1799 107.342 66.3492 107.355V108H61.6324V107.355C61.7822 107.342 61.9352 107.329 62.0914 107.316C62.2542 107.303 62.3941 107.277 62.5113 107.238C62.6936 107.18 62.8271 107.079 62.9117 106.936C63.0029 106.786 63.0484 106.594 63.0484 106.359V100.412C63.0484 100.191 62.9996 99.9889 62.902 99.8066C62.8108 99.6178 62.6806 99.4648 62.5113 99.3477C62.3876 99.2695 62.2411 99.2142 62.0719 99.1816C61.9026 99.1426 61.7203 99.1165 61.525 99.1035V98.4688L64.7281 98.2539L64.8648 98.3906V99.748H64.9137C65.0699 99.5918 65.2652 99.4062 65.4996 99.1914C65.734 98.9701 65.9553 98.791 66.1637 98.6543C66.4046 98.498 66.691 98.3678 67.023 98.2637C67.3551 98.1595 67.7294 98.1074 68.1461 98.1074C69.0706 98.1074 69.7542 98.3971 70.1969 98.9766C70.6461 99.5495 70.8707 100.314 70.8707 101.271V106.281C70.8707 106.509 70.9098 106.695 70.9879 106.838C71.066 106.975 71.1995 107.082 71.3883 107.16C71.5445 107.225 71.678 107.271 71.7887 107.297C71.9059 107.323 72.0654 107.342 72.2672 107.355V108ZM82.9008 107.004C83.1612 107.251 83.3663 107.531 83.516 107.844C83.6658 108.156 83.7406 108.544 83.7406 109.006C83.7406 109.468 83.6397 109.901 83.4379 110.305C83.2361 110.715 82.9301 111.07 82.5199 111.369C82.0837 111.675 81.5629 111.913 80.9574 112.082C80.352 112.251 79.6033 112.336 78.7113 112.336C77.253 112.336 76.1625 112.121 75.4398 111.691C74.7172 111.268 74.3559 110.646 74.3559 109.826C74.3559 109.162 74.6163 108.638 75.1371 108.254C75.6579 107.87 76.322 107.661 77.1293 107.629V107.492C76.934 107.434 76.7322 107.362 76.5238 107.277C76.3155 107.186 76.1365 107.082 75.9867 106.965C75.8174 106.828 75.6807 106.669 75.5766 106.486C75.4724 106.298 75.4203 106.066 75.4203 105.793C75.4203 105.448 75.5408 105.132 75.7816 104.846C76.029 104.553 76.4001 104.302 76.8949 104.094V103.947C76.2699 103.654 75.7849 103.28 75.4398 102.824C75.0948 102.362 74.9223 101.828 74.9223 101.223C74.9223 100.311 75.2608 99.5625 75.9379 98.9766C76.6215 98.3906 77.4939 98.0977 78.5551 98.0977C78.848 98.0977 79.1378 98.127 79.4242 98.1855C79.7172 98.2441 80.0134 98.319 80.3129 98.4102H83.6723V99.3477H81.4066V99.4062C81.6475 99.6862 81.8266 99.9954 81.9437 100.334C82.0609 100.673 82.1195 101.005 82.1195 101.33C82.1195 102.176 81.7745 102.893 81.0844 103.479C80.4008 104.064 79.6033 104.357 78.6918 104.357H77.5102C77.3604 104.41 77.2042 104.504 77.0414 104.641C76.8786 104.777 76.7973 104.963 76.7973 105.197C76.7973 105.438 76.8656 105.624 77.0023 105.754C77.1391 105.878 77.3051 105.962 77.5004 106.008C77.6892 106.06 77.9073 106.092 78.1547 106.105C78.4086 106.118 78.669 106.128 78.9359 106.135C79.2224 106.141 79.613 106.161 80.1078 106.193C80.6091 106.226 80.9639 106.245 81.1723 106.252C81.4717 106.265 81.7712 106.337 82.0707 106.467C82.3767 106.597 82.6534 106.776 82.9008 107.004ZM80.2641 101.291C80.2641 100.529 80.1078 99.9238 79.7953 99.4746C79.4893 99.0189 79.0564 98.791 78.4965 98.791C78.1905 98.791 77.9268 98.8561 77.7055 98.9863C77.4906 99.11 77.3148 99.2891 77.1781 99.5234C77.0479 99.7383 76.9535 99.9987 76.8949 100.305C76.8428 100.604 76.8168 100.913 76.8168 101.232C76.8168 101.955 76.973 102.544 77.2855 103C77.6046 103.456 78.0147 103.684 78.516 103.684C79.0759 103.684 79.5056 103.459 79.8051 103.01C80.1111 102.554 80.2641 101.981 80.2641 101.291ZM82.1391 109.367C82.1391 109.003 82.0544 108.703 81.8852 108.469C81.7159 108.234 81.4587 108.075 81.1137 107.99C80.9314 107.964 80.557 107.935 79.9906 107.902C79.4242 107.87 78.7667 107.854 78.018 107.854C77.3148 107.99 76.8135 108.218 76.5141 108.537C76.2211 108.863 76.0746 109.279 76.0746 109.787C76.0746 110.015 76.1234 110.233 76.2211 110.441C76.3187 110.65 76.488 110.842 76.7289 111.018C76.9568 111.187 77.2628 111.324 77.6469 111.428C78.031 111.538 78.4997 111.594 79.0531 111.594C80.0102 111.594 80.7621 111.408 81.309 111.037C81.8624 110.673 82.1391 110.116 82.1391 109.367ZM101.189 107.824C100.883 107.935 100.613 108.023 100.379 108.088C100.151 108.16 99.8906 108.195 99.5977 108.195C99.0898 108.195 98.6829 108.078 98.377 107.844C98.0775 107.603 97.8854 107.255 97.8008 106.799H97.7422C97.319 107.268 96.8633 107.626 96.375 107.873C95.8932 108.12 95.3105 108.244 94.627 108.244C93.9043 108.244 93.3086 108.023 92.8398 107.58C92.3776 107.137 92.1465 106.558 92.1465 105.842C92.1465 105.471 92.1986 105.139 92.3027 104.846C92.4069 104.553 92.5632 104.289 92.7715 104.055C92.9342 103.859 93.1491 103.687 93.416 103.537C93.6829 103.381 93.9336 103.257 94.168 103.166C94.4609 103.055 95.0534 102.85 95.9453 102.551C96.8438 102.251 97.4492 102.017 97.7617 101.848V100.881C97.7617 100.796 97.7422 100.633 97.7031 100.393C97.6706 100.152 97.5957 99.9238 97.4785 99.709C97.3483 99.4681 97.1628 99.2598 96.9219 99.084C96.6875 98.9017 96.3522 98.8105 95.916 98.8105C95.6165 98.8105 95.3366 98.8626 95.0762 98.9668C94.8223 99.0645 94.6432 99.1686 94.5391 99.2793C94.5391 99.4095 94.5684 99.6016 94.627 99.8555C94.6921 100.109 94.7246 100.344 94.7246 100.559C94.7246 100.786 94.6204 100.995 94.4121 101.184C94.2103 101.372 93.9271 101.467 93.5625 101.467C93.237 101.467 92.9961 101.353 92.8398 101.125C92.6901 100.891 92.6152 100.63 92.6152 100.344C92.6152 100.044 92.7194 99.7578 92.9277 99.4844C93.1426 99.2109 93.4193 98.9668 93.7578 98.752C94.0508 98.5697 94.4056 98.4167 94.8223 98.293C95.2389 98.1628 95.6458 98.0977 96.043 98.0977C96.5898 98.0977 97.0651 98.1367 97.4688 98.2148C97.8789 98.2865 98.25 98.446 98.582 98.6934C98.9141 98.9342 99.1647 99.263 99.334 99.6797C99.5098 100.09 99.5977 100.62 99.5977 101.271C99.5977 102.202 99.5879 103.029 99.5684 103.752C99.5488 104.468 99.5391 105.253 99.5391 106.105C99.5391 106.359 99.5814 106.561 99.666 106.711C99.7572 106.861 99.8939 106.988 100.076 107.092C100.174 107.15 100.327 107.183 100.535 107.189C100.75 107.196 100.968 107.199 101.189 107.199V107.824ZM97.7812 102.668C97.2279 102.831 96.7428 102.99 96.3262 103.146C95.9095 103.303 95.5221 103.498 95.1641 103.732C94.8385 103.954 94.5814 104.217 94.3926 104.523C94.2038 104.823 94.1094 105.181 94.1094 105.598C94.1094 106.138 94.2493 106.535 94.5293 106.789C94.8158 107.043 95.1771 107.17 95.6133 107.17C96.0755 107.17 96.4824 107.059 96.834 106.838C97.1855 106.61 97.4818 106.343 97.7227 106.037L97.7812 102.668ZM110.72 99.6113C110.72 99.9434 110.638 100.24 110.475 100.5C110.313 100.754 110.062 100.881 109.723 100.881C109.359 100.881 109.079 100.786 108.884 100.598C108.695 100.409 108.6 100.201 108.6 99.9727C108.6 99.8294 108.61 99.6992 108.63 99.582C108.656 99.4648 108.679 99.3477 108.698 99.2305C108.392 99.2305 108.034 99.3542 107.624 99.6016C107.214 99.849 106.865 100.201 106.579 100.656V106.262C106.579 106.49 106.621 106.675 106.706 106.818C106.797 106.962 106.937 107.069 107.126 107.141C107.289 107.206 107.497 107.255 107.751 107.287C108.011 107.32 108.236 107.342 108.425 107.355V108H103.346V107.355C103.496 107.342 103.649 107.329 103.805 107.316C103.968 107.303 104.108 107.277 104.225 107.238C104.408 107.18 104.541 107.079 104.626 106.936C104.717 106.786 104.762 106.594 104.762 106.359V100.412C104.762 100.21 104.714 100.012 104.616 99.8164C104.525 99.6211 104.395 99.4648 104.225 99.3477C104.102 99.2695 103.955 99.2142 103.786 99.1816C103.617 99.1426 103.434 99.1165 103.239 99.1035V98.4688L106.442 98.2539L106.579 98.3906V99.748H106.628C107.031 99.2207 107.481 98.8203 107.975 98.5469C108.47 98.2734 108.923 98.1367 109.333 98.1367C109.743 98.1367 110.075 98.2702 110.329 98.5371C110.589 98.804 110.72 99.1621 110.72 99.6113ZM121.304 105.734C120.901 106.503 120.36 107.115 119.683 107.57C119.006 108.026 118.228 108.254 117.349 108.254C116.574 108.254 115.894 108.117 115.308 107.844C114.729 107.57 114.25 107.199 113.873 106.73C113.495 106.262 113.212 105.715 113.023 105.09C112.841 104.465 112.75 103.804 112.75 103.107C112.75 102.482 112.847 101.87 113.043 101.271C113.244 100.666 113.537 100.122 113.921 99.6406C114.293 99.1784 114.752 98.8073 115.298 98.5273C115.852 98.2409 116.47 98.0977 117.154 98.0977C117.857 98.0977 118.459 98.2083 118.961 98.4297C119.462 98.651 119.869 98.9538 120.181 99.3379C120.481 99.7025 120.702 100.132 120.845 100.627C120.995 101.122 121.07 101.659 121.07 102.238V102.883H114.693C114.693 103.514 114.752 104.087 114.869 104.602C114.992 105.116 115.184 105.568 115.445 105.959C115.699 106.337 116.031 106.636 116.441 106.857C116.851 107.072 117.339 107.18 117.906 107.18C118.485 107.18 118.983 107.046 119.4 106.779C119.823 106.506 120.23 106.018 120.621 105.314L121.304 105.734ZM119.146 102.062C119.146 101.698 119.114 101.307 119.048 100.891C118.99 100.474 118.892 100.126 118.755 99.8457C118.606 99.5462 118.401 99.3021 118.14 99.1133C117.88 98.9245 117.545 98.8301 117.134 98.8301C116.451 98.8301 115.881 99.1165 115.425 99.6895C114.976 100.256 114.732 101.047 114.693 102.062H119.146ZM132.739 107.824C132.433 107.935 132.162 108.023 131.928 108.088C131.7 108.16 131.44 108.195 131.147 108.195C130.639 108.195 130.232 108.078 129.926 107.844C129.627 107.603 129.435 107.255 129.35 106.799H129.291C128.868 107.268 128.412 107.626 127.924 107.873C127.442 108.12 126.86 108.244 126.176 108.244C125.454 108.244 124.858 108.023 124.389 107.58C123.927 107.137 123.696 106.558 123.696 105.842C123.696 105.471 123.748 105.139 123.852 104.846C123.956 104.553 124.112 104.289 124.321 104.055C124.483 103.859 124.698 103.687 124.965 103.537C125.232 103.381 125.483 103.257 125.717 103.166C126.01 103.055 126.603 102.85 127.495 102.551C128.393 102.251 128.998 102.017 129.311 101.848V100.881C129.311 100.796 129.291 100.633 129.252 100.393C129.22 100.152 129.145 99.9238 129.028 99.709C128.898 99.4681 128.712 99.2598 128.471 99.084C128.237 98.9017 127.901 98.8105 127.465 98.8105C127.166 98.8105 126.886 98.8626 126.625 98.9668C126.371 99.0645 126.192 99.1686 126.088 99.2793C126.088 99.4095 126.118 99.6016 126.176 99.8555C126.241 100.109 126.274 100.344 126.274 100.559C126.274 100.786 126.17 100.995 125.961 101.184C125.76 101.372 125.476 101.467 125.112 101.467C124.786 101.467 124.545 101.353 124.389 101.125C124.239 100.891 124.164 100.63 124.164 100.344C124.164 100.044 124.269 99.7578 124.477 99.4844C124.692 99.2109 124.968 98.9668 125.307 98.752C125.6 98.5697 125.955 98.4167 126.371 98.293C126.788 98.1628 127.195 98.0977 127.592 98.0977C128.139 98.0977 128.614 98.1367 129.018 98.2148C129.428 98.2865 129.799 98.446 130.131 98.6934C130.463 98.9342 130.714 99.263 130.883 99.6797C131.059 100.09 131.147 100.62 131.147 101.271C131.147 102.202 131.137 103.029 131.118 103.752C131.098 104.468 131.088 105.253 131.088 106.105C131.088 106.359 131.131 106.561 131.215 106.711C131.306 106.861 131.443 106.988 131.625 107.092C131.723 107.15 131.876 107.183 132.084 107.189C132.299 107.196 132.517 107.199 132.739 107.199V107.824ZM129.33 102.668C128.777 102.831 128.292 102.99 127.875 103.146C127.459 103.303 127.071 103.498 126.713 103.732C126.388 103.954 126.131 104.217 125.942 104.523C125.753 104.823 125.659 105.181 125.659 105.598C125.659 106.138 125.799 106.535 126.079 106.789C126.365 107.043 126.726 107.17 127.162 107.17C127.625 107.17 128.032 107.059 128.383 106.838C128.735 106.61 129.031 106.343 129.272 106.037L129.33 102.668ZM141.253 103.283C141.52 103.518 141.725 103.788 141.868 104.094C142.012 104.4 142.083 104.774 142.083 105.217C142.083 106.109 141.748 106.838 141.077 107.404C140.413 107.971 139.551 108.254 138.489 108.254C137.93 108.254 137.412 108.153 136.937 107.951C136.468 107.749 136.133 107.564 135.931 107.395L135.736 108.029H135.003L134.905 104.68H135.579C135.631 104.934 135.742 105.23 135.911 105.568C136.081 105.907 136.286 106.213 136.527 106.486C136.78 106.773 137.083 107.014 137.435 107.209C137.793 107.404 138.193 107.502 138.636 107.502C139.261 107.502 139.743 107.362 140.081 107.082C140.42 106.796 140.589 106.389 140.589 105.861C140.589 105.588 140.534 105.354 140.423 105.158C140.319 104.956 140.163 104.781 139.954 104.631C139.739 104.481 139.476 104.348 139.163 104.23C138.851 104.107 138.502 103.986 138.118 103.869C137.812 103.778 137.471 103.654 137.093 103.498C136.722 103.335 136.403 103.146 136.136 102.932C135.849 102.704 135.615 102.424 135.433 102.092C135.251 101.76 135.159 101.369 135.159 100.92C135.159 100.132 135.452 99.4648 136.038 98.918C136.624 98.3711 137.409 98.0977 138.392 98.0977C138.769 98.0977 139.154 98.1465 139.544 98.2441C139.941 98.3418 140.264 98.459 140.511 98.5957L140.736 98.0879H141.439L141.585 101.184H140.911C140.775 100.493 140.478 99.9336 140.023 99.5039C139.573 99.0677 139.023 98.8496 138.372 98.8496C137.838 98.8496 137.418 98.9831 137.113 99.25C136.807 99.5169 136.654 99.8392 136.654 100.217C136.654 100.51 136.702 100.754 136.8 100.949C136.904 101.145 137.057 101.311 137.259 101.447C137.454 101.577 137.698 101.701 137.991 101.818C138.291 101.929 138.659 102.056 139.095 102.199C139.525 102.336 139.928 102.495 140.306 102.678C140.69 102.86 141.006 103.062 141.253 103.283Z" fill="#545454"/>
<path d="M99.9526 19.9663L72.9804 0.226256C72.7796 0.0792462 72.5371 0 72.2882 0C72.0393 0 71.7969 0.0792462 71.5961 0.226256L44.6239 19.9663C44.1018 20.3485 43.9882 21.0818 44.3705 21.6041L47.8958 26.4211C47.9867 26.5453 48.1011 26.6504 48.2326 26.7304C48.3641 26.8104 48.5101 26.8637 48.6622 26.8872C48.8143 26.9107 48.9696 26.9041 49.1191 26.8676C49.2686 26.8311 49.4095 26.7655 49.5336 26.6745L50.5975 25.8959V58.828C50.5975 59.4751 51.1222 59.9998 51.7693 59.9998H92.8691C93.5162 59.9998 94.041 59.4751 94.041 58.828V25.9413L95.0429 26.6745C95.1671 26.7655 95.308 26.831 95.4575 26.8675C95.607 26.904 95.7622 26.9106 95.9143 26.8871C96.0664 26.8636 96.2123 26.8103 96.3438 26.7303C96.4753 26.6504 96.5898 26.5453 96.6806 26.4211L100.206 21.6041C100.588 21.0816 100.475 20.3485 99.9526 19.9663ZM91.6972 53.0856H63.9716C63.3245 53.0856 62.7997 53.6103 62.7997 54.2574C62.7997 54.9045 63.3245 55.4293 63.9716 55.4293H91.6972V57.6562H52.9411V25.105H80.3843C81.0314 25.105 81.5562 24.5803 81.5562 23.9332C81.5562 23.2861 81.0314 22.7613 80.3843 22.7613H54.8813L72.2883 10.0213L91.6972 24.226V53.0856ZM95.4814 24.0911L72.9804 7.62348C72.7796 7.47638 72.5372 7.39712 72.2883 7.39719C72.0394 7.39709 71.7969 7.47636 71.5962 7.62348L49.095 24.0911L46.9539 21.1654L72.2884 2.62391L97.6229 21.1654L95.4814 24.0911Z" fill="#F1CDB3"/>
<path d="M85.7555 23.7046C85.7403 23.6295 85.7168 23.5557 85.6875 23.4842C85.6582 23.4139 85.6219 23.3459 85.5797 23.2826C85.5375 23.2184 85.4888 23.1587 85.4344 23.1045C85.2141 22.8855 84.9165 22.7621 84.6059 22.761C84.2977 22.761 83.9953 22.8864 83.7775 23.1045C83.7236 23.1584 83.6744 23.2182 83.6322 23.2826C83.59 23.3459 83.5537 23.4139 83.5244 23.4842C83.4951 23.5557 83.4716 23.6295 83.4576 23.7046C83.4423 23.7796 83.4341 23.8569 83.4341 23.933C83.4341 24.0092 83.4423 24.0866 83.4576 24.1615C83.4716 24.2364 83.4951 24.3103 83.5244 24.3818C83.5537 24.4523 83.59 24.5202 83.6322 24.5835C83.6744 24.648 83.7236 24.7076 83.7775 24.7616C83.8314 24.8155 83.8912 24.8648 83.9556 24.9069C84.0189 24.949 84.0869 24.9855 84.1583 25.0148C84.2287 25.0441 84.3024 25.0675 84.3775 25.0816C84.4525 25.0968 84.5298 25.1049 84.6059 25.1049C84.6821 25.1049 84.7595 25.0968 84.8344 25.0816C84.9096 25.067 84.983 25.0446 85.0535 25.0148C85.125 24.9855 85.193 24.949 85.2563 24.9069C85.3207 24.8648 85.3804 24.8155 85.4344 24.7616C85.4883 24.7077 85.5375 24.648 85.5797 24.5835C85.6219 24.5202 85.6582 24.4523 85.6875 24.3818C85.7168 24.3105 85.7403 24.2365 85.7555 24.1615C85.7707 24.0865 85.7776 24.0092 85.7776 23.933C85.7776 23.8569 85.7706 23.7795 85.7555 23.7046Z" fill="#F1CDB3"/>
<path d="M60.8986 54.0281C60.8836 53.9531 60.8612 53.8797 60.8319 53.809C60.8026 53.7386 60.7661 53.6695 60.724 53.6063C60.6815 53.5423 60.6329 53.4826 60.5788 53.4281C60.5249 53.3742 60.465 53.3262 60.4006 53.2828C60.2726 53.1978 60.1294 53.1385 59.9788 53.1082C59.8276 53.0777 59.6718 53.0777 59.5206 53.1082C59.4467 53.1234 59.3729 53.1457 59.3014 53.175C59.2311 53.2043 59.1631 53.2406 59.0999 53.2828C59.0354 53.325 58.9755 53.3742 58.9217 53.4281C58.8667 53.482 58.8186 53.543 58.7753 53.6063C58.6903 53.7342 58.631 53.8775 58.6008 54.0281C58.5854 54.1043 58.5785 54.1805 58.5785 54.2566C58.578 54.4106 58.6082 54.5632 58.6674 54.7054C58.6967 54.7758 58.7332 54.8438 58.7753 54.9081C58.8186 54.9714 58.8667 55.0312 58.9217 55.0862C58.9756 55.1403 59.0355 55.1895 59.0999 55.2315C59.1631 55.2737 59.2311 55.3101 59.3014 55.3394C59.3729 55.3686 59.4467 55.3909 59.5206 55.4061C59.5967 55.4214 59.6741 55.4296 59.7503 55.4296C59.9818 55.4286 60.2079 55.3598 60.4006 55.2315C60.4649 55.1894 60.5246 55.1407 60.5788 55.0862C60.6327 55.0312 60.6819 54.9715 60.724 54.9081C60.8524 54.7151 60.9213 54.4885 60.922 54.2566C60.922 54.1805 60.9138 54.1042 60.8986 54.0281Z" fill="#F1CDB3"/>
<path d="M86.8447 30.5741C86.8447 29.5803 86.455 28.6476 85.7472 27.9481C85.0462 27.2554 84.0876 26.8676 83.1101 26.876C82.8019 26.8793 82.4954 26.9208 82.1974 26.9997C80.0274 27.5554 77.9072 28.2902 75.8587 29.1966C74.6888 28.9199 73.4906 28.7806 72.2884 28.7813C71.6114 28.7813 70.9285 28.8257 70.258 28.9133C69.7403 28.9816 69.2264 29.0761 68.7183 29.1966C66.6701 28.2903 64.5503 27.5556 62.3806 26.9999C62.3701 26.997 62.3597 26.9942 62.3492 26.9915C61.1958 26.6978 60.0063 26.9619 59.086 27.7171C58.1658 28.472 57.6744 29.5867 57.7376 30.7745C57.8021 31.9938 57.9221 33.2096 58.097 34.418C58.2542 35.5012 58.4549 36.5776 58.6988 37.6446C58.336 38.5729 58.0832 39.5405 57.9456 40.5276C57.8884 40.9397 57.8595 41.3553 57.8591 41.7714C57.8591 47.0173 62.4337 51.2853 68.0568 51.2853H76.5204C79.6026 51.2853 82.4861 50.0035 84.4317 47.7686C86.2147 45.7205 86.9959 43.1486 86.6314 40.5269C86.5529 39.9648 86.4373 39.4085 86.2852 38.8617C86.1699 38.4498 86.0343 38.0438 85.8788 37.6453C86.3946 35.3878 86.716 33.0901 86.8394 30.7777C86.843 30.7091 86.8447 30.6416 86.8447 30.5741ZM84.4988 30.647L84.4985 30.651C84.3761 32.949 84.0461 35.2312 83.5124 37.4697C83.4543 37.7133 83.4758 37.9692 83.5737 38.1997C83.7523 38.6199 83.9037 39.0511 84.0269 39.4907C84.151 39.937 84.2453 40.391 84.3094 40.8497C84.5792 42.7897 83.9946 44.7004 82.6634 46.2296C81.163 47.9529 78.9239 48.9414 76.5198 48.9414H68.0562C63.7256 48.9414 60.2023 45.7249 60.2023 41.7714C60.2023 41.4679 60.224 41.1574 60.2665 40.8496C60.3939 39.938 60.6413 39.0473 61.0023 38.2007C61.1006 37.9699 61.1222 37.7138 61.0641 37.4698C60.7974 36.3508 60.5811 35.2203 60.4159 34.0819C60.2512 32.9439 60.1382 31.799 60.0775 30.6508C60.0543 30.2148 60.2345 29.806 60.5721 29.5289C60.8194 29.326 61.1199 29.2196 61.4291 29.2196C61.5345 29.2196 61.641 29.2319 61.7468 29.2571L61.7701 29.2633C63.9494 29.8194 66.0752 30.5674 68.1225 31.4985C68.3698 31.6112 68.6485 31.6346 68.9111 31.5646C69.4537 31.4199 70.0052 31.3106 70.562 31.2372C71.1312 31.1628 71.712 31.125 72.2877 31.125C73.4355 31.125 74.5714 31.2729 75.6642 31.5646C75.9265 31.6342 76.2049 31.6114 76.452 31.499C78.5066 30.5646 80.6402 29.8145 82.8274 29.2573C82.9275 29.2333 83.03 29.2207 83.1329 29.2196H83.1482C83.4985 29.2196 83.8444 29.3632 84.0992 29.6149C84.2266 29.74 84.3278 29.8892 84.3967 30.0539C84.4657 30.2186 84.501 30.3955 84.5005 30.574C84.5006 30.5983 84.5001 30.6224 84.4988 30.647Z" fill="#F1CDB3"/>
<path d="M74.4862 43.5662C73.9205 43.5662 73.4602 43.1059 73.4602 42.5403C73.4602 41.8932 72.9355 41.3684 72.2883 41.3684C71.6411 41.3684 71.1164 41.8932 71.1164 42.5403V42.5831C71.1164 43.1487 70.6562 43.609 70.0906 43.609C69.4433 43.609 68.9187 44.1338 68.9187 44.7809C68.9187 45.428 69.4433 45.9528 70.0906 45.9528C70.9413 45.9528 71.7192 45.6356 72.3129 45.1135C72.9199 45.6284 73.6902 45.9107 74.4862 45.9099C75.1333 45.9099 75.658 45.3851 75.658 44.738C75.658 44.0908 75.1333 43.5662 74.4862 43.5662Z" fill="#F1CDB3"/>
<path d="M68.1919 38.1664L66.4512 37.3688C66.2981 37.2985 66.1316 37.2621 65.9631 37.2621C65.7947 37.2621 65.6282 37.2985 65.475 37.3688L63.7342 38.1664C63.1458 38.4359 62.8873 39.1314 63.157 39.7198C63.221 39.8597 63.3121 39.9856 63.4248 40.0904C63.5376 40.1951 63.6698 40.2766 63.8141 40.3302C63.9584 40.3838 64.1118 40.4085 64.2655 40.4028C64.4193 40.3971 64.5705 40.3612 64.7104 40.2971L65.963 39.7232L67.2156 40.2971C67.8037 40.5669 68.4995 40.3082 68.7691 39.7198C69.0388 39.1314 68.7802 38.4358 68.1919 38.1664Z" fill="#F1CDB3"/>
<path d="M80.8423 38.1662L79.1016 37.3686C78.9485 37.2983 78.782 37.262 78.6135 37.262C78.4451 37.262 78.2786 37.2983 78.1255 37.3686L76.3847 38.1662C75.7963 38.4357 75.5378 39.1312 75.8075 39.7196C76.0771 40.3083 76.7726 40.5669 77.3609 40.2969L78.6135 39.723L79.8662 40.2969C80.019 40.3672 80.1853 40.4036 80.3535 40.4036C80.7977 40.4036 81.2225 40.1498 81.4196 39.7196C81.6892 39.1312 81.4308 38.4357 80.8423 38.1662Z" fill="#F1CDB3"/>
</svg>
