<svg width="60" height="113" viewBox="0 0 60 113" fill="none" xmlns="http://www.w3.org/2000/svg">
<path d="M19.5867 97.9023H18.9129C18.8543 97.668 18.7469 97.3913 18.5906 97.0723C18.4409 96.7467 18.2716 96.4408 18.0828 96.1543C17.8875 95.8548 17.6727 95.5944 17.4383 95.373C17.2104 95.1452 16.9891 95.015 16.7742 94.9824C16.5724 94.9564 16.3185 94.9368 16.0125 94.9238C15.7065 94.9108 15.4233 94.9043 15.1629 94.9043H14.5965V105.988C14.5965 106.203 14.6421 106.402 14.7332 106.584C14.8243 106.76 14.9839 106.896 15.2117 106.994C15.3289 107.04 15.573 107.102 15.9441 107.18C16.3217 107.258 16.6147 107.3 16.823 107.307V108H10.2801V107.307C10.4624 107.294 10.7391 107.268 11.1102 107.229C11.4878 107.189 11.7482 107.141 11.8914 107.082C12.1063 106.997 12.2625 106.877 12.3602 106.721C12.4643 106.558 12.5164 106.343 12.5164 106.076V94.9043H11.95C11.7482 94.9043 11.4975 94.9108 11.198 94.9238C10.8986 94.9303 10.6121 94.9499 10.3387 94.9824C10.1238 95.0085 9.89922 95.1387 9.66484 95.373C9.43698 95.6009 9.22539 95.8613 9.03008 96.1543C8.83477 96.4473 8.66224 96.7598 8.5125 97.0918C8.36276 97.4173 8.25859 97.6875 8.2 97.9023H7.51641V94.1426H19.5867V97.9023ZM31.0406 103.088C31.0406 103.765 30.9332 104.432 30.7184 105.09C30.5035 105.741 30.1975 106.294 29.8004 106.75C29.3512 107.271 28.8303 107.658 28.2379 107.912C27.6454 108.166 26.9814 108.293 26.2457 108.293C25.6337 108.293 25.051 108.179 24.4977 107.951C23.9443 107.717 23.4527 107.378 23.023 106.936C22.5999 106.499 22.2613 105.969 22.0074 105.344C21.76 104.712 21.6363 104.006 21.6363 103.225C21.6363 101.721 22.0725 100.49 22.9449 99.5332C23.8238 98.5762 24.9729 98.0977 26.3922 98.0977C27.7398 98.0977 28.8499 98.5534 29.7223 99.4648C30.6012 100.37 31.0406 101.577 31.0406 103.088ZM29.0191 103.107C29.0191 102.619 28.9703 102.105 28.8727 101.564C28.775 101.018 28.6285 100.555 28.4332 100.178C28.2249 99.7741 27.9514 99.4518 27.6129 99.2109C27.2743 98.9635 26.8609 98.8398 26.3727 98.8398C25.8714 98.8398 25.4417 98.9635 25.0836 99.2109C24.732 99.4583 24.4456 99.7969 24.2242 100.227C24.0159 100.624 23.8694 101.076 23.7848 101.584C23.7001 102.092 23.6578 102.583 23.6578 103.059C23.6578 103.684 23.7066 104.263 23.8043 104.797C23.9085 105.324 24.0712 105.796 24.2926 106.213C24.5139 106.63 24.7906 106.958 25.1227 107.199C25.4612 107.434 25.8779 107.551 26.3727 107.551C27.1865 107.551 27.831 107.157 28.3063 106.369C28.7815 105.581 29.0191 104.494 29.0191 103.107ZM32.9047 111.145C32.9047 110.819 32.9926 110.552 33.1684 110.344C33.3507 110.142 33.5753 110.041 33.8422 110.041C34.0505 110.041 34.2296 110.08 34.3793 110.158C34.529 110.236 34.6625 110.337 34.7797 110.461C34.8773 110.559 34.9815 110.692 35.0922 110.861C35.2029 111.031 35.2908 111.171 35.3559 111.281C35.6814 111.105 36.0688 110.646 36.518 109.904C36.9737 109.162 37.3025 108.511 37.5043 107.951C36.8858 106.408 36.3259 105.028 35.8246 103.811C35.3233 102.593 34.7992 101.333 34.2523 100.031C34.1286 99.7318 33.9203 99.5007 33.6273 99.3379C33.3344 99.1686 33.0414 99.0612 32.7484 99.0156V98.3711H37.143V99.0547C36.9477 99.0612 36.7133 99.1035 36.4398 99.1816C36.1664 99.2533 36.0297 99.3379 36.0297 99.4355C36.0297 99.4746 36.0427 99.5397 36.0688 99.6309C36.1013 99.722 36.1371 99.8164 36.1762 99.9141C36.4236 100.559 36.8012 101.49 37.309 102.707C37.8168 103.918 38.2107 104.888 38.4906 105.617C38.7836 104.921 39.0863 104.201 39.3988 103.459C39.7178 102.71 40.0727 101.828 40.4633 100.812C40.5089 100.689 40.574 100.52 40.6586 100.305C40.7432 100.083 40.7855 99.8945 40.7855 99.7383C40.7855 99.569 40.6358 99.4128 40.3363 99.2695C40.0434 99.1198 39.7634 99.0286 39.4965 98.9961V98.3711H43.0707V98.9766C42.8754 99.0091 42.6182 99.123 42.2992 99.3184C41.9802 99.5072 41.7426 99.7773 41.5863 100.129C40.8116 101.926 40.1215 103.563 39.516 105.041C38.9171 106.519 38.4613 107.606 38.1488 108.303C37.7387 109.214 37.3708 109.924 37.0453 110.432C36.7263 110.946 36.4138 111.35 36.1078 111.643C35.8083 111.916 35.5349 112.098 35.2875 112.189C35.0466 112.287 34.796 112.336 34.5355 112.336C34.0277 112.336 33.6273 112.215 33.3344 111.975C33.0479 111.734 32.9047 111.457 32.9047 111.145ZM51.0383 103.283C51.3052 103.518 51.5103 103.788 51.6535 104.094C51.7967 104.4 51.8684 104.774 51.8684 105.217C51.8684 106.109 51.5331 106.838 50.8625 107.404C50.1984 107.971 49.3358 108.254 48.2746 108.254C47.7147 108.254 47.1971 108.153 46.7219 107.951C46.2531 107.749 45.9178 107.564 45.716 107.395L45.5207 108.029H44.7883L44.6906 104.68H45.3645C45.4165 104.934 45.5272 105.23 45.6965 105.568C45.8658 105.907 46.0708 106.213 46.3117 106.486C46.5656 106.773 46.8684 107.014 47.2199 107.209C47.578 107.404 47.9784 107.502 48.4211 107.502C49.0461 107.502 49.5279 107.362 49.8664 107.082C50.2049 106.796 50.3742 106.389 50.3742 105.861C50.3742 105.588 50.3189 105.354 50.2082 105.158C50.104 104.956 49.9478 104.781 49.7395 104.631C49.5246 104.481 49.2609 104.348 48.9484 104.23C48.6359 104.107 48.2876 103.986 47.9035 103.869C47.5975 103.778 47.2557 103.654 46.8781 103.498C46.507 103.335 46.188 103.146 45.9211 102.932C45.6346 102.704 45.4003 102.424 45.218 102.092C45.0357 101.76 44.9445 101.369 44.9445 100.92C44.9445 100.132 45.2375 99.4648 45.8234 98.918C46.4094 98.3711 47.1939 98.0977 48.177 98.0977C48.5546 98.0977 48.9387 98.1465 49.3293 98.2441C49.7264 98.3418 50.0487 98.459 50.2961 98.5957L50.5207 98.0879H51.2238L51.3703 101.184H50.6965C50.5598 100.493 50.2635 99.9336 49.8078 99.5039C49.3586 99.0677 48.8085 98.8496 48.1574 98.8496C47.6236 98.8496 47.2036 98.9831 46.8977 99.25C46.5917 99.5169 46.4387 99.8392 46.4387 100.217C46.4387 100.51 46.4875 100.754 46.5852 100.949C46.6893 101.145 46.8423 101.311 47.0441 101.447C47.2395 101.577 47.4836 101.701 47.7766 101.818C48.076 101.929 48.4439 102.056 48.8801 102.199C49.3098 102.336 49.7134 102.495 50.091 102.678C50.4751 102.86 50.7909 103.062 51.0383 103.283Z" fill="#545454"/>
<path d="M51.2132 8.78672C45.5469 3.1207 38.0133 0 30 0C21.9867 0 14.4531 3.1207 8.78684 8.78672C3.12047 14.4531 0 21.9866 0 30C0 38.0134 3.12047 45.5469 8.78684 51.2133C14.4531 56.8793 21.9867 60 30 60C38.0133 60 45.5469 56.8793 51.2132 51.2133C56.8795 45.5469 60 38.0134 60 30C60 21.9866 56.8795 14.4531 51.2132 8.78672ZM10.6314 49.3685C5.90438 44.6415 3.11918 38.4906 2.67352 31.8832C3.39 31.9077 4.1223 31.9755 4.86223 32.0856C10.1654 32.8733 15.5023 35.7234 19.8894 40.1106C24.2766 44.4979 27.1266 49.8346 27.9144 55.1379C28.0223 55.8586 28.0894 56.5849 28.1154 57.3132C21.7419 56.8775 15.4928 54.2298 10.6314 49.3685ZM30.7262 57.3682C30.7013 56.4931 30.6239 55.6203 30.4946 54.7545C29.6251 48.9019 26.5139 43.046 21.7338 38.2659C16.9538 33.4859 11.098 30.3746 5.2452 29.5051C4.37502 29.3751 3.49781 29.2977 2.61832 29.2732C2.64105 28.3972 2.7048 27.5283 2.8084 26.6682C3.73793 26.6987 4.68246 26.7843 5.62863 26.9248C12.0308 27.8757 18.4055 31.2484 23.5785 36.4213C28.7512 41.5939 32.1239 47.9687 33.075 54.3709C33.2133 55.3004 33.2987 56.237 33.3307 57.1763C32.4661 57.2814 31.5969 57.3455 30.7262 57.3682ZM49.3685 49.3685C45.5416 53.1952 40.8551 55.6504 35.9248 56.7348C35.881 55.8152 35.7912 54.8983 35.6557 53.9877C34.6229 47.0358 30.9889 40.1423 25.4234 34.5766C19.8575 29.0109 12.964 25.3772 6.0123 24.3444C5.0982 24.2082 4.17782 24.1182 3.25465 24.0746L3.2475 24.0805C4.35598 19.0238 6.88301 14.3798 10.6315 10.6314C14.2923 6.97055 18.7399 4.56516 23.4349 3.41402C23.4672 4.49215 23.5632 5.56742 23.7224 6.63422C24.755 13.5859 28.3889 20.4795 33.9546 26.0453C39.5203 31.611 46.4139 35.2447 53.3659 36.2775C54.4358 36.4373 55.5143 36.5334 56.5956 36.5653L56.6073 36.5459C55.4323 41.3595 52.9617 45.7754 49.3685 49.3685ZM57.1071 33.966C56.0064 33.955 54.8814 33.8653 53.7492 33.6972C47.3468 32.7461 40.972 29.3735 35.7993 24.2006C30.6265 19.0277 27.2538 12.6531 26.3029 6.25102C26.1354 5.12379 26.0455 4.00371 26.034 2.90824C26.8999 2.78261 27.7712 2.69826 28.6451 2.65547C28.6431 3.70254 28.7214 4.7775 28.8832 5.8677C29.7527 11.7204 32.8641 17.5763 37.6441 22.3562C38.1534 22.8654 38.9794 22.8654 39.4888 22.3562C39.9981 21.8469 39.9981 21.021 39.4888 20.5114C35.1016 16.1243 32.2516 10.7876 31.4638 5.48426C31.3205 4.51898 31.2499 3.57035 31.2521 2.65055C37.8434 2.94937 44.3467 5.60918 49.3688 10.6315C54.2461 15.5088 57.0565 21.902 57.3623 28.7483C56.4367 28.7503 55.4855 28.6804 54.5159 28.5363C53.8035 28.4305 53.1397 28.9225 53.034 29.635C52.9281 30.3476 53.42 31.0109 54.1325 31.1167C55.21 31.2768 56.2729 31.3569 57.3083 31.3569C57.3252 31.3569 57.3417 31.356 57.3586 31.356C57.316 32.2295 57.2321 33.1004 57.1071 33.966Z" fill="#F1CDB3"/>
<path d="M46.1517 25.775C45.8059 25.7756 45.4744 25.9131 45.2296 26.1573C44.9854 26.4021 44.848 26.7336 44.8474 27.0793C44.8474 27.4224 44.9857 27.7589 45.2296 28.0015C45.4721 28.2442 45.8087 28.3836 46.1517 28.3836C46.4947 28.3836 46.8313 28.2442 47.0739 28.0015C47.3176 27.7563 47.4549 27.425 47.456 27.0793C47.456 26.7363 47.3164 26.3998 47.0739 26.1573C46.829 25.9131 46.4975 25.7756 46.1517 25.775Z" fill="#F1CDB3"/>
</svg>
