<svg width="150" height="113" viewBox="0 0 150 113" fill="none" xmlns="http://www.w3.org/2000/svg">
<path d="M12.4637 97.9023H11.7898C11.7312 97.668 11.6238 97.3913 11.4676 97.0723C11.3178 96.7467 11.1486 96.4408 10.9598 96.1543C10.7645 95.8548 10.5496 95.5944 10.3152 95.373C10.0874 95.1452 9.86601 95.015 9.65117 94.9824C9.44935 94.9564 9.19544 94.9368 8.88945 94.9238C8.58346 94.9108 8.30026 94.9043 8.03984 94.9043H7.47343V105.988C7.47343 106.203 7.51901 106.402 7.61015 106.584C7.7013 106.76 7.8608 106.896 8.08867 106.994C8.20586 107.04 8.45 107.102 8.82109 107.18C9.19869 107.258 9.49166 107.3 9.7 107.307V108H3.15703V107.307C3.33932 107.294 3.61601 107.268 3.98711 107.229C4.36471 107.189 4.62513 107.141 4.76836 107.082C4.9832 106.997 5.13945 106.877 5.23711 106.721C5.34127 106.558 5.39336 106.343 5.39336 106.076V94.9043H4.82695C4.62513 94.9043 4.37448 94.9108 4.075 94.9238C3.77552 94.9303 3.48906 94.9499 3.21562 94.9824C3.00078 95.0085 2.77617 95.1387 2.54179 95.373C2.31393 95.6009 2.10234 95.8613 1.90703 96.1543C1.71172 96.4473 1.53919 96.7598 1.38945 97.0918C1.23971 97.4173 1.13554 97.6875 1.07695 97.9023H0.393356V94.1426H12.4637V97.9023ZM21.9059 99.6113C21.9059 99.9434 21.8245 100.24 21.6617 100.5C21.499 100.754 21.2483 100.881 20.9098 100.881C20.5452 100.881 20.2652 100.786 20.0699 100.598C19.8811 100.409 19.7867 100.201 19.7867 99.9727C19.7867 99.8294 19.7965 99.6992 19.816 99.582C19.8421 99.4648 19.8648 99.3477 19.8844 99.2305C19.5784 99.2305 19.2203 99.3542 18.8102 99.6016C18.4 99.849 18.0517 100.201 17.7652 100.656V106.262C17.7652 106.49 17.8075 106.675 17.8922 106.818C17.9833 106.962 18.1233 107.069 18.3121 107.141C18.4749 107.206 18.6832 107.255 18.9371 107.287C19.1975 107.32 19.4221 107.342 19.6109 107.355V108H14.5328V107.355C14.6825 107.342 14.8355 107.329 14.9918 107.316C15.1546 107.303 15.2945 107.277 15.4117 107.238C15.594 107.18 15.7275 107.079 15.8121 106.936C15.9033 106.786 15.9488 106.594 15.9488 106.359V100.412C15.9488 100.21 15.9 100.012 15.8023 99.8164C15.7112 99.6211 15.581 99.4648 15.4117 99.3477C15.288 99.2695 15.1415 99.2142 14.9723 99.1816C14.803 99.1426 14.6207 99.1165 14.4254 99.1035V98.4688L17.6285 98.2539L17.7652 98.3906V99.748H17.8141C18.2177 99.2207 18.6669 98.8203 19.1617 98.5469C19.6565 98.2734 20.109 98.1367 20.5191 98.1367C20.9293 98.1367 21.2613 98.2702 21.5152 98.5371C21.7756 98.804 21.9059 99.1621 21.9059 99.6113ZM33.057 107.824C32.751 107.935 32.4809 108.023 32.2465 108.088C32.0186 108.16 31.7582 108.195 31.4652 108.195C30.9574 108.195 30.5505 108.078 30.2445 107.844C29.945 107.603 29.753 107.255 29.6684 106.799H29.6098C29.1866 107.268 28.7309 107.626 28.2426 107.873C27.7608 108.12 27.1781 108.244 26.4945 108.244C25.7719 108.244 25.1762 108.023 24.7074 107.58C24.2452 107.137 24.0141 106.558 24.0141 105.842C24.0141 105.471 24.0661 105.139 24.1703 104.846C24.2745 104.553 24.4307 104.289 24.6391 104.055C24.8018 103.859 25.0167 103.687 25.2836 103.537C25.5505 103.381 25.8012 103.257 26.0355 103.166C26.3285 103.055 26.921 102.85 27.8129 102.551C28.7113 102.251 29.3168 102.017 29.6293 101.848V100.881C29.6293 100.796 29.6098 100.633 29.5707 100.393C29.5381 100.152 29.4633 99.9238 29.3461 99.709C29.2159 99.4681 29.0303 99.2598 28.7894 99.084C28.5551 98.9017 28.2198 98.8105 27.7836 98.8105C27.4841 98.8105 27.2042 98.8626 26.9437 98.9668C26.6898 99.0645 26.5108 99.1686 26.4066 99.2793C26.4066 99.4095 26.4359 99.6016 26.4945 99.8555C26.5596 100.109 26.5922 100.344 26.5922 100.559C26.5922 100.786 26.488 100.995 26.2797 101.184C26.0779 101.372 25.7947 101.467 25.4301 101.467C25.1046 101.467 24.8637 101.353 24.7074 101.125C24.5577 100.891 24.4828 100.63 24.4828 100.344C24.4828 100.044 24.587 99.7578 24.7953 99.4844C25.0102 99.2109 25.2868 98.9668 25.6254 98.752C25.9184 98.5697 26.2732 98.4167 26.6898 98.293C27.1065 98.1628 27.5134 98.0977 27.9105 98.0977C28.4574 98.0977 28.9327 98.1367 29.3363 98.2148C29.7465 98.2865 30.1176 98.446 30.4496 98.6934C30.7816 98.9342 31.0323 99.263 31.2016 99.6797C31.3773 100.09 31.4652 100.62 31.4652 101.271C31.4652 102.202 31.4555 103.029 31.4359 103.752C31.4164 104.468 31.4066 105.253 31.4066 106.105C31.4066 106.359 31.449 106.561 31.5336 106.711C31.6247 106.861 31.7615 106.988 31.9437 107.092C32.0414 107.15 32.1944 107.183 32.4027 107.189C32.6176 107.196 32.8357 107.199 33.057 107.199V107.824ZM29.6488 102.668C29.0954 102.831 28.6104 102.99 28.1937 103.146C27.7771 103.303 27.3897 103.498 27.0316 103.732C26.7061 103.954 26.449 104.217 26.2602 104.523C26.0714 104.823 25.9769 105.181 25.9769 105.598C25.9769 106.138 26.1169 106.535 26.3969 106.789C26.6833 107.043 27.0447 107.17 27.4809 107.17C27.9431 107.17 28.35 107.059 28.7016 106.838C29.0531 106.61 29.3493 106.343 29.5902 106.037L29.6488 102.668ZM45.8488 108H41.132V107.355C41.2818 107.342 41.4445 107.329 41.6203 107.316C41.8026 107.303 41.9523 107.277 42.0695 107.238C42.2518 107.18 42.3853 107.079 42.4699 106.936C42.5611 106.786 42.6066 106.594 42.6066 106.359V101.408C42.6066 100.725 42.4439 100.197 42.1184 99.8262C41.7993 99.4551 41.4087 99.2695 40.9465 99.2695C40.6014 99.2695 40.2857 99.3249 39.9992 99.4355C39.7128 99.5397 39.4588 99.6699 39.2375 99.8262C39.0227 99.9759 38.8501 100.139 38.7199 100.314C38.5962 100.484 38.5051 100.62 38.4465 100.725V106.262C38.4465 106.483 38.4921 106.665 38.5832 106.809C38.6743 106.952 38.8111 107.062 38.9934 107.141C39.1301 107.206 39.2766 107.255 39.4328 107.287C39.5956 107.32 39.7616 107.342 39.9309 107.355V108H35.2141V107.355C35.3638 107.342 35.5168 107.329 35.673 107.316C35.8358 107.303 35.9758 107.277 36.093 107.238C36.2753 107.18 36.4087 107.079 36.4934 106.936C36.5845 106.786 36.6301 106.594 36.6301 106.359V100.412C36.6301 100.191 36.5812 99.9889 36.4836 99.8066C36.3924 99.6178 36.2622 99.4648 36.093 99.3477C35.9693 99.2695 35.8228 99.2142 35.6535 99.1816C35.4842 99.1426 35.3019 99.1165 35.1066 99.1035V98.4688L38.3098 98.2539L38.4465 98.3906V99.748H38.4953C38.6516 99.5918 38.8469 99.4062 39.0812 99.1914C39.3156 98.9701 39.537 98.791 39.7453 98.6543C39.9862 98.498 40.2727 98.3678 40.6047 98.2637C40.9367 98.1595 41.3111 98.1074 41.7277 98.1074C42.6522 98.1074 43.3358 98.3971 43.7785 98.9766C44.2277 99.5495 44.4523 100.314 44.4523 101.271V106.281C44.4523 106.509 44.4914 106.695 44.5695 106.838C44.6477 106.975 44.7811 107.082 44.9699 107.16C45.1262 107.225 45.2596 107.271 45.3703 107.297C45.4875 107.323 45.647 107.342 45.8488 107.355V108ZM54.5879 103.283C54.8548 103.518 55.0599 103.788 55.2031 104.094C55.3464 104.4 55.418 104.774 55.418 105.217C55.418 106.109 55.0827 106.838 54.4121 107.404C53.748 107.971 52.8854 108.254 51.8242 108.254C51.2643 108.254 50.7467 108.153 50.2715 107.951C49.8027 107.749 49.4674 107.564 49.2656 107.395L49.0703 108.029H48.3379L48.2402 104.68H48.9141C48.9661 104.934 49.0768 105.23 49.2461 105.568C49.4154 105.907 49.6204 106.213 49.8613 106.486C50.1152 106.773 50.418 107.014 50.7695 107.209C51.1276 107.404 51.528 107.502 51.9707 107.502C52.5957 107.502 53.0775 107.362 53.416 107.082C53.7546 106.796 53.9238 106.389 53.9238 105.861C53.9238 105.588 53.8685 105.354 53.7578 105.158C53.6536 104.956 53.4974 104.781 53.2891 104.631C53.0742 104.481 52.8105 104.348 52.498 104.23C52.1855 104.107 51.8372 103.986 51.4531 103.869C51.1471 103.778 50.8053 103.654 50.4277 103.498C50.0566 103.335 49.7376 103.146 49.4707 102.932C49.1842 102.704 48.9499 102.424 48.7676 102.092C48.5853 101.76 48.4941 101.369 48.4941 100.92C48.4941 100.132 48.7871 99.4648 49.373 98.918C49.959 98.3711 50.7435 98.0977 51.7266 98.0977C52.1042 98.0977 52.4883 98.1465 52.8789 98.2441C53.276 98.3418 53.5983 98.459 53.8457 98.5957L54.0703 98.0879H54.7734L54.9199 101.184H54.2461C54.1094 100.493 53.8131 99.9336 53.3574 99.5039C52.9082 99.0677 52.3581 98.8496 51.707 98.8496C51.1732 98.8496 50.7533 98.9831 50.4473 99.25C50.1413 99.5169 49.9883 99.8392 49.9883 100.217C49.9883 100.51 50.0371 100.754 50.1348 100.949C50.2389 101.145 50.3919 101.311 50.5937 101.447C50.7891 101.577 51.0332 101.701 51.3262 101.818C51.6256 101.929 51.9935 102.056 52.4297 102.199C52.8594 102.336 53.263 102.495 53.6406 102.678C54.0247 102.86 54.3405 103.062 54.5879 103.283ZM66.8816 99.5137C67.2658 99.9694 67.562 100.5 67.7703 101.105C67.9852 101.704 68.0926 102.391 68.0926 103.166C68.0926 103.928 67.9656 104.624 67.7117 105.256C67.4578 105.881 67.1225 106.415 66.7059 106.857C66.2697 107.307 65.7846 107.652 65.2508 107.893C64.7169 108.133 64.1505 108.254 63.5516 108.254C62.9721 108.254 62.4969 108.189 62.1258 108.059C61.7547 107.928 61.452 107.775 61.2176 107.6H61.1395V110.49C61.1395 110.725 61.185 110.92 61.2762 111.076C61.3673 111.232 61.5073 111.346 61.6961 111.418C61.8523 111.477 62.0737 111.532 62.3602 111.584C62.6531 111.643 62.894 111.675 63.0828 111.682V112.336H57.702V111.682C57.9038 111.669 58.0991 111.652 58.2879 111.633C58.4767 111.613 58.646 111.581 58.7957 111.535C58.991 111.47 59.1277 111.356 59.2059 111.193C59.284 111.031 59.323 110.839 59.323 110.617V100.373C59.323 100.178 59.2742 99.9889 59.1766 99.8066C59.0789 99.6243 58.952 99.4779 58.7957 99.3672C58.6785 99.2891 58.5158 99.2305 58.3074 99.1914C58.0991 99.1458 57.8973 99.1165 57.702 99.1035V98.4688L60.9832 98.2539L61.1199 98.3711V99.4551L61.198 99.4746C61.5366 99.084 61.9565 98.7585 62.4578 98.498C62.9591 98.2376 63.4572 98.1074 63.952 98.1074C64.5509 98.1074 65.0978 98.2344 65.5926 98.4883C66.0939 98.7422 66.5236 99.084 66.8816 99.5137ZM65.2898 106.438C65.5503 106.034 65.7423 105.565 65.866 105.031C65.9897 104.497 66.0516 103.902 66.0516 103.244C66.0516 102.762 65.9995 102.271 65.8953 101.77C65.7911 101.268 65.6284 100.832 65.407 100.461C65.1857 100.083 64.896 99.7773 64.5379 99.543C64.1798 99.3086 63.7501 99.1914 63.2488 99.1914C62.7671 99.1914 62.3569 99.2988 62.0184 99.5137C61.6798 99.722 61.3868 99.9727 61.1395 100.266V105.959C61.198 106.135 61.2924 106.317 61.4227 106.506C61.5594 106.695 61.7091 106.857 61.8719 106.994C62.0737 107.157 62.2918 107.29 62.5262 107.395C62.7605 107.492 63.047 107.541 63.3855 107.541C63.7501 107.541 64.1017 107.447 64.4402 107.258C64.7788 107.062 65.062 106.789 65.2898 106.438ZM80.0934 103.088C80.0934 103.765 79.9859 104.432 79.7711 105.09C79.5562 105.741 79.2503 106.294 78.8531 106.75C78.4039 107.271 77.8831 107.658 77.2906 107.912C76.6982 108.166 76.0341 108.293 75.2984 108.293C74.6865 108.293 74.1038 108.179 73.5504 107.951C72.997 107.717 72.5055 107.378 72.0758 106.936C71.6526 106.499 71.3141 105.969 71.0602 105.344C70.8128 104.712 70.6891 104.006 70.6891 103.225C70.6891 101.721 71.1253 100.49 71.9977 99.5332C72.8766 98.5762 74.0256 98.0977 75.4449 98.0977C76.7926 98.0977 77.9026 98.5534 78.775 99.4648C79.6539 100.37 80.0934 101.577 80.0934 103.088ZM78.0719 103.107C78.0719 102.619 78.023 102.105 77.9254 101.564C77.8277 101.018 77.6812 100.555 77.4859 100.178C77.2776 99.7741 77.0042 99.4518 76.6656 99.2109C76.3271 98.9635 75.9137 98.8398 75.4254 98.8398C74.9241 98.8398 74.4944 98.9635 74.1363 99.2109C73.7848 99.4583 73.4983 99.7969 73.2769 100.227C73.0686 100.624 72.9221 101.076 72.8375 101.584C72.7529 102.092 72.7105 102.583 72.7105 103.059C72.7105 103.684 72.7594 104.263 72.857 104.797C72.9612 105.324 73.124 105.796 73.3453 106.213C73.5667 106.63 73.8434 106.958 74.1754 107.199C74.5139 107.434 74.9306 107.551 75.4254 107.551C76.2392 107.551 76.8837 107.157 77.359 106.369C77.8342 105.581 78.0719 104.494 78.0719 103.107ZM90.0629 99.6113C90.0629 99.9434 89.9815 100.24 89.8187 100.5C89.656 100.754 89.4053 100.881 89.0668 100.881C88.7022 100.881 88.4223 100.786 88.227 100.598C88.0381 100.409 87.9437 100.201 87.9437 99.9727C87.9437 99.8294 87.9535 99.6992 87.973 99.582C87.9991 99.4648 88.0219 99.3477 88.0414 99.2305C87.7354 99.2305 87.3773 99.3542 86.9672 99.6016C86.557 99.849 86.2087 100.201 85.9223 100.656V106.262C85.9223 106.49 85.9646 106.675 86.0492 106.818C86.1404 106.962 86.2803 107.069 86.4691 107.141C86.6319 107.206 86.8402 107.255 87.0941 107.287C87.3546 107.32 87.5792 107.342 87.768 107.355V108H82.6898V107.355C82.8396 107.342 82.9926 107.329 83.1488 107.316C83.3116 107.303 83.4516 107.277 83.5687 107.238C83.751 107.18 83.8845 107.079 83.9691 106.936C84.0603 106.786 84.1059 106.594 84.1059 106.359V100.412C84.1059 100.21 84.057 100.012 83.9594 99.8164C83.8682 99.6211 83.738 99.4648 83.5687 99.3477C83.4451 99.2695 83.2986 99.2142 83.1293 99.1816C82.96 99.1426 82.7777 99.1165 82.5824 99.1035V98.4688L85.7855 98.2539L85.9223 98.3906V99.748H85.9711C86.3747 99.2207 86.824 98.8203 87.3187 98.5469C87.8135 98.2734 88.266 98.1367 88.6762 98.1367C89.0863 98.1367 89.4184 98.2702 89.6723 98.5371C89.9327 98.804 90.0629 99.1621 90.0629 99.6113ZM98.0402 107.58C97.6171 107.756 97.2167 107.902 96.8391 108.02C96.4615 108.143 95.9992 108.205 95.4523 108.205C94.645 108.205 94.0754 108.003 93.7434 107.6C93.4178 107.189 93.2551 106.613 93.2551 105.871V99.3477H91.5168V98.4102H93.2941V95.4121H95.0715V98.4102H97.8352V99.3477H95.091V104.729C95.091 105.132 95.104 105.471 95.1301 105.744C95.1626 106.011 95.2342 106.245 95.3449 106.447C95.4491 106.636 95.6053 106.779 95.8137 106.877C96.022 106.975 96.3019 107.023 96.6535 107.023C96.8163 107.023 97.0539 107.01 97.3664 106.984C97.6854 106.952 97.91 106.913 98.0402 106.867V107.58ZM109.328 107.824C109.022 107.935 108.752 108.023 108.518 108.088C108.29 108.16 108.029 108.195 107.736 108.195C107.229 108.195 106.822 108.078 106.516 107.844C106.216 107.603 106.024 107.255 105.939 106.799H105.881C105.458 107.268 105.002 107.626 104.514 107.873C104.032 108.12 103.449 108.244 102.766 108.244C102.043 108.244 101.447 108.023 100.979 107.58C100.516 107.137 100.285 106.558 100.285 105.842C100.285 105.471 100.337 105.139 100.441 104.846C100.546 104.553 100.702 104.289 100.91 104.055C101.073 103.859 101.288 103.687 101.555 103.537C101.822 103.381 102.072 103.257 102.307 103.166C102.6 103.055 103.192 102.85 104.084 102.551C104.982 102.251 105.588 102.017 105.9 101.848V100.881C105.9 100.796 105.881 100.633 105.842 100.393C105.809 100.152 105.734 99.9238 105.617 99.709C105.487 99.4681 105.301 99.2598 105.061 99.084C104.826 98.9017 104.491 98.8105 104.055 98.8105C103.755 98.8105 103.475 98.8626 103.215 98.9668C102.961 99.0645 102.782 99.1686 102.678 99.2793C102.678 99.4095 102.707 99.6016 102.766 99.8555C102.831 100.109 102.863 100.344 102.863 100.559C102.863 100.786 102.759 100.995 102.551 101.184C102.349 101.372 102.066 101.467 101.701 101.467C101.376 101.467 101.135 101.353 100.979 101.125C100.829 100.891 100.754 100.63 100.754 100.344C100.754 100.044 100.858 99.7578 101.066 99.4844C101.281 99.2109 101.558 98.9668 101.896 98.752C102.189 98.5697 102.544 98.4167 102.961 98.293C103.378 98.1628 103.785 98.0977 104.182 98.0977C104.729 98.0977 105.204 98.1367 105.607 98.2148C106.018 98.2865 106.389 98.446 106.721 98.6934C107.053 98.9342 107.303 99.263 107.473 99.6797C107.648 100.09 107.736 100.62 107.736 101.271C107.736 102.202 107.727 103.029 107.707 103.752C107.688 104.468 107.678 105.253 107.678 106.105C107.678 106.359 107.72 106.561 107.805 106.711C107.896 106.861 108.033 106.988 108.215 107.092C108.312 107.15 108.465 107.183 108.674 107.189C108.889 107.196 109.107 107.199 109.328 107.199V107.824ZM105.92 102.668C105.367 102.831 104.882 102.99 104.465 103.146C104.048 103.303 103.661 103.498 103.303 103.732C102.977 103.954 102.72 104.217 102.531 104.523C102.342 104.823 102.248 105.181 102.248 105.598C102.248 106.138 102.388 106.535 102.668 106.789C102.954 107.043 103.316 107.17 103.752 107.17C104.214 107.17 104.621 107.059 104.973 106.838C105.324 106.61 105.62 106.343 105.861 106.037L105.92 102.668ZM117.432 107.58C117.009 107.756 116.609 107.902 116.231 108.02C115.854 108.143 115.391 108.205 114.845 108.205C114.037 108.205 113.468 108.003 113.136 107.6C112.81 107.189 112.647 106.613 112.647 105.871V99.3477H110.909V98.4102H112.686V95.4121H114.464V98.4102H117.227V99.3477H114.483V104.729C114.483 105.132 114.496 105.471 114.522 105.744C114.555 106.011 114.626 106.245 114.737 106.447C114.841 106.636 114.998 106.779 115.206 106.877C115.414 106.975 115.694 107.023 116.046 107.023C116.208 107.023 116.446 107.01 116.759 106.984C117.078 106.952 117.302 106.913 117.432 106.867V107.58ZM124.277 108H119.619V107.355C119.768 107.342 119.921 107.329 120.078 107.316C120.24 107.303 120.38 107.277 120.498 107.238C120.68 107.18 120.813 107.079 120.898 106.936C120.989 106.786 121.035 106.594 121.035 106.359V100.412C121.035 100.204 120.986 100.015 120.888 99.8457C120.797 99.6699 120.667 99.5234 120.498 99.4062C120.374 99.3281 120.195 99.263 119.961 99.2109C119.726 99.1523 119.511 99.1165 119.316 99.1035V98.4688L122.714 98.2539L122.851 98.3906V106.242C122.851 106.47 122.893 106.659 122.978 106.809C123.069 106.958 123.209 107.069 123.398 107.141C123.541 107.199 123.681 107.248 123.818 107.287C123.955 107.32 124.108 107.342 124.277 107.355V108ZM123.046 94.4551C123.046 94.8262 122.923 95.1517 122.675 95.4316C122.434 95.7051 122.135 95.8418 121.777 95.8418C121.445 95.8418 121.155 95.7116 120.908 95.4512C120.667 95.1842 120.546 94.8815 120.546 94.543C120.546 94.1849 120.667 93.8724 120.908 93.6055C121.155 93.3385 121.445 93.2051 121.777 93.2051C122.148 93.2051 122.451 93.332 122.685 93.5859C122.926 93.8333 123.046 94.123 123.046 94.4551ZM136.043 103.088C136.043 103.765 135.936 104.432 135.721 105.09C135.506 105.741 135.2 106.294 134.803 106.75C134.354 107.271 133.833 107.658 133.241 107.912C132.648 108.166 131.984 108.293 131.248 108.293C130.636 108.293 130.054 108.179 129.5 107.951C128.947 107.717 128.455 107.378 128.026 106.936C127.603 106.499 127.264 105.969 127.01 105.344C126.763 104.712 126.639 104.006 126.639 103.225C126.639 101.721 127.075 100.49 127.948 99.5332C128.827 98.5762 129.976 98.0977 131.395 98.0977C132.743 98.0977 133.853 98.5534 134.725 99.4648C135.604 100.37 136.043 101.577 136.043 103.088ZM134.022 103.107C134.022 102.619 133.973 102.105 133.875 101.564C133.778 101.018 133.631 100.555 133.436 100.178C133.228 99.7741 132.954 99.4518 132.616 99.2109C132.277 98.9635 131.864 98.8398 131.375 98.8398C130.874 98.8398 130.444 98.9635 130.086 99.2109C129.735 99.4583 129.448 99.7969 129.227 100.227C129.019 100.624 128.872 101.076 128.787 101.584C128.703 102.092 128.661 102.583 128.661 103.059C128.661 103.684 128.709 104.263 128.807 104.797C128.911 105.324 129.074 105.796 129.295 106.213C129.517 106.63 129.793 106.958 130.125 107.199C130.464 107.434 130.881 107.551 131.375 107.551C132.189 107.551 132.834 107.157 133.309 106.369C133.784 105.581 134.022 104.494 134.022 103.107ZM149.275 108H144.558V107.355C144.708 107.342 144.87 107.329 145.046 107.316C145.228 107.303 145.378 107.277 145.495 107.238C145.678 107.18 145.811 107.079 145.896 106.936C145.987 106.786 146.032 106.594 146.032 106.359V101.408C146.032 100.725 145.87 100.197 145.544 99.8262C145.225 99.4551 144.835 99.2695 144.372 99.2695C144.027 99.2695 143.711 99.3249 143.425 99.4355C143.139 99.5397 142.885 99.6699 142.663 99.8262C142.448 99.9759 142.276 100.139 142.146 100.314C142.022 100.484 141.931 100.62 141.872 100.725V106.262C141.872 106.483 141.918 106.665 142.009 106.809C142.1 106.952 142.237 107.062 142.419 107.141C142.556 107.206 142.702 107.255 142.859 107.287C143.021 107.32 143.187 107.342 143.357 107.355V108H138.64V107.355C138.79 107.342 138.943 107.329 139.099 107.316C139.262 107.303 139.402 107.277 139.519 107.238C139.701 107.18 139.835 107.079 139.919 106.936C140.01 106.786 140.056 106.594 140.056 106.359V100.412C140.056 100.191 140.007 99.9889 139.909 99.8066C139.818 99.6178 139.688 99.4648 139.519 99.3477C139.395 99.2695 139.249 99.2142 139.079 99.1816C138.91 99.1426 138.728 99.1165 138.532 99.1035V98.4688L141.736 98.2539L141.872 98.3906V99.748H141.921C142.077 99.5918 142.273 99.4062 142.507 99.1914C142.741 98.9701 142.963 98.791 143.171 98.6543C143.412 98.498 143.698 98.3678 144.03 98.2637C144.363 98.1595 144.737 98.1074 145.154 98.1074C146.078 98.1074 146.762 98.3971 147.204 98.9766C147.654 99.5495 147.878 100.314 147.878 101.271V106.281C147.878 106.509 147.917 106.695 147.995 106.838C148.073 106.975 148.207 107.082 148.396 107.16C148.552 107.225 148.685 107.271 148.796 107.297C148.913 107.323 149.073 107.342 149.275 107.355V108Z" fill="#545454"/>
<path d="M100.004 12.7115H92.9814V12.5095C92.9814 8.87665 90.026 5.92118 86.3932 5.92118C82.7603 5.92118 79.8049 8.87665 79.8049 12.5095V12.7115H71.5571C68.8414 12.7115 66.6321 14.9209 66.6321 17.6365V23.2009H59.2458C57.4838 23.2009 55.9176 24.2562 55.2558 25.8893C55.2462 25.9133 55.2373 25.9375 55.2291 25.962L50.9681 38.8689C50.9294 38.8919 50.8801 38.9191 50.8187 38.9498C50.575 39.0714 50.1193 39.2568 49.3351 39.4484C48.0906 39.7499 46.9839 40.4616 46.1932 41.4688C45.4026 42.4759 44.974 43.72 44.9765 45.0004V51.0987C44.9765 53.1406 46.6376 54.8018 48.6795 54.8018L53.9037 54.802C54.4553 57.7562 57.0514 59.9999 60.1632 59.9999C63.2749 59.9999 65.8709 57.7561 66.4226 54.8021L84.8472 54.8024C85.3989 57.7564 87.9949 59.9999 91.1066 59.9999C94.2181 59.9999 96.8141 57.7565 97.3659 54.8026L100.684 54.8027C103.223 54.8027 104.929 53.0963 104.929 50.5568V20.08C104.929 13.4295 101.485 12.7115 100.004 12.7115ZM82.1486 12.5095C82.1486 10.169 84.0527 8.26493 86.3932 8.26493C88.7336 8.26493 90.6377 10.169 90.6377 12.5095V12.7115H82.1486V12.5095ZM57.4413 26.7379C57.591 26.3833 57.8422 26.0809 58.1632 25.8686C58.4842 25.6563 58.8609 25.5436 59.2457 25.5447H66.6319V38.8266H53.4502L57.4413 26.7379ZM60.1632 57.6562C57.9435 57.6562 56.1377 55.8504 56.1377 53.6307C56.1377 53.6033 56.1392 53.5762 56.1398 53.5488C56.1406 53.5069 56.1408 53.465 56.143 53.4234C56.1433 53.4168 56.1441 53.4104 56.1445 53.4038C56.2626 51.2894 58.02 49.6052 60.1632 49.6052C62.1026 49.6052 63.7262 50.9841 64.105 52.8129L64.1067 52.82C64.1194 52.882 64.1305 52.9445 64.1403 53.0076L64.1422 53.018C64.1492 53.0638 64.1544 53.1101 64.1598 53.1564C64.1622 53.1775 64.1656 53.1983 64.1677 53.2194C64.1714 53.2554 64.1734 53.2921 64.176 53.3285C64.1784 53.3602 64.1817 53.3916 64.1833 53.4235C64.185 53.4563 64.185 53.4896 64.1858 53.5226C64.1867 53.5586 64.1885 53.5944 64.1885 53.6306C64.1887 55.8504 62.3828 57.6562 60.1632 57.6562ZM91.1066 57.6562C88.8869 57.6562 87.081 55.8504 87.081 53.6307C87.081 53.5783 87.083 53.5263 87.085 53.4743C87.0856 53.4576 87.0855 53.4405 87.0863 53.4238C87.0883 53.3852 87.0921 53.3471 87.0951 53.3088C87.0975 53.2791 87.0989 53.2491 87.1019 53.2196C87.1032 53.207 87.1053 53.1947 87.1066 53.1823C87.1202 53.06 87.1386 52.939 87.163 52.8203C87.1637 52.8168 87.1646 52.8134 87.1654 52.8099C87.5455 50.9826 89.168 49.6053 91.1066 49.6053C91.6614 49.6053 92.1905 49.7181 92.6719 49.9222C94.1163 50.5341 95.1319 51.966 95.1319 53.6308C95.1319 55.8504 93.3262 57.6562 91.1066 57.6562ZM100.684 52.4588L97.3678 52.4587C97.3639 52.4379 97.3589 52.4175 97.3548 52.3968C97.3272 52.2591 97.2954 52.1222 97.2595 51.9864C97.2435 51.927 97.2267 51.8679 97.209 51.809C97.198 51.7724 97.1872 51.7358 97.1757 51.6994C97.156 51.6382 97.1353 51.5772 97.1137 51.5166C97.1022 51.4842 97.0913 51.4513 97.0793 51.4191C97.0531 51.3492 97.0257 51.2799 96.997 51.211C96.988 51.1892 96.9798 51.1669 96.9705 51.1452C96.9318 51.0542 96.891 50.9641 96.8482 50.875C96.8428 50.8639 96.8369 50.8532 96.8315 50.8422C96.7941 50.7656 96.7552 50.6897 96.7148 50.6146C96.6999 50.5871 96.6841 50.5602 96.6689 50.5329C96.6367 50.4749 96.6036 50.4175 96.5696 50.3606C96.5511 50.3297 96.5319 50.2995 96.5128 50.2689C96.4605 50.1846 96.4061 50.1016 96.3495 50.0201C96.2939 49.9395 96.2365 49.8602 96.1773 49.7821C96.1403 49.7337 96.1026 49.6858 96.0643 49.6385C96.0414 49.6102 96.0189 49.5819 95.9956 49.554C95.9539 49.5043 95.9114 49.4553 95.8682 49.4069C95.8469 49.383 95.8262 49.3585 95.8045 49.3349C95.7507 49.2763 95.6958 49.2188 95.6398 49.1623C95.6278 49.1501 95.6163 49.1374 95.6041 49.1253C95.535 49.0563 95.4644 48.989 95.3922 48.9233C95.3769 48.9092 95.3608 48.896 95.3452 48.882C95.2887 48.8315 95.2316 48.7815 95.1732 48.7329C95.1476 48.7116 95.1213 48.6912 95.0954 48.6704C95.046 48.6304 94.996 48.5911 94.9455 48.5525C94.9157 48.53 94.8856 48.5081 94.8555 48.4861C94.7281 48.3927 94.5972 48.3043 94.463 48.221C94.4302 48.2004 94.3973 48.1802 94.364 48.1602C94.3121 48.1292 94.2596 48.0993 94.2068 48.0698C94.1743 48.0516 94.1419 48.0331 94.1091 48.0155C94.0517 47.9847 93.9935 47.9553 93.935 47.9262C93.9059 47.9117 93.8772 47.8966 93.8479 47.8826C93.7713 47.8461 93.694 47.8111 93.616 47.7776C93.6041 47.7725 93.5923 47.7667 93.5803 47.7616C93.4896 47.7233 93.398 47.6871 93.3056 47.6531C93.2792 47.6433 93.2524 47.6348 93.2258 47.6254C93.1594 47.602 93.093 47.5789 93.0257 47.5575C92.9905 47.5464 92.9548 47.5363 92.9193 47.5258C92.8597 47.5081 92.7999 47.4906 92.7396 47.4746C92.7009 47.4643 92.662 47.4549 92.623 47.4453C92.5245 47.421 92.4254 47.3992 92.3259 47.3798C92.2669 47.3684 92.2078 47.3578 92.1485 47.348C92.1078 47.3413 92.0671 47.3345 92.0262 47.3287C91.9646 47.3199 91.9028 47.3121 91.841 47.3051C91.8017 47.3006 91.7626 47.2956 91.7231 47.2919C91.6545 47.2856 91.5859 47.2803 91.5172 47.2762C91.4835 47.2741 91.4503 47.271 91.4165 47.2694C91.3132 47.2643 91.2098 47.2617 91.1064 47.2615C91.0025 47.2615 90.8991 47.2645 90.7964 47.2694C90.7626 47.271 90.7292 47.2741 90.6956 47.2762C90.6268 47.2806 90.5581 47.2853 90.4899 47.2919C90.4503 47.2958 90.4112 47.3007 90.3718 47.3052C90.3099 47.3124 90.2482 47.3199 90.1869 47.3288C90.1459 47.3348 90.105 47.3415 90.0642 47.3483C89.9641 47.3649 89.8644 47.3838 89.7651 47.4049C89.7068 47.4175 89.6486 47.431 89.5906 47.4453C89.5512 47.4549 89.512 47.4645 89.473 47.4748C89.4132 47.4906 89.354 47.5079 89.295 47.5254C89.2589 47.5362 89.2225 47.5464 89.1867 47.5578C89.121 47.5788 89.0556 47.601 88.9906 47.6242C88.9627 47.6341 88.9345 47.6431 88.9067 47.6534C88.8146 47.6874 88.7234 47.7233 88.6334 47.7613C88.6185 47.7677 88.604 47.7747 88.5891 47.7812C88.514 47.8136 88.4395 47.847 88.3659 47.8822C88.3348 47.897 88.3045 47.913 88.2737 47.9283C88.2172 47.9566 88.1607 47.9849 88.1051 48.0147C88.0708 48.0331 88.0369 48.0524 88.003 48.0715C87.9518 48.1001 87.901 48.1293 87.8506 48.1592C87.7321 48.2304 87.6158 48.3051 87.5019 48.3833C87.4545 48.416 87.4076 48.4494 87.3611 48.4835C87.3291 48.5068 87.297 48.53 87.2655 48.5539C87.2173 48.5904 87.1701 48.6281 87.123 48.6659C87.0946 48.6888 87.0659 48.711 87.0379 48.7343C86.9838 48.7795 86.9308 48.826 86.8782 48.8727C86.8586 48.8901 86.8386 48.9069 86.8193 48.9244C86.7481 48.9892 86.6785 49.0556 86.6104 49.1235C86.5932 49.1406 86.5769 49.1587 86.5598 49.176C86.5093 49.2276 86.4591 49.2795 86.4103 49.3328C86.3859 49.3595 86.3623 49.387 86.3384 49.414C86.2982 49.4594 86.2583 49.5049 86.2194 49.5514C86.1941 49.5817 86.1694 49.6126 86.1447 49.6434C86.1086 49.6881 86.073 49.7331 86.0381 49.7788C85.9544 49.889 85.8742 50.0018 85.7975 50.1169C85.7655 50.165 85.7346 50.2137 85.704 50.2627C85.683 50.2962 85.6618 50.3296 85.6415 50.3635C85.6099 50.4161 85.5796 50.4695 85.5496 50.5232C85.5321 50.5545 85.5139 50.5854 85.4968 50.6172C85.4607 50.684 85.4264 50.752 85.3927 50.8202C85.3832 50.8394 85.373 50.858 85.3638 50.8774C85.3216 50.965 85.2815 51.0536 85.2434 51.143C85.2318 51.1703 85.2214 51.1982 85.2102 51.2258C85.1843 51.2889 85.1587 51.3523 85.1348 51.4165C85.1214 51.4524 85.1094 51.4887 85.0966 51.5247C85.0764 51.5817 85.057 51.6389 85.0384 51.6964C85.0258 51.7355 85.0142 51.7751 85.0024 51.8146C84.9736 51.911 84.9471 52.008 84.923 52.1056C84.9091 52.162 84.8961 52.2187 84.8837 52.2758C84.8746 52.3171 84.8657 52.3585 84.8575 52.4001C84.8537 52.4198 84.8489 52.4391 84.8452 52.4588L66.4241 52.4585C66.4202 52.4382 66.4154 52.4181 66.4114 52.3979C66.4035 52.3578 66.3949 52.3181 66.3863 52.2783C66.3523 52.1215 66.3122 51.9659 66.2662 51.8122C66.2548 51.774 66.2435 51.7358 66.2314 51.6978C66.2124 51.6389 66.1926 51.5804 66.1719 51.5221C66.1596 51.4872 66.1477 51.452 66.1348 51.4174C66.1104 51.3522 66.0848 51.2875 66.0581 51.2232C66.0473 51.1967 66.0372 51.1697 66.026 51.1435C65.9878 51.0538 65.9476 50.965 65.9053 50.8771C65.8967 50.8594 65.8873 50.8423 65.8787 50.8247C65.8444 50.7548 65.8089 50.6855 65.772 50.6169C65.7554 50.5859 65.7376 50.5556 65.7203 50.525C65.6899 50.4707 65.6593 50.4166 65.6273 50.3634C65.6071 50.3297 65.5862 50.2968 65.5654 50.2636C65.5347 50.2143 65.5034 50.1654 65.4713 50.1169C65.3946 50.0019 65.3144 49.8893 65.2309 49.7792C65.196 49.7335 65.1604 49.6885 65.1243 49.6438C65.0995 49.613 65.0748 49.582 65.0494 49.5516C65.0105 49.5055 64.971 49.4598 64.9309 49.4147C64.9067 49.3876 64.883 49.3599 64.8585 49.3331C64.8103 49.2803 64.7606 49.2289 64.7105 49.1778C64.693 49.1599 64.6762 49.1413 64.6584 49.1238C64.5904 49.0559 64.5209 48.9897 64.4499 48.925C64.4302 48.907 64.4096 48.89 64.3897 48.8722C64.3376 48.8255 64.2848 48.7798 64.2312 48.7349C64.2029 48.7114 64.1738 48.6888 64.1451 48.6657C64.0985 48.6282 64.0516 48.5908 64.0038 48.5546C63.972 48.5304 63.9397 48.5071 63.9075 48.4836C63.8612 48.4497 63.8145 48.4165 63.7674 48.3838C63.6868 48.3285 63.6049 48.2749 63.5219 48.2232C63.4875 48.2016 63.4528 48.1803 63.418 48.1594C63.3679 48.1296 63.3174 48.1006 63.2666 48.0722C63.2323 48.053 63.1982 48.0336 63.1635 48.0151C63.1082 47.9856 63.0525 47.957 62.9963 47.9293C62.9651 47.9137 62.9343 47.8975 62.9028 47.8824C62.8301 47.8478 62.7567 47.8146 62.6827 47.7827C62.6669 47.7758 62.6514 47.7683 62.6355 47.7615C62.5454 47.7234 62.4544 47.6875 62.3626 47.6536C62.3343 47.6432 62.3056 47.6341 62.2771 47.624C62.2127 47.601 62.1478 47.579 62.0826 47.558C62.0465 47.5465 62.0098 47.5362 61.9734 47.5254C61.9146 47.5078 61.8556 47.491 61.7963 47.4751C61.7571 47.4646 61.7176 47.455 61.6781 47.4454C61.5217 47.4067 61.3639 47.3743 61.2049 47.3484C61.1641 47.3417 61.1233 47.3349 61.0822 47.3289C61.0206 47.3202 60.9589 47.3123 60.8971 47.3054C60.8579 47.3008 60.8187 47.2959 60.7792 47.292C60.7107 47.2857 60.6421 47.2805 60.5734 47.2763C60.5397 47.2742 60.5064 47.2711 60.4727 47.2695C60.3694 47.2644 60.266 47.2618 60.1626 47.2617C60.0587 47.2617 59.9554 47.2646 59.8525 47.2695C59.8188 47.2711 59.7854 47.2742 59.7517 47.2763C59.683 47.2808 59.6143 47.2854 59.5461 47.292C59.5065 47.2959 59.4672 47.3008 59.4278 47.3054C59.3662 47.3123 59.3046 47.3202 59.2432 47.3289C59.2019 47.3349 59.161 47.3417 59.1201 47.3484C59.02 47.3648 58.9203 47.3837 58.8212 47.405C58.763 47.4175 58.7053 47.431 58.6476 47.4452C58.6079 47.4549 58.568 47.4646 58.5287 47.4751C58.4698 47.4909 58.4112 47.5076 58.3529 47.5251C58.3161 47.536 58.2791 47.5465 58.2425 47.558C58.178 47.5784 58.1143 47.6007 58.0507 47.6231C58.0212 47.6334 57.9916 47.6429 57.9624 47.6536C57.8708 47.6875 57.7801 47.7231 57.6905 47.761C57.6724 47.7687 57.6547 47.7773 57.6366 47.7851C57.565 47.8162 57.4938 47.8481 57.4235 47.8817C57.3907 47.8974 57.3585 47.9143 57.326 47.9306C57.2712 47.9577 57.2168 47.9855 57.1628 48.0142C57.1272 48.0333 57.0922 48.0534 57.0569 48.0732C57.0072 48.1011 56.9576 48.1292 56.9088 48.1585C56.8252 48.2086 56.7427 48.2604 56.6614 48.3141C56.6262 48.3373 56.5913 48.3608 56.5566 48.3847C56.5107 48.4163 56.4655 48.4488 56.4203 48.4816C56.3869 48.506 56.3533 48.5302 56.3204 48.5553C56.2743 48.5903 56.2291 48.6263 56.184 48.6625C56.1536 48.6869 56.1229 48.7107 56.0932 48.7356C56.0424 48.7778 55.993 48.8214 55.9436 48.8651C55.9207 48.8854 55.8972 48.9051 55.8745 48.9257C55.8043 48.9898 55.7355 49.0554 55.6681 49.1225C55.6473 49.1433 55.6273 49.1651 55.6067 49.1862C55.56 49.2342 55.5134 49.2822 55.4682 49.3315C55.4418 49.3602 55.4165 49.3899 55.3907 49.4191C55.3525 49.4623 55.3144 49.5056 55.2775 49.5499C55.2508 49.5817 55.2248 49.6143 55.1988 49.6468C55.1641 49.6897 55.13 49.7331 55.0965 49.777C55.0376 49.8544 54.9804 49.9332 54.925 50.0132C54.9007 50.0482 54.8767 50.0835 54.8531 50.1189C54.8223 50.1653 54.7925 50.2123 54.7628 50.2594C54.7408 50.2946 54.7187 50.3295 54.6973 50.3651C54.667 50.4156 54.638 50.467 54.6091 50.5183C54.5903 50.5517 54.571 50.5847 54.5527 50.6185C54.519 50.6817 54.4863 50.7454 54.4546 50.8097C54.4432 50.8327 54.431 50.8552 54.4198 50.8784C54.3781 50.9651 54.3384 51.0529 54.3005 51.1417C54.2876 51.172 54.2762 51.2028 54.2637 51.2333C54.2391 51.2936 54.2146 51.354 54.1919 51.4151C54.178 51.4525 54.1653 51.4904 54.1521 51.5281C54.1326 51.5835 54.1134 51.639 54.0955 51.695C54.0826 51.7352 54.0706 51.7757 54.0585 51.8163C54.0423 51.871 54.0264 51.9258 54.0116 51.9811C53.9855 52.0781 53.9618 52.1757 53.9407 52.2739C53.9315 52.3161 53.9224 52.3581 53.9141 52.4007C53.9103 52.4199 53.9056 52.4389 53.902 52.4581H48.6795C47.93 52.4581 47.3203 51.8484 47.3203 51.0987V45.0004C47.3187 44.2451 47.5715 43.5113 48.0378 42.9171C48.5042 42.323 49.157 41.9032 49.8911 41.7254C50.559 41.5621 51.1326 41.376 51.601 41.1705H94.1626C94.8097 41.1705 95.3344 40.6458 95.3344 39.9986C95.3344 39.3515 94.8097 38.8267 94.1626 38.8267H68.9758V17.6365C68.9758 16.2133 70.1339 15.0552 71.5571 15.0552H100.004C102.25 15.0552 102.586 18.2034 102.586 20.08V50.5567C102.586 52.2118 101.394 52.4588 100.684 52.4588Z" fill="#F1CDB3"/>
<path d="M95.4371 24.8147C95.4372 23.2763 94.3567 21.9863 92.9149 21.6615C92.9226 21.5806 92.9287 21.4992 92.9311 21.4169C92.9579 20.4633 92.6017 19.5567 91.9282 18.864C91.2432 18.1596 90.2866 17.7557 89.3034 17.7557C88.1154 17.7557 87.0573 18.3338 86.3948 19.2239C85.7328 18.3338 84.6738 17.7557 83.4831 17.7557C82.5086 17.7557 81.5586 18.1544 80.8767 18.8498C80.1995 19.5402 79.8367 20.4483 79.8552 21.4064C79.8568 21.4923 79.8627 21.5773 79.8703 21.6618C78.4291 21.987 77.3492 23.2766 77.3492 24.8147C77.3492 26.1163 78.1229 27.2399 79.2341 27.7519C78.4513 28.7206 77.9945 29.9464 77.9945 31.2423C77.9945 34.3028 80.4843 36.7927 83.5448 36.7927C84.5529 36.7927 85.537 36.5172 86.3932 36.0051C87.254 36.5202 88.2384 36.7924 89.2415 36.7927C92.302 36.7927 94.7919 34.3028 94.7919 31.2423C94.7919 29.9462 94.3351 28.7206 93.5523 27.7519C94.6636 27.2399 95.4371 26.1163 95.4371 24.8147ZM89.3034 20.0996C89.6574 20.0996 90.0016 20.2448 90.2478 20.4979C90.4762 20.7328 90.597 21.0357 90.5883 21.3508C90.568 22.0692 89.9856 22.6602 89.2898 22.6682C89.1034 22.668 88.9191 22.6279 88.7495 22.5505C88.7285 22.5408 88.7079 22.5304 88.6868 22.5209C88.58 22.4646 88.4823 22.3927 88.3966 22.3077C88.1518 22.0648 88.0177 21.7384 88.0191 21.3885C88.022 20.6778 88.5982 20.0996 89.3034 20.0996ZM82.5498 20.491C82.6712 20.3665 82.8163 20.2677 82.9766 20.2005C83.1369 20.1332 83.3091 20.0988 83.4829 20.0994C84.1903 20.0994 84.7664 20.6762 84.7672 21.3851C84.7681 21.5579 84.7343 21.7291 84.6678 21.8885C84.6013 22.048 84.5035 22.1925 84.3801 22.3135C84.2964 22.3959 84.2013 22.466 84.0978 22.5217C84.0595 22.5391 84.0221 22.5577 83.9843 22.5758C83.8315 22.6389 83.6675 22.6704 83.5023 22.6683C82.7969 22.6567 82.212 22.0704 82.1983 21.3613C82.192 21.0374 82.3169 20.7285 82.5498 20.491ZM79.693 24.8148C79.6929 24.3245 80.0918 23.9257 80.5818 23.9257C81.0722 23.9257 81.4709 24.3245 81.4709 24.8148C81.4709 24.9155 81.4534 25.0118 81.4224 25.1022C81.3931 25.1611 81.3649 25.2207 81.3377 25.2808C81.1809 25.5341 80.9012 25.7038 80.582 25.7038C80.0918 25.7038 79.693 25.305 79.693 24.8148ZM89.2415 34.4492C88.4765 34.4489 87.7368 34.175 87.1561 33.6769C86.9438 33.4945 86.6731 33.3943 86.3932 33.3946C86.1133 33.3944 85.8426 33.4946 85.6303 33.6769C85.0496 34.175 84.3099 34.4489 83.5448 34.4492C81.7767 34.4492 80.3382 33.0107 80.3382 31.2426C80.3382 29.9023 81.1833 28.6919 82.4409 28.2307C82.6472 28.1551 82.8281 28.023 82.9629 27.8495C83.0977 27.676 83.181 27.4681 83.2033 27.2495C83.2362 26.9273 83.3176 26.6118 83.4447 26.3139C83.4865 26.2346 83.5256 26.1537 83.5608 26.0707C83.8716 25.4851 84.3571 25.0108 84.9498 24.7136C85.0008 24.6912 85.0511 24.6676 85.1011 24.6428C85.5085 24.4648 85.9485 24.3731 86.3932 24.3737C86.8513 24.3737 87.2875 24.4692 87.6828 24.6417C87.7327 24.6665 87.7831 24.6899 87.8341 24.7123C88.4279 25.0094 88.9143 25.4843 89.2256 26.0707C89.2608 26.1537 89.2999 26.2346 89.3416 26.3139C89.4688 26.6118 89.5502 26.9273 89.583 27.2495C89.6053 27.4681 89.6886 27.676 89.8235 27.8495C89.9583 28.023 90.1391 28.1551 90.3454 28.2307C91.6031 28.692 92.4481 29.9023 92.4481 31.2426C92.4481 33.0106 91.0097 34.4492 89.2415 34.4492ZM92.2045 25.7038C91.8853 25.7038 91.6056 25.5341 91.4488 25.2808C91.4216 25.2208 91.3933 25.1612 91.364 25.1022C91.3321 25.0097 91.3157 24.9126 91.3155 24.8148C91.3155 24.3245 91.7143 23.9257 92.2046 23.9257C92.6948 23.9257 93.0936 24.3245 93.0936 24.8148C93.0935 25.3049 92.6947 25.7038 92.2045 25.7038Z" fill="#F1CDB3"/>
<path d="M100.019 39.7758C100.004 39.7007 99.9819 39.6273 99.9526 39.5566C99.9234 39.4857 99.8873 39.4178 99.8448 39.3539C99.8026 39.2897 99.7539 39.23 99.6995 39.1758C99.6452 39.1214 99.5856 39.0727 99.5214 39.0305C99.3933 38.9457 99.25 38.8864 99.0995 38.8559C98.9487 38.8254 98.7933 38.8254 98.6425 38.8559C98.5675 38.8712 98.4936 38.8934 98.4221 38.9227C98.3518 38.952 98.2839 38.9884 98.2206 39.0305C98.1561 39.0727 98.0964 39.1219 98.0425 39.1758C97.9884 39.2297 97.9392 39.2895 97.896 39.3539C97.8538 39.4172 97.8173 39.4852 97.7893 39.5566C97.76 39.627 97.7366 39.7008 97.7225 39.7758C97.7073 39.8508 97.6991 39.9281 97.6991 40.0043C97.6991 40.0803 97.7073 40.1578 97.7225 40.234C97.7366 40.3078 97.76 40.3816 97.7893 40.4531C97.8186 40.5234 97.855 40.5914 97.8971 40.6547C97.9392 40.7191 97.9884 40.7789 98.0425 40.8328C98.0964 40.8867 98.1561 40.9359 98.2206 40.9793C98.2839 41.0215 98.3518 41.0566 98.4221 41.0859C98.4936 41.1152 98.5675 41.1387 98.6425 41.1527C98.7176 41.168 98.7949 41.1762 98.871 41.1762C98.9471 41.1762 99.0246 41.168 99.0995 41.1527C99.1745 41.1387 99.2483 41.1152 99.3186 41.0859C99.3901 41.0566 99.4581 41.0215 99.5214 40.9793C99.5859 40.9359 99.6457 40.8867 99.6995 40.8328C99.7534 40.7789 99.8026 40.7191 99.8448 40.6547C99.8869 40.5914 99.9233 40.5234 99.9526 40.4531C99.9819 40.3816 100.004 40.3078 100.019 40.234C100.035 40.1578 100.043 40.0803 100.043 40.0043C100.043 39.9281 100.035 39.8508 100.019 39.7758Z" fill="#F1CDB3"/>
<path d="M86.3932 0C85.7461 0 85.2213 0.524648 85.2213 1.17188V3.13359C85.2213 3.78082 85.7461 4.30547 86.3932 4.30547C87.0404 4.30547 87.565 3.7807 87.565 3.13359V1.17188C87.565 0.524648 87.0404 0 86.3932 0Z" fill="#F1CDB3"/>
<path d="M81.4562 4.55659L79.8205 3.27234C79.6995 3.1773 79.5609 3.10703 79.4127 3.06555C79.2645 3.02407 79.1096 3.01218 78.9568 3.03057C78.804 3.04896 78.6563 3.09727 78.5222 3.17273C78.3881 3.24819 78.2701 3.34934 78.1751 3.47038C77.7755 3.97944 77.8642 4.71608 78.3731 5.11569L80.0088 6.39995C80.2149 6.56221 80.4695 6.65035 80.7318 6.65015C80.9095 6.65039 81.0849 6.61017 81.2447 6.53253C81.4046 6.45488 81.5446 6.34186 81.6543 6.20202C82.054 5.69284 81.9653 4.9562 81.4562 4.55659Z" fill="#F1CDB3"/>
<path d="M94.6113 3.47021C94.2117 2.96115 93.4752 2.87244 92.9659 3.27216L91.3302 4.55642C90.8211 4.95603 90.7324 5.69267 91.1321 6.20185C91.2417 6.34177 91.3818 6.45487 91.5416 6.53254C91.7015 6.61021 91.8769 6.65042 92.0546 6.6501C92.3169 6.65028 92.5716 6.56214 92.7776 6.3999L94.4133 5.11564C94.9224 4.71603 95.0111 3.97939 94.6113 3.47021Z" fill="#F1CDB3"/>
</svg>
