<svg width="90" height="113" viewBox="0 0 90 113" fill="none" xmlns="http://www.w3.org/2000/svg">
<path d="M14.1113 94.8359C13.9421 94.8424 13.737 94.8815 13.4961 94.9531C13.2552 95.0182 13.0566 95.0996 12.9004 95.1973C12.679 95.334 12.5 95.5098 12.3633 95.7246C12.2331 95.9395 12.1029 96.1934 11.9727 96.4863C11.5365 97.5215 10.8822 99.1361 10.0098 101.33C9.13737 103.518 8.23893 105.799 7.31445 108.176H6.5039C5.5664 105.656 4.66145 103.228 3.78906 100.891C2.91666 98.5534 2.32421 96.9746 2.01171 96.1543C1.93359 95.9525 1.82942 95.7767 1.69921 95.627C1.56901 95.4707 1.39648 95.3242 1.18164 95.1875C1.00586 95.0768 0.810543 94.9954 0.595699 94.9434C0.380856 94.8848 0.182288 94.849 -3.8147e-06 94.8359V94.1426H5.73242V94.8359C5.24414 94.862 4.83073 94.9108 4.49218 94.9824C4.16015 95.054 3.99414 95.181 3.99414 95.3633C3.99414 95.4349 4.00716 95.5195 4.0332 95.6172C4.05924 95.7148 4.08203 95.793 4.10156 95.8516C4.34244 96.4896 4.73307 97.5312 5.27343 98.9766C5.8138 100.415 6.58203 102.466 7.57812 105.129C8.07291 103.924 8.64257 102.502 9.28711 100.861C9.93164 99.2207 10.3646 98.0944 10.5859 97.4824C10.8008 96.89 10.9245 96.4798 10.957 96.252C10.9961 96.0241 11.0156 95.8385 11.0156 95.6953C11.0156 95.5456 10.9473 95.4219 10.8105 95.3242C10.6803 95.2201 10.5046 95.1322 10.2832 95.0605C10.0684 94.9954 9.85026 94.9466 9.6289 94.9141C9.40755 94.8815 9.18294 94.8555 8.95507 94.8359V94.1426H14.1113V94.8359ZM20.2918 108H15.6336V107.355C15.7833 107.342 15.9363 107.329 16.0926 107.316C16.2553 107.303 16.3953 107.277 16.5125 107.238C16.6948 107.18 16.8283 107.079 16.9129 106.936C17.004 106.786 17.0496 106.594 17.0496 106.359V100.412C17.0496 100.204 17.0008 100.015 16.9031 99.8457C16.812 99.6699 16.6818 99.5234 16.5125 99.4062C16.3888 99.3281 16.2098 99.263 15.9754 99.2109C15.741 99.1523 15.5262 99.1165 15.3309 99.1035V98.4688L18.7293 98.2539L18.866 98.3906V106.242C18.866 106.47 18.9083 106.659 18.993 106.809C19.0841 106.958 19.2241 107.069 19.4129 107.141C19.5561 107.199 19.6961 107.248 19.8328 107.287C19.9695 107.32 20.1225 107.342 20.2918 107.355V108ZM19.0613 94.4551C19.0613 94.8262 18.9376 95.1517 18.6902 95.4316C18.4493 95.7051 18.1499 95.8418 17.7918 95.8418C17.4598 95.8418 17.17 95.7116 16.9227 95.4512C16.6818 95.1842 16.5613 94.8815 16.5613 94.543C16.5613 94.1849 16.6818 93.8724 16.9227 93.6055C17.17 93.3385 17.4598 93.2051 17.7918 93.2051C18.1629 93.2051 18.4656 93.332 18.7 93.5859C18.9409 93.8333 19.0613 94.123 19.0613 94.4551ZM28.6207 107.58C28.1975 107.756 27.7971 107.902 27.4195 108.02C27.0419 108.143 26.5797 108.205 26.0328 108.205C25.2255 108.205 24.6559 108.003 24.3238 107.6C23.9983 107.189 23.8355 106.613 23.8355 105.871V99.3477H22.0973V98.4102H23.8746V95.4121H25.6519V98.4102H28.4156V99.3477H25.6715V104.729C25.6715 105.132 25.6845 105.471 25.7105 105.744C25.7431 106.011 25.8147 106.245 25.9254 106.447C26.0296 106.636 26.1858 106.779 26.3941 106.877C26.6025 106.975 26.8824 107.023 27.234 107.023C27.3967 107.023 27.6344 107.01 27.9469 106.984C28.2659 106.952 28.4905 106.913 28.6207 106.867V107.58ZM39.9086 107.824C39.6026 107.935 39.3324 108.023 39.098 108.088C38.8702 108.16 38.6098 108.195 38.3168 108.195C37.809 108.195 37.4021 108.078 37.0961 107.844C36.7966 107.603 36.6046 107.255 36.5199 106.799H36.4613C36.0381 107.268 35.5824 107.626 35.0941 107.873C34.6124 108.12 34.0297 108.244 33.3461 108.244C32.6234 108.244 32.0277 108.023 31.559 107.58C31.0967 107.137 30.8656 106.558 30.8656 105.842C30.8656 105.471 30.9177 105.139 31.0219 104.846C31.126 104.553 31.2823 104.289 31.4906 104.055C31.6534 103.859 31.8682 103.687 32.1352 103.537C32.4021 103.381 32.6527 103.257 32.8871 103.166C33.1801 103.055 33.7725 102.85 34.6644 102.551C35.5629 102.251 36.1684 102.017 36.4809 101.848V100.881C36.4809 100.796 36.4613 100.633 36.4223 100.393C36.3897 100.152 36.3148 99.9238 36.1977 99.709C36.0674 99.4681 35.8819 99.2598 35.641 99.084C35.4066 98.9017 35.0714 98.8105 34.6352 98.8105C34.3357 98.8105 34.0557 98.8626 33.7953 98.9668C33.5414 99.0645 33.3624 99.1686 33.2582 99.2793C33.2582 99.4095 33.2875 99.6016 33.3461 99.8555C33.4112 100.109 33.4437 100.344 33.4437 100.559C33.4437 100.786 33.3396 100.995 33.1312 101.184C32.9294 101.372 32.6462 101.467 32.2816 101.467C31.9561 101.467 31.7152 101.353 31.559 101.125C31.4092 100.891 31.3344 100.63 31.3344 100.344C31.3344 100.044 31.4385 99.7578 31.6469 99.4844C31.8617 99.2109 32.1384 98.9668 32.4769 98.752C32.7699 98.5697 33.1247 98.4167 33.5414 98.293C33.9581 98.1628 34.365 98.0977 34.7621 98.0977C35.309 98.0977 35.7842 98.1367 36.1879 98.2148C36.598 98.2865 36.9691 98.446 37.3012 98.6934C37.6332 98.9342 37.8839 99.263 38.0531 99.6797C38.2289 100.09 38.3168 100.62 38.3168 101.271C38.3168 102.202 38.307 103.029 38.2875 103.752C38.268 104.468 38.2582 105.253 38.2582 106.105C38.2582 106.359 38.3005 106.561 38.3852 106.711C38.4763 106.861 38.613 106.988 38.7953 107.092C38.893 107.15 39.046 107.183 39.2543 107.189C39.4691 107.196 39.6872 107.199 39.9086 107.199V107.824ZM36.5004 102.668C35.947 102.831 35.462 102.99 35.0453 103.146C34.6286 103.303 34.2413 103.498 33.8832 103.732C33.5577 103.954 33.3005 104.217 33.1117 104.523C32.9229 104.823 32.8285 105.181 32.8285 105.598C32.8285 106.138 32.9685 106.535 33.2484 106.789C33.5349 107.043 33.8962 107.17 34.3324 107.17C34.7947 107.17 35.2016 107.059 35.5531 106.838C35.9047 106.61 36.2009 106.343 36.4418 106.037L36.5004 102.668ZM58.5598 108H53.8625V107.355C54.0122 107.342 54.162 107.329 54.3117 107.316C54.468 107.303 54.6047 107.277 54.7219 107.238C54.9042 107.18 55.0376 107.079 55.1223 106.936C55.2134 106.786 55.259 106.594 55.259 106.359V101.389C55.259 100.712 55.1027 100.191 54.7902 99.8262C54.4842 99.4551 54.1001 99.2695 53.6379 99.2695C53.3189 99.2695 53.0194 99.3184 52.7394 99.416C52.4595 99.5137 52.2023 99.6504 51.968 99.8262C51.7792 99.9694 51.6197 100.126 51.4894 100.295C51.3658 100.458 51.2713 100.594 51.2062 100.705V106.262C51.2062 106.49 51.2453 106.678 51.3234 106.828C51.4016 106.971 51.535 107.082 51.7238 107.16C51.8736 107.219 52.007 107.264 52.1242 107.297C52.2479 107.323 52.4074 107.342 52.6027 107.355V108H48.0031V107.355C48.1529 107.342 48.2961 107.329 48.4328 107.316C48.576 107.303 48.7062 107.277 48.8234 107.238C49.0057 107.18 49.1392 107.079 49.2238 106.936C49.315 106.786 49.3605 106.594 49.3605 106.359V101.389C49.3605 100.712 49.2043 100.191 48.8918 99.8262C48.5858 99.4551 48.2017 99.2695 47.7394 99.2695C47.4204 99.2695 47.121 99.3216 46.841 99.4258C46.5611 99.5234 46.3039 99.6602 46.0695 99.8359C45.8807 99.9792 45.7212 100.142 45.591 100.324C45.4608 100.5 45.3631 100.633 45.298 100.725V106.242C45.298 106.464 45.3436 106.649 45.4348 106.799C45.5259 106.949 45.6626 107.062 45.8449 107.141C45.9816 107.206 46.1216 107.255 46.2648 107.287C46.4081 107.32 46.5676 107.342 46.7434 107.355V108H42.0656V107.355C42.2154 107.342 42.3684 107.329 42.5246 107.316C42.6874 107.303 42.8273 107.277 42.9445 107.238C43.1268 107.18 43.2603 107.079 43.3449 106.936C43.4361 106.786 43.4816 106.594 43.4816 106.359V100.373C43.4816 100.165 43.4328 99.9792 43.3352 99.8164C43.244 99.6471 43.1138 99.5039 42.9445 99.3867C42.8208 99.3086 42.6678 99.2467 42.4855 99.2012C42.3033 99.1491 42.1144 99.1165 41.9191 99.1035V98.4688L45.1418 98.2539L45.2785 98.3906V99.7676H45.3469C45.5096 99.6048 45.7082 99.4128 45.9426 99.1914C46.1769 98.9701 46.395 98.791 46.5969 98.6543C46.8247 98.498 47.1079 98.3678 47.4465 98.2637C47.7915 98.1595 48.1626 98.1074 48.5598 98.1074C49.1848 98.1074 49.7219 98.2767 50.1711 98.6152C50.6203 98.9473 50.9426 99.3509 51.1379 99.8262C51.3723 99.5983 51.5773 99.3997 51.7531 99.2305C51.9354 99.0547 52.173 98.8691 52.466 98.6738C52.7134 98.5046 53.0031 98.3678 53.3352 98.2637C53.6737 98.1595 54.048 98.1074 54.4582 98.1074C55.272 98.1074 55.9165 98.3743 56.3918 98.9082C56.8671 99.4421 57.1047 100.262 57.1047 101.369V106.262C57.1047 106.49 57.1437 106.678 57.2219 106.828C57.3 106.971 57.4335 107.082 57.6223 107.16C57.772 107.219 57.9185 107.264 58.0617 107.297C58.2115 107.323 58.3775 107.342 58.5598 107.355V108ZM65.5605 108H60.9023V107.355C61.0521 107.342 61.2051 107.329 61.3613 107.316C61.5241 107.303 61.6641 107.277 61.7812 107.238C61.9635 107.18 62.097 107.079 62.1816 106.936C62.2728 106.786 62.3184 106.594 62.3184 106.359V100.412C62.3184 100.204 62.2695 100.015 62.1719 99.8457C62.0807 99.6699 61.9505 99.5234 61.7812 99.4062C61.6575 99.3281 61.4785 99.263 61.2441 99.2109C61.0098 99.1523 60.7949 99.1165 60.5996 99.1035V98.4688L63.998 98.2539L64.1348 98.3906V106.242C64.1348 106.47 64.1771 106.659 64.2617 106.809C64.3529 106.958 64.4928 107.069 64.6816 107.141C64.8249 107.199 64.9648 107.248 65.1016 107.287C65.2383 107.32 65.3913 107.342 65.5605 107.355V108ZM64.3301 94.4551C64.3301 94.8262 64.2064 95.1517 63.959 95.4316C63.7181 95.7051 63.4186 95.8418 63.0605 95.8418C62.7285 95.8418 62.4388 95.7116 62.1914 95.4512C61.9505 95.1842 61.8301 94.8815 61.8301 94.543C61.8301 94.1849 61.9505 93.8724 62.1914 93.6055C62.4388 93.3385 62.7285 93.2051 63.0605 93.2051C63.4316 93.2051 63.7344 93.332 63.9687 93.5859C64.2096 93.8333 64.3301 94.123 64.3301 94.4551ZM78.577 108H73.8602V107.355C74.0099 107.342 74.1727 107.329 74.3484 107.316C74.5307 107.303 74.6805 107.277 74.7977 107.238C74.9799 107.18 75.1134 107.079 75.198 106.936C75.2892 106.786 75.3348 106.594 75.3348 106.359V101.408C75.3348 100.725 75.172 100.197 74.8465 99.8262C74.5275 99.4551 74.1368 99.2695 73.6746 99.2695C73.3296 99.2695 73.0138 99.3249 72.7273 99.4355C72.4409 99.5397 72.187 99.6699 71.9656 99.8262C71.7508 99.9759 71.5783 100.139 71.448 100.314C71.3243 100.484 71.2332 100.62 71.1746 100.725V106.262C71.1746 106.483 71.2202 106.665 71.3113 106.809C71.4025 106.952 71.5392 107.062 71.7215 107.141C71.8582 107.206 72.0047 107.255 72.1609 107.287C72.3237 107.32 72.4897 107.342 72.659 107.355V108H67.9422V107.355C68.0919 107.342 68.2449 107.329 68.4012 107.316C68.5639 107.303 68.7039 107.277 68.8211 107.238C69.0034 107.18 69.1368 107.079 69.2215 106.936C69.3126 106.786 69.3582 106.594 69.3582 106.359V100.412C69.3582 100.191 69.3094 99.9889 69.2117 99.8066C69.1206 99.6178 68.9904 99.4648 68.8211 99.3477C68.6974 99.2695 68.5509 99.2142 68.3816 99.1816C68.2124 99.1426 68.0301 99.1165 67.8348 99.1035V98.4688L71.0379 98.2539L71.1746 98.3906V99.748H71.2234C71.3797 99.5918 71.575 99.4062 71.8094 99.1914C72.0437 98.9701 72.2651 98.791 72.4734 98.6543C72.7143 98.498 73.0008 98.3678 73.3328 98.2637C73.6648 98.1595 74.0392 98.1074 74.4559 98.1074C75.3803 98.1074 76.0639 98.3971 76.5066 98.9766C76.9559 99.5495 77.1805 100.314 77.1805 101.271V106.281C77.1805 106.509 77.2195 106.695 77.2977 106.838C77.3758 106.975 77.5092 107.082 77.698 107.16C77.8543 107.225 77.9878 107.271 78.0984 107.297C78.2156 107.323 78.3751 107.342 78.577 107.355V108ZM87.316 103.283C87.5829 103.518 87.788 103.788 87.9312 104.094C88.0745 104.4 88.1461 104.774 88.1461 105.217C88.1461 106.109 87.8108 106.838 87.1402 107.404C86.4762 107.971 85.6135 108.254 84.5523 108.254C83.9924 108.254 83.4749 108.153 82.9996 107.951C82.5309 107.749 82.1956 107.564 81.9937 107.395L81.7984 108.029H81.066L80.9684 104.68H81.6422C81.6943 104.934 81.8049 105.23 81.9742 105.568C82.1435 105.907 82.3486 106.213 82.5894 106.486C82.8434 106.773 83.1461 107.014 83.4977 107.209C83.8557 107.404 84.2561 107.502 84.6988 107.502C85.3238 107.502 85.8056 107.362 86.1441 107.082C86.4827 106.796 86.6519 106.389 86.6519 105.861C86.6519 105.588 86.5966 105.354 86.4859 105.158C86.3818 104.956 86.2255 104.781 86.0172 104.631C85.8023 104.481 85.5387 104.348 85.2262 104.23C84.9137 104.107 84.5654 103.986 84.1812 103.869C83.8753 103.778 83.5335 103.654 83.1559 103.498C82.7848 103.335 82.4657 103.146 82.1988 102.932C81.9124 102.704 81.678 102.424 81.4957 102.092C81.3134 101.76 81.2223 101.369 81.2223 100.92C81.2223 100.132 81.5152 99.4648 82.1012 98.918C82.6871 98.3711 83.4716 98.0977 84.4547 98.0977C84.8323 98.0977 85.2164 98.1465 85.607 98.2441C86.0042 98.3418 86.3264 98.459 86.5738 98.5957L86.7984 98.0879H87.5016L87.648 101.184H86.9742C86.8375 100.493 86.5413 99.9336 86.0855 99.5039C85.6363 99.0677 85.0862 98.8496 84.4352 98.8496C83.9013 98.8496 83.4814 98.9831 83.1754 99.25C82.8694 99.5169 82.7164 99.8392 82.7164 100.217C82.7164 100.51 82.7652 100.754 82.8629 100.949C82.9671 101.145 83.12 101.311 83.3219 101.447C83.5172 101.577 83.7613 101.701 84.0543 101.818C84.3538 101.929 84.7216 102.056 85.1578 102.199C85.5875 102.336 85.9911 102.495 86.3687 102.678C86.7529 102.86 87.0686 103.062 87.316 103.283Z" fill="#545454"/>
<path d="M68.4502 35.3986C65.1753 34.284 60.8443 33.6702 56.2552 33.6702C55.9684 33.6702 55.6825 33.6725 55.398 33.6773C51.1289 33.7488 47.1304 34.3536 44.0601 35.3986C43.5675 35.5653 43.0818 35.7523 42.6045 35.9589V17.2325C42.6045 9.38472 36.2199 3 28.372 3C20.5241 3 14.1395 9.38472 14.1395 17.2325V42.9261C14.1395 50.7739 20.5241 57.1587 28.372 57.1587C30.8614 57.1587 33.3117 56.5062 35.4582 55.2717C36.8116 54.4934 38.0275 53.4936 39.0562 52.3257C39.804 53.3761 41.2845 54.4856 44.0602 55.4303C47.3352 56.5448 51.666 57.1587 56.2551 57.1587C60.8442 57.1587 65.1752 56.5448 68.4501 55.4303C73.1524 53.83 74.1395 51.7566 74.1395 50.299V40.5299C74.1395 39.0723 73.1524 36.9989 68.4502 35.3986ZM40.7149 40.5299C40.7154 40.4863 40.7193 40.4428 40.7266 40.3998L40.7286 40.3882C40.7683 40.1764 40.8957 39.9305 41.1302 39.6639L41.1346 39.6589C41.1702 39.6187 41.2089 39.578 41.2494 39.5368C41.2764 39.5096 41.3035 39.4823 41.3325 39.4552L41.3666 39.4233C41.563 39.2422 41.7996 39.0603 42.0726 38.8825C42.0773 38.8794 42.0813 38.8757 42.0859 38.8726C42.7265 38.4565 43.6175 38.025 44.8154 37.6173C47.8536 36.5834 51.9164 36.0138 56.2552 36.0138C60.2086 36.0139 63.9298 36.488 66.8585 37.3541L41.7792 41.9756C41.0262 41.4213 40.7162 40.9077 40.7149 40.5323V40.5299ZM40.2608 37.2903C39.3574 37.9825 38.8538 38.6857 38.5986 39.3382C38.5126 39.5576 38.4503 39.7855 38.4127 40.0181C38.3956 40.1239 38.3837 40.2305 38.3773 40.3375L38.3753 40.3677C38.3725 40.4224 38.3708 40.4766 38.3708 40.5298V49.3609C36.1684 52.7824 32.4545 54.8149 28.372 54.8149C21.8165 54.8149 16.4832 49.4816 16.4832 42.9261V31.2512H18.827V37.5793C18.827 38.2266 19.3517 38.7512 19.9988 38.7512C20.6459 38.7512 21.1707 38.2266 21.1707 37.5793V31.2512H40.2608V37.2903ZM40.2608 28.9075H21.1707V17.2325C21.1707 13.2618 24.4011 10.0312 28.372 10.0312C32.3429 10.0312 35.5733 13.2618 35.5733 17.2325C35.5733 17.8798 36.098 18.4044 36.7452 18.4044C37.3924 18.4044 37.917 17.8798 37.917 17.2325C37.917 11.9694 33.6351 7.6875 28.372 7.6875C23.1089 7.6875 18.827 11.9694 18.827 17.2325V28.9075H16.4832V17.2325C16.4832 10.6771 21.8165 5.34375 28.372 5.34375C34.9275 5.34375 40.2608 10.6771 40.2608 17.2325V28.9075ZM71.7957 50.299C71.7957 50.9987 70.7218 52.1814 67.6951 53.2116C64.6569 54.2455 60.5941 54.815 56.2552 54.815C51.9164 54.815 47.8536 54.2456 44.8154 53.2116C41.7887 52.1815 40.7148 50.9988 40.7148 50.299V49.6986L40.7149 49.697V44.0932C41.5357 44.6393 42.6239 45.1724 44.0602 45.6612C47.3352 46.7757 51.6662 47.3896 56.2552 47.3896C60.8443 47.3896 65.1753 46.7757 68.4502 45.6612C69.8866 45.1723 70.9749 44.6393 71.7957 44.0931V50.299ZM67.6951 43.4423C64.6569 44.4763 60.5942 45.0458 56.2552 45.0458C52.2451 45.0458 48.4728 44.5584 45.5254 43.6685L70.6645 39.036C71.4672 39.6098 71.7957 40.1435 71.7957 40.5299C71.7957 41.2296 70.7218 42.4123 67.6951 43.4423Z" fill="#F1CDB3"/>
<path d="M20.8272 41.402C20.7733 41.3481 20.7137 41.2989 20.6492 41.2567C20.5854 41.2141 20.5175 41.178 20.4465 41.1489C20.3762 41.1196 20.3025 41.0973 20.2275 41.0821C20.0766 41.0516 19.9212 41.0516 19.7704 41.0821C19.6954 41.0973 19.6216 41.1196 19.5501 41.1489C19.4797 41.1782 19.4118 41.2145 19.3485 41.2567C19.284 41.2989 19.2242 41.3481 19.1703 41.402C19.1164 41.4559 19.0672 41.5157 19.025 41.5802C18.9816 41.6434 18.9465 41.7114 18.9172 41.7829C18.8879 41.8532 18.8644 41.927 18.8505 42.002C18.8351 42.077 18.8271 42.1544 18.8271 42.2305C18.8271 42.3079 18.8351 42.3841 18.8505 42.4602C18.8644 42.5352 18.8879 42.6091 18.9172 42.6794C18.9465 42.7497 18.9816 42.8177 19.025 42.8821C19.0672 42.9454 19.1164 43.0052 19.1703 43.0602C19.3348 43.2232 19.5434 43.3345 19.7704 43.3802C19.8454 43.3954 19.9228 43.4024 19.9989 43.4024C20.1526 43.4028 20.3047 43.3725 20.4465 43.3134C20.5175 43.2842 20.5854 43.2481 20.6492 43.2055C20.7137 43.1622 20.7734 43.1141 20.8273 43.0602C20.8814 43.0052 20.9306 42.9454 20.9726 42.8821C21.0148 42.8177 21.0512 42.7497 21.0805 42.6794C21.1098 42.6091 21.1332 42.5352 21.1484 42.4602C21.1637 42.3841 21.1707 42.3079 21.1707 42.2305C21.1707 41.9223 21.0453 41.62 20.8272 41.402Z" fill="#F1CDB3"/>
</svg>
